<svg xmlns="http://www.w3.org/2000/svg" xmlns:xlink="http://www.w3.org/1999/xlink" xmlns:lucid="lucid" width="1252" height="661"><g transform="translate(-109.00000000000003 -379)" lucid:page-tab-id="0_0"><path d="M0 0h1870.87v1322.83H0z" fill="#fff"/><path d="M745 484.93c0-3.3 2.7-6 6-6h538c3.3 0 6 2.7 6 6v248c0 3.3-2.7 6-6 6H751c-3.3 0-6-2.7-6-6z" stroke="#3a414a" stroke-width="2" fill="#f2f3f5"/><path d="M160 859.55c0-3.3 2.7-6 6-6h328c3.3 0 6 2.7 6 6v88c0 3.32-2.7 6-6 6H166c-3.3 0-6-2.68-6-6z" stroke="#3a414a" stroke-width="2" fill="#dfe3e8"/><use xlink:href="#a" transform="matrix(1,0,0,1,165.00000000000003,858.5546851990465) translate(108.13580246913583 50.201388888888886)"/><path d="M500 858.63c0-3.32 2.7-6 6-6h328c3.3 0 6 2.68 6 6v88c0 3.3-2.7 6-6 6H506c-3.3 0-6-2.7-6-6z" stroke="#3a414a" stroke-width="2" fill="#dfe3e8"/><use xlink:href="#a" transform="matrix(1,0,0,1,505,857.6278450926427) translate(108.13580246913583 50.201388888888886)"/><path d="M840 858.63c0-3.32 2.7-6 6-6h108c3.3 0 6 2.68 6 6v88c0 3.3-2.7 6-6 6H846c-3.3 0-6-2.7-6-6z" stroke="#3a414a" stroke-width="2" fill="#dfe3e8"/><use xlink:href="#b" transform="matrix(1,0,0,1,845,857.6278450926427) translate(17.018518518518526 50.201388888888886)"/><path d="M960 858.63c0-3.32 2.7-6 6-6h108c3.3 0 6 2.68 6 6v88c0 3.3-2.7 6-6 6H966c-3.3 0-6-2.7-6-6z" stroke="#3a414a" stroke-width="2" fill="url(#c)"/><use xlink:href="#b" transform="matrix(1,0,0,1,965,857.6278450926427) translate(17.018518518518526 50.201388888888886)"/><path d="M1080 858.63c0-3.32 2.7-6 6-6h108c3.3 0 6 2.68 6 6v88c0 3.3-2.7 6-6 6h-108c-3.3 0-6-2.7-6-6z" fill="#fff"/><path d="M1097.57 852.63h7.72m7.7 0h7.7m7.73 0h7.7m7.73 0h7.7m7.73 0h7.7m7.7 0h7.73m7.7 0h3.87l3.03.82 2.15 2.15.82 3.03v3.66m0 7.33v7.33m0 7.33v7.33m0 7.33v7.33m0 7.33v7.33m0 7.33v7.33m0 7.33v3.67l-.82 3.03-2.15 2.15-3.03.83h-3.86m-7.7 0h-7.73m-7.7 0h-7.7m-7.73 0h-7.7m-7.73 0h-7.7m-7.73 0h-7.7m-7.7 0h-7.73m-7.7 0H1086l-3.03-.82-2.15-2.14-.82-3.03v-3.67m0-7.33v-7.34m0-7.34v-7.33m0-7.34v-7.34m0-7.33v-7.34m0-7.34v-7.33m0-7.34v-3.67l.82-3.03 2.15-2.15 3.03-.82h3.86" stroke="#3a414a" stroke-width="2" fill="none"/><path d="M160 806c0-3.3 2.7-6 6-6h328c3.3 0 6 2.7 6 6v40.63c0 3.3-2.7 6-6 6H166c-3.3 0-6-2.7-6-6z" stroke="#3a414a" stroke-width="2" fill="#edf5ff"/><use xlink:href="#d" transform="matrix(1,0,0,1,165.00000000000003,805) translate(127.01851851851853 27.576388888888886)"/><path d="M500 806c0-3.3 2.7-6 6-6h328c3.3 0 6 2.7 6 6v40.63c0 3.3-2.7 6-6 6H506c-3.3 0-6-2.7-6-6z" stroke="#3a414a" stroke-width="2" fill="#edf5ff"/><use xlink:href="#d" transform="matrix(1,0,0,1,505,805) translate(127.01851851851853 27.576388888888886)"/><path d="M840 806c0-3.3 2.7-6 6-6h108c3.3 0 6 2.7 6 6v40.63c0 3.3-2.7 6-6 6H846c-3.3 0-6-2.7-6-6z" stroke="#3a414a" stroke-width="2" fill="#edf5ff"/><use xlink:href="#d" transform="matrix(1,0,0,1,845,805) translate(17.018518518518526 27.576388888888886)"/><path d="M960 806c0-3.3 2.7-6 6-6h108c3.3 0 6 2.7 6 6v40.63c0 3.3-2.7 6-6 6H966c-3.3 0-6-2.7-6-6z" stroke="#3a414a" stroke-width="2" fill="#edf5ff"/><use xlink:href="#d" transform="matrix(1,0,0,1,965,805) translate(17.018518518518526 27.576388888888886)"/><path d="M1080 806c0-3.3 2.7-6 6-6h108c3.3 0 6 2.7 6 6v40.63c0 3.3-2.7 6-6 6h-108c-3.3 0-6-2.7-6-6z" fill="#fff"/><path d="M1097.57 800h7.72m7.7 0h7.7m7.73 0h7.7m7.73 0h7.7m7.73 0h7.7m7.7 0h7.73m7.7 0h3.87l3.03.82 2.15 2.15.82 3.03v3.4m0 6.76v6.77m0 6.77v6.77m0 6.77v3.4l-.82 3.02-2.15 2.15-3.03.83h-3.86m-7.7 0h-7.73m-7.7 0h-7.7m-7.73 0h-7.7m-7.73 0h-7.7m-7.73 0h-7.7m-7.7 0h-7.73m-7.7 0H1086l-3.03-.82-2.15-2.14-.82-3.03v-3.4m0-6.76v-6.77m0-6.77v-6.77m0-6.77V806l.82-3.03 2.15-2.15 3.03-.82h3.86" stroke="#3a414a" stroke-width="2" fill="none"/><path d="M775.43 582.93c0-3.3 2.7-6 6-6H934c3.3 0 6 2.7 6 6v110c0 3.3-2.7 6-6 6H781.43c-3.3 0-6-2.7-6-6z" stroke="#3a414a" stroke-width="2" fill="#fff"/><path d="M740 582.93c0-3.3 2.7-6 6-6h228c3.3 0 6 2.7 6 6v110c0 3.3-2.7 6-6 6H746c-3.3 0-6-2.7-6-6z" stroke="#000" stroke-opacity="0" fill="#fff" fill-opacity="0"/><use xlink:href="#e" transform="matrix(1,0,0,1,745,581.9308816720072) translate(47.246913580246925 42.388888888888886)"/><use xlink:href="#f" transform="matrix(1,0,0,1,745,581.9308816720072) translate(120.53086419753086 42.388888888888886)"/><use xlink:href="#g" transform="matrix(1,0,0,1,745,581.9308816720072) translate(44.654320987654344 79.72222222222221)"/><use xlink:href="#h" transform="matrix(1,0,0,1,745,581.9308816720072) translate(123.12345679012346 79.72222222222221)"/><path d="M775.43 524.93c0-3.3 2.7-6 6-6H934c3.3 0 6 2.7 6 6v48c0 3.3-2.7 6-6 6H781.43c-3.3 0-6-2.7-6-6z" stroke="#3a414a" stroke-width="2" fill="#fff"/><path d="M740 524.93c0-3.3 2.7-6 6-6h228c3.3 0 6 2.7 6 6v48c0 3.3-2.7 6-6 6H746c-3.3 0-6-2.7-6-6z" stroke="#000" stroke-opacity="0" fill="#fff" fill-opacity="0"/><use xlink:href="#i" transform="matrix(1,0,0,1,745,523.9308816720072) translate(48.97530864197533 31.138888888888886)"/><use xlink:href="#j" transform="matrix(1,0,0,1,745,523.9308816720072) translate(122.25925925925925 31.138888888888886)"/><path d="M964.65 582.72c-2.57-2.1-1.96-3.8 1.35-3.8h288c3.3 0 3.92 1.7 1.35 3.8l-140.7 114.42c-2.57 2.1-6.73 2.1-9.3 0z" stroke="#3a414a" stroke-width="2" fill="#fff"/><use xlink:href="#k" transform="matrix(1,0,0,1,965,583.9308816720072) translate(112.81364197530864 63.388888888888886)"/><path d="M960 524.93c0-3.3 2.7-6 6-6h288c3.3 0 6 2.7 6 6v48c0 3.3-2.7 6-6 6H966c-3.3 0-6-2.7-6-6z" stroke="#3a414a" stroke-width="2" fill="#fff"/><path d="M990 524.93c0-3.3 2.7-6 6-6h228c3.3 0 6 2.7 6 6v48c0 3.3-2.7 6-6 6H996c-3.3 0-6-2.7-6-6z" stroke="#000" stroke-opacity="0" fill="#fff" fill-opacity="0"/><use xlink:href="#l" transform="matrix(1,0,0,1,995.0000000000002,523.9308816720072) translate(30.697530864197546 31.138888888888886)"/><use xlink:href="#m" transform="matrix(1,0,0,1,995.0000000000002,523.9308816720072) translate(86.69753086419755 31.138888888888886)"/><use xlink:href="#n" transform="matrix(1,0,0,1,995.0000000000002,523.9308816720072) translate(122.47530864197532 31.138888888888886)"/><path d="M745.5 739.46c.04-.13.17-.2.3-.18l219.74 58.88c.14.04.22.18.18.3-.04.14-.17.22-.3.2l-219.74-58.9c-.14-.03-.22-.17-.18-.3zM1294.5 739.46c.04.13-.04.27-.18.3l-219.73 58.9c-.15.02-.28-.06-.32-.2-.04-.12.04-.26.18-.3l219.73-58.88c.13-.03.26.05.3.18z" stroke="#3a414a" stroke-width=".5" fill="none"/><path d="M240 524.93c0-3.3 2.7-6 6-6h268c3.3 0 6 2.7 6 6V594c0 3.3-2.7 6-6 6H246c-3.3 0-6-2.7-6-6z" stroke="#3a414a" stroke-width="2" fill="#00c2a8"/><use xlink:href="#o" transform="matrix(1,0,0,1,245,523.9308816720072) translate(52.68518518518522 42.888888888888886)"/><use xlink:href="#p" transform="matrix(1,0,0,1,245,523.9308816720072) translate(138.0679012345679 42.888888888888886)"/><path d="M380 516.93V396c0-3.3 2.7-6 6-6h628c3.3 0 6 2.7 6 6v63.43" stroke="#3a414a" stroke-width="2" fill="none"/><path d="M381 517.93h-2v-1.02h2z" stroke="#3a414a" stroke-width=".05" fill="#3a414a"/><path d="M1020 474.7l-4.64-14.27h9.28z" stroke="#3a414a" stroke-width="2" fill="#3a414a"/><path d="M1020 437.14V396c0-3.3 2.7-6 6-6h318c3.3 0 6 2.7 6 6v618c0 3.3-2.7 6-6 6h-318c-3.3 0-6-2.7-6-6v-41.87M1020 437.1v1.04" stroke="#3a414a" stroke-width="2" fill="none"/><path d="M1020 956.86l4.64 14.27h-9.28z" stroke="#3a414a" stroke-width="2" fill="#3a414a"/><path d="M860 406c0-3.3 2.7-6 6-6h228c3.3 0 6 2.7 6 6v48c0 3.3-2.7 6-6 6H866c-3.3 0-6-2.7-6-6z" stroke="#000" stroke-opacity="0" fill="#fff" fill-opacity="0"/><use xlink:href="#q" transform="matrix(1,0,0,1,865,405) translate(96.93827160493828 31.138888888888886)"/><path d="M860 966c0-3.3 2.7-6 6-6h228c3.3 0 6 2.7 6 6v48c0 3.3-2.7 6-6 6H866c-3.3 0-6-2.7-6-6z" stroke="#000" stroke-opacity="0" fill="#fff" fill-opacity="0"/><use xlink:href="#r" transform="matrix(1,0,0,1,865,965) translate(96.93827160493828 31.138888888888886)"/><path d="M240 646c0-3.3 2.7-6 6-6h268c3.3 0 6 2.7 6 6v69.07c0 3.3-2.7 6-6 6H246c-3.3 0-6-2.7-6-6z" stroke="#3a414a" stroke-width="2" fill="#ff8f8f"/><g><use xlink:href="#s" transform="matrix(1,0,0,1,245,645) translate(41.14814814814818 42.888888888888886)"/></g><path d="M240 966c0-3.3 2.7-6 6-6h228c3.3 0 6 2.7 6 6v48c0 3.3-2.7 6-6 6H246c-3.3 0-6-2.7-6-6z" stroke="#000" stroke-opacity="0" fill="#fff" fill-opacity="0"/><g><use xlink:href="#t" transform="matrix(1,0,0,1,245,965) translate(96.93827160493828 31.138888888888886)"/></g><path d="M238 680.53H126c-3.3 0-6 2.7-6 6V1014c0 3.3 2.7 6 6 6h198c3.3 0 6-2.7 6-6v-40.94" stroke="#3a414a" stroke-width="2" fill="none"/><path d="M239 681.53h-1.03v-2H239z" stroke="#3a414a" stroke-width=".05" fill="#3a414a"/><path d="M330 957.8l4.64 14.26h-9.28z" stroke="#3a414a" stroke-width="2" fill="#3a414a"/><defs><path fill="#3a414a" d="M185-72C185 13 82 14 19-9v-63h16c2 37 21 58 61 58 46 0 69-51 31-71-42-23-106-23-106-90 0-69 87-70 148-56v56h-16l-7-32c-26-25-110-13-82 35 39 34 121 26 121 100" id="u"/><path fill="#3a414a" d="M12-83c0-55 22-85 75-86 52-1 66 33 63 88H64c-1 37 6 64 44 63 14 0 28-4 39-6 3 28-28 25-55 27-57 4-80-31-80-86zm90-17c2-26 0-63-27-48-10 9-11 28-11 48h38" id="v"/><path fill="#3a414a" d="M9 41c2-18 18-26 32-33C29 1 16-9 16-28l29-33c-21-9-31-25-31-51-2-56 61-65 111-53l39-20c13 12-9 24-14 36 35 54-17 114-90 92-17 34 27 28 56 28 36-1 61 12 60 46-2 46-39 62-91 62-38 0-71-6-76-38zm35-3c6 35 97 29 94-9-2-28-50-14-78-17-8 7-15 14-16 26zm20-150c0 22 4 40 23 40 20 0 24-17 24-40 0-24-4-40-24-40-19 0-23 17-23 40" id="w"/><path fill="#3a414a" d="M126-114c3-31-27-37-49-25v123l15 4V0H10v-12l16-4v-133l-16-5v-11h64l2 14c24-16 81-33 96 3 30-24 105-39 105 27v105l17 4V0h-82v-12l14-4v-98c4-33-27-37-51-24 5 35 0 82 2 122l17 4V0h-83v-12l15-4v-98" id="x"/><path fill="#3a414a" d="M127-114c3-31-26-38-50-25v123l15 4V0H10v-12l16-4v-133l-16-5v-11h64l2 14c31-23 102-32 102 30v105l17 4V0h-82v-12l14-4v-98" id="y"/><path fill="#3a414a" d="M78-41c-2 24 21 26 40 20C122 3 98 2 77 4 5 10 32-84 27-147H6v-11l25-7 21-38h26v38h35v18H78v106" id="z"/><g id="a"><use transform="matrix(0.08641975308641973,0,0,0.08641975308641973,0,0)" xlink:href="#u"/><use transform="matrix(0.08641975308641973,0,0,0.08641975308641973,17.283950617283946,0)" xlink:href="#v"/><use transform="matrix(0.08641975308641973,0,0,0.08641975308641973,31.024691358024686,0)" xlink:href="#w"/><use transform="matrix(0.08641975308641973,0,0,0.08641975308641973,46.58024691358024,0)" xlink:href="#x"/><use transform="matrix(0.08641975308641973,0,0,0.08641975308641973,72.41975308641973,0)" xlink:href="#v"/><use transform="matrix(0.08641975308641973,0,0,0.08641975308641973,86.16049382716047,0)" xlink:href="#y"/><use transform="matrix(0.08641975308641973,0,0,0.08641975308641973,103.44444444444443,0)" xlink:href="#z"/></g><path fill="#3a414a" d="M92-134c39 3 62-4 62-44 0-37-25-40-62-38v82zm0 115c49 5 80-2 80-50 0-44-34-49-80-46v96zm138-50C230 26 101-4 6 0v-13l30-5v-200l-30-5v-13c79 7 206-26 206 54 0 33-22 49-49 56 39 3 67 18 67 57" id="A"/><path fill="#3a414a" d="M76-16l18 4V0H7v-12l18-4v-218l-17-4v-12h68v234" id="B"/><path fill="#3a414a" d="M90-170c54-1 76 32 76 87 1 56-23 87-77 87-53 0-75-32-75-87s23-86 76-87zM89-14c28-2 26-38 26-69s3-69-26-69c-27 0-24 39-24 69s-3 66 24 69" id="C"/><path fill="#3a414a" d="M109-18c15 0 31-2 42-6v14c-11 9-31 13-51 13-59 0-86-28-88-86-3-75 66-101 135-80v48h-13c-3-20-7-40-34-37-51 7-55 138 9 134" id="D"/><path fill="#3a414a" d="M77-79l64-71-17-4v-11h63v11c-32 3-40 30-59 46l57 92 15 4V0h-80c-2-11 3-15 10-16L97-74 77-60v44l16 4V0H10v-12l16-4v-218l-17-4v-12h68v171" id="E"/><g id="b"><use transform="matrix(0.08641975308641973,0,0,0.08641975308641973,0,0)" xlink:href="#A"/><use transform="matrix(0.08641975308641973,0,0,0.08641975308641973,20.740740740740737,0)" xlink:href="#B"/><use transform="matrix(0.08641975308641973,0,0,0.08641975308641973,29.382716049382708,0)" xlink:href="#C"/><use transform="matrix(0.08641975308641973,0,0,0.08641975308641973,44.938271604938265,0)" xlink:href="#D"/><use transform="matrix(0.08641975308641973,0,0,0.08641975308641973,58.679012345679,0)" xlink:href="#E"/></g><linearGradient gradientUnits="userSpaceOnUse" id="c" x1="960" y1="852.63" x2="960" y2="952.63"><stop offset="52.42%" stop-color="#fff"/><stop offset="53.23%" stop-color="#dfe3e8"/><stop offset="52.82%" stop-color="#b6bfca"/></linearGradient><path fill="#3a414a" d="M98-18l30 5V0H12v-13l30-5v-200l-30-5v-13h116v13l-30 5v200" id="F"/><path fill="#3a414a" d="M15-82c-4-69 47-101 113-83l-1-69-17-4v-12h68v234l18 4V0h-63l-4-9C77 23 5-9 15-82zm112-66c-43-16-64 17-61 65 2 33 3 67 32 67 12 0 22-3 29-8v-124" id="G"/><path fill="#3a414a" d="M5-154v-11h89v11l-19 5 24 37 32-37-16-5v-11h56v11l-15 4-46 54 52 81 16 4V0H90v-11l18-4-29-45-38 45 17 4V0H1v-11l15-3 53-62-48-73" id="H"/><g id="d"><use transform="matrix(0.08641975308641973,0,0,0.08641975308641973,0,0)" xlink:href="#F"/><use transform="matrix(0.08641975308641973,0,0,0.08641975308641973,12.098765432098762,0)" xlink:href="#y"/><use transform="matrix(0.08641975308641973,0,0,0.08641975308641973,29.382716049382708,0)" xlink:href="#G"/><use transform="matrix(0.08641975308641973,0,0,0.08641975308641973,46.66666666666666,0)" xlink:href="#v"/><use transform="matrix(0.08641975308641973,0,0,0.08641975308641973,60.4074074074074,0)" xlink:href="#H"/></g><path fill="#3a414a" d="M155 0h-10L58-199v181l32 5V0H6v-13l30-5v-200l-30-5v-13h93l67 155 69-155h94v13l-30 5v200l30 5V0H212v-13l32-5v-181" id="I"/><path fill="#3a414a" d="M77-16l18 4V0H8v-12l18-4v-133l-17-5v-11h68v149zM51-196c-16 0-27-10-27-27s10-27 27-27 27 11 27 27c0 17-10 27-27 27" id="J"/><path fill="#3a414a" d="M88-24C86-8 77 5 59 5S30-7 30-24s11-29 29-29 27 13 29 29zM59-169c40 0 34 59 0 59-17 0-29-12-29-30 1-17 11-29 29-29" id="K"/><g id="e"><use transform="matrix(0.08641975308641973,0,0,0.08641975308641973,0,0)" xlink:href="#I"/><use transform="matrix(0.08641975308641973,0,0,0.08641975308641973,29.29629629629629,0)" xlink:href="#J"/><use transform="matrix(0.08641975308641973,0,0,0.08641975308641973,37.938271604938265,0)" xlink:href="#y"/><use transform="matrix(0.08641975308641973,0,0,0.08641975308641973,55.22222222222221,0)" xlink:href="#K"/></g><path fill="#3a414a" d="M120-19l41 4V0H29v-15l41-4v-178l-41 13v-15l66-39h25v219" id="L"/><path fill="#3a414a" d="M23-231c66-19 162-2 134 80C139-97 87-78 49-40h116V0H15v-33c34-46 90-67 94-145 2-38-37-54-63-33l-8 34H23v-54" id="M"/><path fill="#3a414a" d="M108-123c37 3 59 22 60 59C169 8 81 11 16-4l-2-57h16c4 25 8 49 41 47 31-1 44-21 45-52 2-37-24-47-61-46v-22c33 1 52-9 50-44 6-38-35-53-61-33l-7 34H21v-54c52-13 140-14 136 51-2 33-19 52-49 57" id="N"/><path fill="#3a414a" d="M150-47V0h-48v-47H5v-28l106-162h39v154h23v36h-23zm-48-36l2-107L34-83h68" id="O"/><g id="f"><use transform="matrix(0.08641975308641973,0,0,0.08641975308641973,0,0)" xlink:href="#L"/><use transform="matrix(0.08641975308641973,0,0,0.08641975308641973,15.555555555555552,0)" xlink:href="#M"/><use transform="matrix(0.08641975308641973,0,0,0.08641975308641973,31.111111111111104,0)" xlink:href="#N"/><use transform="matrix(0.08641975308641973,0,0,0.08641975308641973,46.66666666666666,0)" xlink:href="#O"/></g><path fill="#3a414a" d="M31-163c51-5 127-20 127 40v107l17 4V0h-61l-4-13C82 13 12 12 12-46c0-51 46-52 95-53 9-45-22-69-57-44l-7 20H31v-40zM62-47c0 30 26 34 45 23v-59c-28 0-45 6-45 36" id="P"/><g id="g"><use transform="matrix(0.08641975308641973,0,0,0.08641975308641973,0,0)" xlink:href="#I"/><use transform="matrix(0.08641975308641973,0,0,0.08641975308641973,29.29629629629629,0)" xlink:href="#P"/><use transform="matrix(0.08641975308641973,0,0,0.08641975308641973,44.85185185185184,0)" xlink:href="#H"/><use transform="matrix(0.08641975308641973,0,0,0.08641975308641973,60.4074074074074,0)" xlink:href="#K"/></g><path fill="#3a414a" d="M46-135c59-12 121 1 121 65C167 6 84 13 17-4l-3-57h17c4 25 9 49 44 47 30-2 40-23 40-54 0-46-35-65-71-47H26v-121h123v39H46v62" id="Q"/><path fill="#3a414a" d="M64-135c49-21 105 0 105 62 0 50-26 77-73 77-64 0-82-53-84-120-2-89 54-142 143-115v54h-15c4-38-43-60-62-22-8 16-12 39-14 64zm54 65c3-37-19-64-54-46 3 43-3 92 31 102 23-3 21-26 23-56" id="R"/><path fill="#3a414a" d="M36-168H21v-68h150v14L80 0H38l99-197H44" id="S"/><path fill="#3a414a" d="M90-239c77 0 97 95 36 114 24 9 42 28 42 61 0 48-28 68-79 68-49 0-77-20-77-68 1-33 17-52 41-61-21-8-36-26-36-53 0-42 29-61 73-61zM89-14c26 0 29-23 29-50s-2-51-29-51c-26 0-27 24-27 51s2 50 27 50zm0-120c36-1 33-87 0-88-31 3-32 86 0 88" id="T"/><g id="h"><use transform="matrix(0.08641975308641973,0,0,0.08641975308641973,0,0)" xlink:href="#Q"/><use transform="matrix(0.08641975308641973,0,0,0.08641975308641973,15.555555555555552,0)" xlink:href="#R"/><use transform="matrix(0.08641975308641973,0,0,0.08641975308641973,31.111111111111104,0)" xlink:href="#S"/><use transform="matrix(0.08641975308641973,0,0,0.08641975308641973,46.66666666666666,0)" xlink:href="#T"/></g><path fill="#3a414a" d="M63-18c35 0 73 0 101-6l18-45h16L181 0H-1l4-20 145-197-85 3-12 38H35l10-60h166l-4 19" id="U"/><path fill="#3a414a" d="M75-14c36-8 43-53 45-96 1-23-4-40-22-42-35 9-46 53-46 96 0 21 6 40 23 42zm93-86C168-39 132 4 71 4 29 4 6-22 6-66c0-62 36-104 96-104 43 0 66 27 66 70" id="V"/><path fill="#3a414a" d="M144-170c70 0 21 104 18 154l21 4-3 12h-68l22-127c-7-34-45-7-53 8C63-87 64-39 54 0H7l26-149-15-5 2-11h59l-2 31c16-20 34-36 67-36" id="W"/><path fill="#3a414a" d="M8-58c3-72 59-136 130-101 9 5 14 13 14 25 0 48-53 54-95 64-3 26 4 52 31 52 20 0 33-9 45-17l8 11C108 13 5 18 8-58zm101-78c-5-28-28-9-35 5-6 12-12 25-14 42 27-4 47-18 49-47" id="X"/><g id="i"><use transform="matrix(0.08641975308641973,0,0,0.08641975308641973,0,0)" xlink:href="#U"/><use transform="matrix(0.08641975308641973,0,0,0.08641975308641973,18.92592592592592,0)" xlink:href="#V"/><use transform="matrix(0.08641975308641973,0,0,0.08641975308641973,34.481481481481474,0)" xlink:href="#W"/><use transform="matrix(0.08641975308641973,0,0,0.08641975308641973,51.76543209876541,0)" xlink:href="#X"/></g><path fill="#3a414a" d="M130 0h-8L83-204 50-18l31 5-2 13H-5l2-13 31-5 36-200-30-5 3-13h86l29 154 84-154h94l-2 13-31 5-36 200 30 5-2 13H173l2-13 35-5 32-186" id="Y"/><path fill="#3a414a" d="M4-56c-1-80 62-132 143-106 7-3 13-7 24-6L145-16l19 6-2 10h-61v-24C89-11 75 4 51 4 17 4 5-22 4-56zm116-90c-48-23-67 38-70 84-2 36 29 52 46 24 2-3 5-6 7-9" id="Z"/><path fill="#3a414a" d="M124-170c31 0 45 25 45 59C170-40 123 20 52-2l-9 63 28 4-2 12h-95l2-12 19-4 37-211-17-5 2-10h61l-1 24c11-15 25-29 47-29zM57-22c45 27 66-36 66-81 0-26-13-53-34-33-5 4-10 9-15 16" id="aa"/><g id="j"><use transform="matrix(0.08641975308641973,0,0,0.08641975308641973,0,0)" xlink:href="#Y"/><use transform="matrix(0.08641975308641973,0,0,0.08641975308641973,27.654320987654316,0)" xlink:href="#Z"/><use transform="matrix(0.08641975308641973,0,0,0.08641975308641973,43.209876543209866,0)" xlink:href="#aa"/></g><path fill="#3a414a" d="M75-13V0H4v-13l17-5 84-220h51l83 220 18 5V0H152v-13l28-5-23-61H67L45-18zm38-189L74-98h76" id="ab"/><path fill="#3a414a" d="M222-170c0 37-18 56-47 65l63 87 25 5V0h-76l-66-100H92v82l30 5V0H8v-13l28-5v-200l-30-5v-13c89 5 214-24 216 66zM92-119c45 2 75-3 75-50s-30-49-75-47v97" id="ac"/><path fill="#3a414a" d="M54 0v-13l38-5v-199l-66 3-4 44H6v-66h229v66h-17l-4-44c-17-2-44-3-67-3v199l38 5V0H54" id="ad"/><g id="k"><use transform="matrix(0.08641975308641973,0,0,0.08641975308641973,0,0)" xlink:href="#ab"/><use transform="matrix(0.08641975308641973,0,0,0.08641975308641973,22.38271604938271,0)" xlink:href="#ac"/><use transform="matrix(0.08641975308641973,0,0,0.08641975308641973,43.64197530864197,0)" xlink:href="#ad"/></g><path fill="#3a414a" d="M82-18l32 5-2 13H-3l2-13 32-5 35-200-29-5 2-13h110l-2 13-29 5-16 92 101-92-20-5 2-13h75l-2 13-25 5-83 75 62 125 24 5-2 13h-68l-52-112-16 8" id="ae"/><path fill="#3a414a" d="M116-165c22 0 56-7 42 26C128-75 87-21 52 37 36 63 6 88-36 74l7-42h11c-5 29 27 32 42 11 9-13 20-28 29-42L15-149l-11-5 2-11h54L86-53c14-28 38-48 43-84 2-12-7-14-15-17" id="af"/><g id="l"><use transform="matrix(0.08641975308641973,0,0,0.08641975308641973,0,0)" xlink:href="#ae"/><use transform="matrix(0.08641975308641973,0,0,0.08641975308641973,20.740740740740737,0)" xlink:href="#X"/><use transform="matrix(0.08641975308641973,0,0,0.08641975308641973,34.481481481481474,0)" xlink:href="#af"/></g><path fill="#3a414a" d="M8-69l5-31h94l-6 31H8" id="ag"/><path fill="#3a414a" d="M27-29v-25l135-66-135-65v-25l167 83v15" id="ah"/><g id="m"><use transform="matrix(0.08641975308641973,0,0,0.08641975308641973,0,0)" xlink:href="#ag"/><use transform="matrix(0.08641975308641973,0,0,0.08641975308641973,10.28395061728395,0)" xlink:href="#ah"/></g><path fill="#3a414a" d="M115-15c62 0 82-68 82-133 0-40-13-70-51-72-60 9-80 70-80 135 0 39 12 70 49 70zm135-128C250-54 203 4 112 4 52 4 13-31 13-92c0-89 47-146 137-146 61 0 100 34 100 95" id="ai"/><path fill="#3a414a" d="M39-147H11l2-12 29-7c4-61 39-99 108-84l-7 39h-11c4-19-15-32-27-15-10 14-11 41-16 61h37l-3 18H86L47 77H0" id="aj"/><path fill="#3a414a" d="M108-141c-17-26-77-2-45 26 22 19 57 24 59 63C125 7 47 13-2-6l8-46h12c-1 24 9 40 34 39 18-1 30-9 31-27-10-38-66-30-66-80 0-55 66-55 112-44l-8 42h-11" id="ak"/><path fill="#3a414a" d="M62-57c-4 16-6 39 13 38 8 0 13-3 20-4l4 12C72 11 3 12 13-44l18-103H11l2-11 25-7 24-38h26l-7 38h28l-3 18H78" id="al"/><g id="n"><use transform="matrix(0.08641975308641973,0,0,0.08641975308641973,0,0)" xlink:href="#ai"/><use transform="matrix(0.08641975308641973,0,0,0.08641975308641973,22.38271604938271,0)" xlink:href="#aj"/><use transform="matrix(0.08641975308641973,0,0,0.08641975308641973,32.06172839506172,0)" xlink:href="#aj"/><use transform="matrix(0.08641975308641973,0,0,0.08641975308641973,42.34567901234567,0)" xlink:href="#ak"/><use transform="matrix(0.08641975308641973,0,0,0.08641975308641973,54.444444444444436,0)" xlink:href="#X"/><use transform="matrix(0.08641975308641973,0,0,0.08641975308641973,68.18518518518516,0)" xlink:href="#al"/></g><path fill="#3a414a" d="M127-114c3-31-26-38-50-25v123l15 4V0H10v-12l16-4v-218l-17-4v-12h68l-1 99c31-23 102-32 102 30v105l17 4V0h-82v-12l14-4v-98" id="am"/><g id="o"><use transform="matrix(0.08641975308641973,0,0,0.08641975308641973,0,0)" xlink:href="#A"/><use transform="matrix(0.08641975308641973,0,0,0.08641975308641973,20.740740740740737,0)" xlink:href="#P"/><use transform="matrix(0.08641975308641973,0,0,0.08641975308641973,36.29629629629629,0)" xlink:href="#z"/><use transform="matrix(0.08641975308641973,0,0,0.08641975308641973,46.58024691358024,0)" xlink:href="#D"/><use transform="matrix(0.08641975308641973,0,0,0.08641975308641973,60.32098765432097,0)" xlink:href="#am"/></g><path fill="#3a414a" d="M102-142c-14-17-68-15-54 18 24 26 83 17 83 72 0 62-72 62-120 47v-45h12c4 23 16 37 43 37 35 0 39-37 9-46-31-9-65-19-64-61 0-52 59-55 108-45v43h-11" id="an"/><path fill="#3a414a" d="M132-132c-21 0-37 9-50 16v100l26 4V0H10v-12l21-4v-133l-21-5v-11h69l2 34c17-18 35-41 71-40v61c-17 3-14-14-20-22" id="ao"/><g id="p"><use transform="matrix(0.08641975308641973,0,0,0.08641975308641973,0,0)" xlink:href="#F"/><use transform="matrix(0.08641975308641973,0,0,0.08641975308641973,12.098765432098762,0)" xlink:href="#y"/><use transform="matrix(0.08641975308641973,0,0,0.08641975308641973,29.382716049382708,0)" xlink:href="#an"/><use transform="matrix(0.08641975308641973,0,0,0.08641975308641973,41.48148148148147,0)" xlink:href="#v"/><use transform="matrix(0.08641975308641973,0,0,0.08641975308641973,55.2222222222222,0)" xlink:href="#ao"/><use transform="matrix(0.08641975308641973,0,0,0.08641975308641973,68.96296296296293,0)" xlink:href="#z"/></g><path fill="#3a414a" d="M108-230c-35 27-44 80-44 143s8 116 44 144v20C7 49-17-153 67-223c12-10 25-19 41-27v20" id="ap"/><path fill="#3a414a" d="M12-250C113-222 137-19 52 49 40 59 28 69 12 77V57C48 29 56-24 56-87s-9-116-44-143v-20" id="aq"/><g id="q"><use transform="matrix(0.08641975308641973,0,0,0.08641975308641973,0,0)" xlink:href="#ap"/><use transform="matrix(0.08641975308641973,0,0,0.08641975308641973,10.28395061728395,0)" xlink:href="#L"/><use transform="matrix(0.08641975308641973,0,0,0.08641975308641973,25.8395061728395,0)" xlink:href="#aq"/></g><g id="r"><use transform="matrix(0.08641975308641973,0,0,0.08641975308641973,0,0)" xlink:href="#ap"/><use transform="matrix(0.08641975308641973,0,0,0.08641975308641973,10.28395061728395,0)" xlink:href="#M"/><use transform="matrix(0.08641975308641973,0,0,0.08641975308641973,25.8395061728395,0)" xlink:href="#aq"/></g><path fill="#3a414a" d="M92-20c74 11 92-29 92-98 0-66-23-103-92-98v196zm150-99C242 9 136 6 6 0v-13l31-5v-200l-31-5v-13h112c81 0 124 34 124 117" id="ar"/><path fill="#3a414a" d="M21 4H-4l83-241h25" id="as"/><path fill="#3a414a" d="M91-218c7 77-29 197 56 197 84 0 47-121 55-197l-31-5v-13h80v13l-27 5v137c-1 56-32 84-91 84-59-1-96-26-97-85v-136l-27-5v-13h112v13" id="at"/><path fill="#3a414a" d="M186-86c2 69-46 103-114 85l1 62 25 4v12H5V65l18-4v-210l-18-5v-11h67v8c12-8 26-13 46-13 49 2 67 30 68 84zm-83 71c28 0 31-33 31-69 0-34-2-66-30-66-12 0-23 3-31 7v124c9 2 20 4 30 4" id="au"/><g id="s"><use transform="matrix(0.08641975308641973,0,0,0.08641975308641973,0,0)" xlink:href="#ar"/><use transform="matrix(0.08641975308641973,0,0,0.08641975308641973,22.38271604938271,0)" xlink:href="#v"/><use transform="matrix(0.08641975308641973,0,0,0.08641975308641973,36.12345679012345,0)" xlink:href="#B"/><use transform="matrix(0.08641975308641973,0,0,0.08641975308641973,44.76543209876542,0)" xlink:href="#v"/><use transform="matrix(0.08641975308641973,0,0,0.08641975308641973,58.50617283950616,0)" xlink:href="#z"/><use transform="matrix(0.08641975308641973,0,0,0.08641975308641973,68.79012345679011,0)" xlink:href="#v"/><use transform="matrix(0.08641975308641973,0,0,0.08641975308641973,82.53086419753085,0)" xlink:href="#as"/><use transform="matrix(0.08641975308641973,0,0,0.08641975308641973,91.17283950617282,0)" xlink:href="#at"/><use transform="matrix(0.08641975308641973,0,0,0.08641975308641973,113.55555555555553,0)" xlink:href="#au"/><use transform="matrix(0.08641975308641973,0,0,0.08641975308641973,130.83950617283946,0)" xlink:href="#G"/><use transform="matrix(0.08641975308641973,0,0,0.08641975308641973,148.1234567901234,0)" xlink:href="#P"/><use transform="matrix(0.08641975308641973,0,0,0.08641975308641973,163.67901234567896,0)" xlink:href="#z"/><use transform="matrix(0.08641975308641973,0,0,0.08641975308641973,173.9629629629629,0)" xlink:href="#v"/></g><g id="t"><use transform="matrix(0.08641975308641973,0,0,0.08641975308641973,0,0)" xlink:href="#ap"/><use transform="matrix(0.08641975308641973,0,0,0.08641975308641973,10.28395061728395,0)" xlink:href="#N"/><use transform="matrix(0.08641975308641973,0,0,0.08641975308641973,25.8395061728395,0)" xlink:href="#aq"/></g></defs></g></svg>