<svg xmlns="http://www.w3.org/2000/svg" xmlns:xlink="http://www.w3.org/1999/xlink" xmlns:lucid="lucid" width="1780" height="681"><g transform="translate(-20 -279)" lucid:page-tab-id="0_0"><path d="M0 0h1870.87v1322.83H0z" fill="#fff"/><path d="M480.5 846c0-3.3 2.7-6 6-6h408c3.3 0 6 2.7 6 6v88c0 3.3-2.7 6-6 6h-408c-3.3 0-6-2.7-6-6z" stroke="#3a414a" stroke-width="2" fill="#dfe3e8"/><use xlink:href="#a" transform="matrix(1,0,0,1,485.5,845) translate(148.13580246913583 50.201388888888886)"/><path d="M480.5 786c0-3.3 2.7-6 6-6h408c3.3 0 6 2.7 6 6v48c0 3.3-2.7 6-6 6h-408c-3.3 0-6-2.7-6-6z" stroke="#3a414a" stroke-width="2" fill="#edf5ff"/><use xlink:href="#b" transform="matrix(1,0,0,1,485.5,785) translate(167.01851851851853 31.138888888888886)"/><path d="M900.5 846c0-3.3 2.7-6 6-6h128c3.3 0 6 2.7 6 6v88c0 3.3-2.7 6-6 6h-128c-3.3 0-6-2.7-6-6z" stroke="#3a414a" stroke-width="2" fill="#dfe3e8"/><use xlink:href="#c" transform="matrix(1,0,0,1,905.5,845) translate(27.518518518518526 50.201388888888886)"/><path d="M900.5 786c0-3.3 2.7-6 6-6h128c3.3 0 6 2.7 6 6v48c0 3.3-2.7 6-6 6h-128c-3.3 0-6-2.7-6-6z" stroke="#3a414a" stroke-width="2" fill="#cfe4ff"/><use xlink:href="#b" transform="matrix(1,0,0,1,905.5,785) translate(27.518518518518526 31.138888888888886)"/><path d="M1040.5 846c0-3.3 2.7-6 6-6h128c3.3 0 6 2.7 6 6v88c0 3.3-2.7 6-6 6h-128c-3.3 0-6-2.7-6-6z" stroke="#3a414a" stroke-width="2" fill="url(#d)"/><use xlink:href="#c" transform="matrix(1,0,0,1,1045.5,845) translate(27.018518518518526 50.201388888888886)"/><path d="M1040.5 786c0-3.3 2.7-6 6-6h128c3.3 0 6 2.7 6 6v48c0 3.3-2.7 6-6 6h-128c-3.3 0-6-2.7-6-6z" stroke="#3a414a" stroke-width="2" fill="#6db1ff"/><use xlink:href="#b" transform="matrix(1,0,0,1,1045.5,785) translate(27.018518518518526 31.138888888888886)"/><path d="M1180.5 846c0-3.3 2.7-6 6-6h128c3.3 0 6 2.7 6 6v88c0 3.3-2.7 6-6 6h-128c-3.3 0-6-2.7-6-6z" fill="#fff"/><path d="M1198.5 840h8m8 0h8m8 0h8m8 0h8m8 0h8m8 0h8m8 0h8m8 0h4l3.03.82 2.15 2.15.82 3.03v3.67m0 7.33v7.33m0 7.34V879m0 7.33v7.34m0 7.33v7.33m0 7.34V923m0 7.33V934l-.82 3.03-2.15 2.15-3.03.82h-4m-8 0h-8m-8 0h-8m-8 0h-8m-8 0h-8m-8 0h-8m-8 0h-8m-8 0h-8m-8 0h-4l-3.03-.82-2.15-2.15-.82-3.03v-3.67m0-7.33v-7.33m0-7.34V901m0-7.33v-7.34m0-7.33v-7.33m0-7.34V857m0-7.33V846l.82-3.03 2.15-2.15 3.03-.82h4" stroke="#3a414a" stroke-width="2" fill="none"/><path d="M1180.5 786c0-3.3 2.7-6 6-6h128c3.3 0 6 2.7 6 6v48c0 3.3-2.7 6-6 6h-128c-3.3 0-6-2.7-6-6z" fill="#fff"/><path d="M1198.5 780h8m8 0h8m8 0h8m8 0h8m8 0h8m8 0h8m8 0h8m8 0h4l3.03.82 2.15 2.15.82 3.03v4m0 8v8m0 8v8m0 8v4l-.82 3.03-2.15 2.15-3.03.82h-4m-8 0h-8m-8 0h-8m-8 0h-8m-8 0h-8m-8 0h-8m-8 0h-8m-8 0h-8m-8 0h-4l-3.03-.82-2.15-2.15-.82-3.03v-4m0-8v-8m0-8v-8m0-8v-4l.82-3.03 2.15-2.15 3.03-.82h4" stroke="#3a414a" stroke-width="2" fill="none"/><path d="M60.5 846c0-3.3 2.7-6 6-6h408c3.3 0 6 2.7 6 6v88c0 3.3-2.7 6-6 6h-408c-3.3 0-6-2.7-6-6z" stroke="#3a414a" stroke-width="2" fill="#dfe3e8"/><use xlink:href="#a" transform="matrix(1,0,0,1,65.5,845) translate(148.13580246913583 50.201388888888886)"/><path d="M60.5 786c0-3.3 2.7-6 6-6h408c3.3 0 6 2.7 6 6v48c0 3.3-2.7 6-6 6h-408c-3.3 0-6-2.7-6-6z" stroke="#3a414a" stroke-width="2" fill="#edf5ff"/><use xlink:href="#b" transform="matrix(1,0,0,1,65.5,785) translate(167.01851851851853 31.138888888888886)"/><g fill="none"><path d="M61 651c.28 0 .5.22.5.5v128c0 .28-.22.5-.5.5s-.5-.22-.5-.5v-128c0-.28.22-.5.5-.5z"/><path d="M61.5 663.5v8m0 8v8m0 8v8m0 8v8m0 8v8m0 8v8m0 8v8m0 8v4l-.15.35-.35.15-.35-.15-.15-.35v-4m0-8v-8m0-8v-8m0-8v-8m0-8v-8m0-8v-8m0-8v-8m0-8v-8m0-8v-4l.15-.35.35-.15.35.15.15.35v4" stroke="#3a414a"/></g><g fill="none"><path d="M479.5 650.5c.28 0 .5.22.5.5v128c0 .28-.22.5-.5.5s-.5-.22-.5-.5V651c0-.28.22-.5.5-.5z"/><path d="M480 663v8m0 8v8m0 8v8m0 8v8m0 8v8m0 8v8m0 8v8m0 8v4l-.15.35-.35.15-.35-.15-.15-.35v-4m0-8v-8m0-8v-8m0-8v-8m0-8v-8m0-8v-8m0-8v-8m0-8v-8m0-8v-4l.15-.35.35-.15.35.15.15.35v4" stroke="#3a414a"/></g><path d="M60.5 340h418v310h-418z" stroke="#3a414a" stroke-width="2" fill="#f2f3f5"/><path d="M80 410h160v200H80z" stroke="#3a414a" stroke-width="2" fill="#fff"/><path d="M80 360h160v50H80z" stroke="#3a414a" stroke-width="2" fill="#edf5ff"/><path d="M248.96 414.5c-2.2-2.5-1.3-4.5 2-4.5h200.87c3.32 0 4.22 2 2.02 4.5l-98.47 111c-2.2 2.5-5.76 2.5-7.96 0z" stroke="#3a414a" stroke-width="2" fill="#fff"/><path d="M244.97 360h212.86v50H244.97z" stroke="#3a414a" stroke-width="2" fill="#e3fae3"/><path d="M40 370.8c0-3.33 2.7-6 6-6h228c3.3 0 6 2.67 6 6v28.4c0 3.33-2.7 6-6 6H46c-3.3 0-6-2.67-6-6z" stroke="#000" stroke-opacity="0" fill="#fff" fill-opacity="0"/><use xlink:href="#e" transform="matrix(1,0,0,1,45,369.7865750699056) translate(48.97530864197533 24.888888888888886)"/><use xlink:href="#f" transform="matrix(1,0,0,1,45,369.7865750699056) translate(122.25925925925925 24.888888888888886)"/><path d="M220 370.8c0-3.33 2.7-6 6-6h250.8c3.32 0 6 2.67 6 6v28.4c0 3.33-2.68 6-6 6H226c-3.3 0-6-2.67-6-6z" stroke="#000" stroke-opacity="0" fill="#fff" fill-opacity="0"/><use xlink:href="#g" transform="matrix(1,0,0,1,225,369.7865750699056) translate(44.01234567901237 24.888888888888886)"/><use xlink:href="#h" transform="matrix(1,0,0,1,225,369.7865750699056) translate(136.48148148148147 24.888888888888886)"/><path d="M238.5 571c0-3.3 2.7-6 6-6h228c3.3 0 6 2.7 6 6v48c0 3.3-2.7 6-6 6h-228c-3.3 0-6-2.7-6-6z" stroke="#000" stroke-opacity="0" fill="#fff" fill-opacity="0"/><use xlink:href="#i" transform="matrix(1,0,0,1,243.5,570) translate(35.04938271604941 31.569444444444436)"/><path d="M80 416c0-3.3 2.7-6 6-6h148c3.3 0 6 2.7 6 6v62c0 3.3-2.7 6-6 6H86c-3.3 0-6-2.7-6-6z" stroke="#282c33" stroke-width="2" fill="#fff"/><use xlink:href="#j" transform="matrix(1,0,0,1,85,415) translate(24.407407407407412 21.333333333333332)"/><use xlink:href="#k" transform="matrix(1,0,0,1,85,415) translate(87.22222222222223 21.333333333333332)"/><use xlink:href="#l" transform="matrix(1,0,0,1,85,415) translate(22.18518518518519 53.33333333333333)"/><use xlink:href="#m" transform="matrix(1,0,0,1,85,415) translate(89.44444444444444 53.33333333333333)"/><path d="M80 490c0-3.3 2.7-6 6-6h148c3.3 0 6 2.7 6 6v24c0 3.3-2.7 6-6 6H86c-3.3 0-6-2.7-6-6z" stroke="#282c33" stroke-width="2" fill="#fff"/><use xlink:href="#n" transform="matrix(1,0,0,1,85,489) translate(28.777777777777786 21.333333333333332)"/><use xlink:href="#o" transform="matrix(1,0,0,1,85,489) translate(107.88888888888889 21.333333333333332)"/><path d="M80 526c0-3.3 2.7-6 6-6h148c3.3 0 6 2.7 6 6v48c0 3.3-2.7 6-6 6H86c-3.3 0-6-2.7-6-6z" stroke="#282c33" stroke-width="2" fill="#fff"/><use xlink:href="#p" transform="matrix(1,0,0,1,85,525) translate(55 30.895833333333332)"/><path d="M80 580c0-3.3 2.7-6 6-6h148c3.3 0 6 2.7 6 6v24c0 3.3-2.7 6-6 6H86c-3.3 0-6-2.7-6-6z" stroke="#282c33" stroke-width="2" fill="#fff"/><use xlink:href="#n" transform="matrix(1,0,0,1,85.00000000000011,578.9999999999999) translate(25.856851851851854 21.333333333333332)"/><use xlink:href="#q" transform="matrix(1,0,0,1,85.00000000000011,578.9999999999999) translate(104.96796296296296 21.333333333333332)"/><path d="M231.4 426c0-3.3 2.7-6 6-6h228c3.32 0 6 2.7 6 6v48c0 3.3-2.68 6-6 6h-228c-3.3 0-6-2.7-6-6z" stroke="#000" stroke-opacity="0" fill="#fff" fill-opacity="0"/><use xlink:href="#r" transform="matrix(1,0,0,1,236.40349021466727,425) translate(53.108024691358025 28.930555555555557)"/><use xlink:href="#s" transform="matrix(1,0,0,1,236.40349021466727,425) translate(101.25 28.930555555555557)"/><use xlink:href="#t" transform="matrix(1,0,0,1,236.40349021466727,425) translate(129.36111111111111 28.930555555555557)"/><path d="M564.8 340.5h418v310h-418z" stroke="#3a414a" stroke-width="2" fill="#f2f3f5"/><path d="M580 410h160v74H580z" stroke="#3a414a" stroke-width="2" fill="#fff"/><path d="M580 360h160v50H580z" stroke="#3a414a" stroke-width="2" fill="#edf5ff"/><path d="M748.96 414.5c-2.2-2.5-1.3-4.5 2-4.5h200.87c3.32 0 4.22 2 2.02 4.5l-98.47 111c-2.2 2.5-5.76 2.5-7.96 0z" stroke="#3a414a" stroke-width="2" fill="#fff"/><path d="M744.97 360h212.86v50H744.97z" stroke="#3a414a" stroke-width="2" fill="#e3fae3"/><path d="M540 370.8c0-3.33 2.7-6 6-6h228c3.3 0 6 2.67 6 6v28.4c0 3.33-2.7 6-6 6H546c-3.3 0-6-2.67-6-6z" stroke="#000" stroke-opacity="0" fill="#fff" fill-opacity="0"/><use xlink:href="#e" transform="matrix(1,0,0,1,545,369.7865750699056) translate(48.97530864197533 24.888888888888886)"/><use xlink:href="#f" transform="matrix(1,0,0,1,545,369.7865750699056) translate(122.25925925925925 24.888888888888886)"/><path d="M720 370.8c0-3.33 2.7-6 6-6h250.8c3.32 0 6 2.67 6 6v28.4c0 3.33-2.68 6-6 6H726c-3.3 0-6-2.67-6-6z" stroke="#000" stroke-opacity="0" fill="#fff" fill-opacity="0"/><use xlink:href="#g" transform="matrix(1,0,0,1,725,369.7865750699056) translate(44.01234567901237 24.888888888888886)"/><use xlink:href="#h" transform="matrix(1,0,0,1,725,369.7865750699056) translate(136.48148148148147 24.888888888888886)"/><path d="M738.5 571c0-3.3 2.7-6 6-6h228c3.3 0 6 2.7 6 6v48c0 3.3-2.7 6-6 6h-228c-3.3 0-6-2.7-6-6z" stroke="#000" stroke-opacity="0" fill="#fff" fill-opacity="0"/><use xlink:href="#i" transform="matrix(1,0,0,1,743.5,570) translate(35.04938271604941 31.569444444444436)"/><path d="M580 416c0-3.3 2.7-6 6-6h148c3.3 0 6 2.7 6 6v62c0 3.3-2.7 6-6 6H586c-3.3 0-6-2.7-6-6z" stroke="#282c33" stroke-width="2" fill="#fff"/><use xlink:href="#j" transform="matrix(1,0,0,1,585,415) translate(24.407407407407412 21.333333333333332)"/><use xlink:href="#k" transform="matrix(1,0,0,1,585,415) translate(87.22222222222223 21.333333333333332)"/><use xlink:href="#l" transform="matrix(1,0,0,1,585,415) translate(22.18518518518519 53.33333333333333)"/><use xlink:href="#m" transform="matrix(1,0,0,1,585,415) translate(89.44444444444444 53.33333333333333)"/><path d="M731.4 426c0-3.3 2.7-6 6-6h228c3.32 0 6 2.7 6 6v48c0 3.3-2.68 6-6 6h-228c-3.3 0-6-2.7-6-6z" stroke="#000" stroke-opacity="0" fill="#fff" fill-opacity="0"/><use xlink:href="#r" transform="matrix(1,0,0,1,736.4034902146673,425) translate(53.108024691358025 28.930555555555557)"/><use xlink:href="#s" transform="matrix(1,0,0,1,736.4034902146673,425) translate(101.25 28.930555555555557)"/><use xlink:href="#t" transform="matrix(1,0,0,1,736.4034902146673,425) translate(129.36111111111111 28.930555555555557)"/><g fill="none"><path d="M564.54 656.37c.1-.27.38-.4.64-.3l334.2 118.87c.27.1.4.38.3.64-.08.26-.36.4-.62.3L564.86 657c-.27-.1-.4-.37-.32-.63z"/><path d="M576.58 660.1l7.6 2.72m7.6 2.7l7.58 2.7m7.6 2.7l7.6 2.7m7.6 2.7l7.6 2.7m7.58 2.7l7.6 2.7m7.6 2.7l7.6 2.72m7.58 2.7l7.6 2.7m7.6 2.7l7.6 2.7m7.6 2.7l7.58 2.7m7.6 2.7l7.6 2.7m7.6 2.7l7.58 2.7m7.6 2.72l7.6 2.7m7.6 2.7l7.6 2.7m7.58 2.7l7.6 2.7m7.6 2.7l7.6 2.7m7.6 2.7l7.58 2.7m7.6 2.7l7.6 2.72m7.6 2.7l7.58 2.7m7.6 2.7l7.6 2.7m7.6 2.7l7.6 2.7m7.58 2.7l7.6 2.7m7.6 2.7l3.8 1.36.27.26.02.38-.26.3h-.38l-3.8-1.34m-7.6-2.7l-7.6-2.7m-7.6-2.7l-7.6-2.7m-7.58-2.7l-7.6-2.72m-7.6-2.7l-7.6-2.7m-7.58-2.7l-7.6-2.7m-7.6-2.7l-7.6-2.7m-7.6-2.7l-7.58-2.7m-7.6-2.7l-7.6-2.7m-7.6-2.72l-7.58-2.7m-7.6-2.7l-7.6-2.7m-7.6-2.7l-7.6-2.7m-7.58-2.7l-7.6-2.7m-7.6-2.7l-7.6-2.7m-7.58-2.72l-7.6-2.7m-7.6-2.7l-7.6-2.7m-7.6-2.7l-7.58-2.7m-7.6-2.7l-7.6-2.7m-7.6-2.7l-7.58-2.7m-7.6-2.7l-7.6-2.72m-7.6-2.7l-7.6-2.7m-7.58-2.7l-7.6-2.7m-7.6-2.7l-3.8-1.36-.28-.25-.02-.38.26-.3h.38l3.8 1.34" stroke="#3a414a"/></g><g fill="none"><path d="M982.5 647.86c.26-.1.55 0 .66.26L1039.64 779c.1.24 0 .54-.26.64-.25.1-.54 0-.65-.26l-56.5-130.87c-.1-.24.02-.53.28-.64z"/><path d="M987.87 659.02l3.14 7.27m3.14 7.26l3.14 7.28m3.14 7.27l3.14 7.28m3.14 7.27l3.13 7.27m3.14 7.27l3.14 7.26m3.15 7.27l3.14 7.27m3.12 7.27l3.14 7.27m3.14 7.27l3.14 7.28m3.14 7.27l1.56 3.64v.37l-.26.27h-.38l-.27-.26-1.57-3.63m-3.14-7.27l-3.14-7.27m-3.14-7.26l-3.13-7.27m-3.13-7.27l-3.14-7.27m-3.14-7.28l-3.15-7.27m-3.13-7.27l-3.14-7.26m-3.14-7.27l-3.14-7.27m-3.14-7.27l-3.13-7.27m-3.14-7.27l-3.15-7.28m-3.14-7.27l-1.56-3.64v-.37l.27-.27h.4l.26.26 1.57 3.63" stroke="#3a414a"/></g><path d="M1060 340.5h418v310h-418z" stroke="#3a414a" stroke-width="2" fill="#fcfcca"/><path d="M1080.5 410h160v74h-160z" stroke="#3a414a" stroke-width="2" fill="#fff"/><path d="M1080.5 360h160v50h-160z" stroke="#3a414a" stroke-width="2" fill="#edf5ff"/><path d="M1040.5 370.8c0-3.33 2.7-6 6-6h228c3.3 0 6 2.67 6 6v28.4c0 3.33-2.7 6-6 6h-228c-3.3 0-6-2.67-6-6z" stroke="#000" stroke-opacity="0" fill="#fff" fill-opacity="0"/><use xlink:href="#e" transform="matrix(1,0,0,1,1045.5,369.7865750699056) translate(48.97530864197533 24.888888888888886)"/><use xlink:href="#f" transform="matrix(1,0,0,1,1045.5,369.7865750699056) translate(122.25925925925925 24.888888888888886)"/><path d="M1040.5 568c0-3.3 2.7-6 6-6h228c3.3 0 6 2.7 6 6v48c0 3.3-2.7 6-6 6h-228c-3.3 0-6-2.7-6-6z" stroke="#000" stroke-opacity="0" fill="#fff" fill-opacity="0"/><use xlink:href="#u" transform="matrix(1,0,0,1,1045.5,566.9999999999999) translate(53.81481481481483 31.569444444444436)"/><path d="M1080.5 416c0-3.3 2.7-6 6-6h148c3.3 0 6 2.7 6 6v62c0 3.3-2.7 6-6 6h-148c-3.3 0-6-2.7-6-6z" stroke="#282c33" stroke-width="2" fill="#fff"/><use xlink:href="#j" transform="matrix(1,0,0,1,1085.5,415) translate(24.407407407407412 21.333333333333332)"/><use xlink:href="#k" transform="matrix(1,0,0,1,1085.5,415) translate(87.22222222222223 21.333333333333332)"/><use xlink:href="#l" transform="matrix(1,0,0,1,1085.5,415) translate(22.18518518518519 53.33333333333333)"/><use xlink:href="#m" transform="matrix(1,0,0,1,1085.5,415) translate(89.44444444444444 53.33333333333333)"/><g fill="none"><path d="M1065.3 645.62c.27.06.44.32.4.6l-28.22 139.7c-.05.28-.32.46-.6.4-.26-.05-.43-.3-.38-.58l28.2-139.72c.06-.28.32-.45.6-.4z"/><path d="M1063.34 657.86l-1.57 7.76m-1.57 7.76l-1.56 7.76m-1.57 7.77l-1.57 7.77m-1.57 7.76l-1.56 7.76m-1.57 7.75l-1.57 7.77m-1.56 7.76l-1.57 7.76m-1.57 7.76l-1.56 7.77m-1.57 7.76l-1.57 7.76m-1.56 7.75l-.8 3.88-.2.32-.38.07-.32-.2-.08-.38.8-3.9m1.55-7.75l1.57-7.77m1.57-7.76l1.55-7.76m1.57-7.76l1.57-7.76m1.55-7.76l1.57-7.76m1.57-7.77l1.55-7.77m1.57-7.76l1.57-7.76m1.55-7.75l1.57-7.77m1.57-7.76l1.56-7.76m1.56-7.76l.8-3.88.2-.32.37-.08.3.22.1.37-.8 3.9" stroke="#3a414a"/></g><g fill="none"><path d="M1478.14 651.62c.1.25 0 .54-.26.66l-300.7 134.54c-.24.1-.54 0-.65-.26-.1-.25 0-.54.25-.66l300.7-134.54c.25-.1.54 0 .66.26z"/><path d="M1467.14 657.08l-7.16 3.2m-7.15 3.2l-7.16 3.2m-7.16 3.22l-7.15 3.2m-7.16 3.2l-7.17 3.2m-7.16 3.2l-7.16 3.2m-7.15 3.22l-7.16 3.2m-7.17 3.2l-7.16 3.2m-7.16 3.2l-7.15 3.2m-7.16 3.22l-7.17 3.2m-7.15 3.2l-7.16 3.2m-7.16 3.2l-7.16 3.2m-7.16 3.22l-7.16 3.2m-7.16 3.2l-7.16 3.2m-7.16 3.2l-7.16 3.2m-7.16 3.22l-7.16 3.2m-7.16 3.2l-7.16 3.2m-7.16 3.2l-7.15 3.2m-7.17 3.22l-7.16 3.2m-7.16 3.2l-7.15 3.2m-7.16 3.2l-7.17 3.2m-7.16 3.22l-3.58 1.6h-.4l-.27-.26v-.38l.25-.28 3.58-1.6m7.16-3.2l7.16-3.2m7.16-3.2l7.16-3.2m7.16-3.2l7.16-3.22m7.16-3.2l7.16-3.2m7.16-3.2l7.15-3.2m7.16-3.2l7.17-3.22m7.16-3.2l7.16-3.2m7.15-3.2l7.16-3.2m7.17-3.2l7.16-3.22m7.16-3.2l7.15-3.2m7.16-3.2l7.17-3.2m7.16-3.2l7.16-3.22m7.15-3.2l7.15-3.2m7.16-3.2l7.16-3.2m7.16-3.2l7.16-3.22m7.16-3.2l7.16-3.2m7.16-3.2l7.16-3.2m7.16-3.2l7.16-3.22m7.16-3.2l7.16-3.2m7.16-3.2l7.16-3.2m7.15-3.2l3.57-1.62h.4l.27.26v.38l-.26.28-3.58 1.6" stroke="#3a414a"/></g><path d="M1453.92 399.8c2.8 1.77 2.4 3.2-.92 3.2h-188c-3.3 0-3.73-1.43-.92-3.2l89.84-56.6c2.8-1.77 7.35-1.77 10.16 0z" stroke="#282c33" stroke-width="2" fill="#00c2a8"/><path d="M1261.15 403h195.7v150h-195.7z" stroke="#282c33" stroke-width="2" fill="#fff"/><path d="M1238 366c0-3.3 2.7-6 6-6h228c3.3 0 6 2.7 6 6v28.43c0 3.3-2.7 6-6 6h-228c-3.3 0-6-2.7-6-6z" stroke="#000" stroke-opacity="0" fill="#fff" fill-opacity="0"/><g><use xlink:href="#v" transform="matrix(1,0,0,1,1243,365) translate(82.80864197530865 24.888888888888886)"/></g><path d="M1239 409c0-3.3 2.7-6 6-6h228c3.3 0 6 2.7 6 6v28.43c0 3.3-2.7 6-6 6h-228c-3.3 0-6-2.7-6-6z" stroke="#000" stroke-opacity="0" fill="#fff" fill-opacity="0"/><g><use xlink:href="#w" transform="matrix(1,0,0,1,1244,408) translate(31.629629629629676 23.27083333333333)"/><use xlink:href="#x" transform="matrix(1,0,0,1,1244,408) translate(88.51851851851853 23.27083333333333)"/><use xlink:href="#y" transform="matrix(1,0,0,1,1244,408) translate(119.18518518518519 23.27083333333333)"/></g><path d="M1239 442.57c0-3.3 2.7-6 6-6h228c3.3 0 6 2.7 6 6V471c0 3.3-2.7 6-6 6h-228c-3.3 0-6-2.7-6-6z" stroke="#000" stroke-opacity="0" fill="#fff" fill-opacity="0"/><g><use xlink:href="#z" transform="matrix(1,0,0,1,1244,441.5731501398112) translate(31.629629629629676 23.27083333333333)"/><use xlink:href="#x" transform="matrix(1,0,0,1,1244,441.5731501398112) translate(88.51851851851853 23.27083333333333)"/><use xlink:href="#A" transform="matrix(1,0,0,1,1244,441.5731501398112) translate(119.18518518518519 23.27083333333333)"/></g><path d="M1239 519c0-3.3 2.7-6 6-6h228c3.3 0 6 2.7 6 6v28.43c0 3.3-2.7 6-6 6h-228c-3.3 0-6-2.7-6-6z" stroke="#000" stroke-opacity="0" fill="#fff" fill-opacity="0"/><g><use xlink:href="#B" transform="matrix(1,0,0,1,1244,518) translate(25.77777777777783 23.27083333333333)"/><use xlink:href="#x" transform="matrix(1,0,0,1,1244,518) translate(88.51851851851853 23.27083333333333)"/><use xlink:href="#C" transform="matrix(1,0,0,1,1244,518) translate(119.18518518518519 23.27083333333333)"/></g><path d="M1239 474.3c0-3.33 2.7-6 6-6h228c3.3 0 6 2.67 6 6v28.4c0 3.33-2.7 6-6 6h-228c-3.3 0-6-2.67-6-6z" stroke="#000" stroke-opacity="0" fill="#fff" fill-opacity="0"/><g><use xlink:href="#D" transform="matrix(1,0,0,1,1244,473.28657506990555) translate(95.00000000000001 23.27083333333333)"/></g><path d="M1620 411.2c0-3.3 2.7-6 6-6h132c3.3 0 6 2.7 6 6v96c-24.05-17.02-39.02-17.02-48.1-17.02-14.4 0-33.55 17.03-47.95 17.03-8.93 0-24.05 0-47.95-17.02z" stroke="#282c33" stroke-width="2" fill="#fff"/><path d="M1628 420.2c0-3.3 2.7-6 6-6h132c3.3 0 6 2.7 6 6v96c-24.05-17.02-39.02-17.02-48.1-17.02-14.4 0-33.55 17.03-47.95 17.03-8.93 0-24.05 0-47.95-17.02z" stroke="#282c33" stroke-width="2" fill="#fff"/><path d="M1636 429.2c0-3.3 2.7-6 6-6h132c3.3 0 6 2.7 6 6v96c-24.05-17.02-39.02-17.02-48.1-17.02-14.4 0-33.55 17.03-47.95 17.03-8.93 0-24.05 0-47.95-17.02z" stroke="#282c33" stroke-width="2" fill="#fff"/><g><use xlink:href="#E" transform="matrix(1,0,0,1,1641,428.2134249300944) translate(21.87654320987656 43.638888888888886)"/></g><path d="M1700 403.2V296c0-3.3-2.7-6-6-6h-330c-3.3 0-6 2.7-6 6v45.5" stroke="#282c33" stroke-width="2" fill="none"/><path d="M1701 404.2h-2v-1h2z" stroke="#282c33" stroke-width=".05" fill="#282c33"/><path d="M1358 356.76l-4.64-14.26h9.28z" stroke="#282c33" stroke-width="2" fill="#282c33"/><path d="M1160.5 346.28v-49.6c0-3.33 2.7-6 6-6H1357" stroke="#282c33" stroke-width="2" fill="none"/><path d="M1160.5 361.55l-4.64-14.27h9.28z" stroke="#282c33" stroke-width="2" fill="#282c33"/><path d="M1356.97 290.67h1.03" stroke="#282c33" stroke-width="2" fill="none"/><defs><path fill="#3a414a" d="M185-72C185 13 82 14 19-9v-63h16c2 37 21 58 61 58 46 0 69-51 31-71-42-23-106-23-106-90 0-69 87-70 148-56v56h-16l-7-32c-26-25-110-13-82 35 39 34 121 26 121 100" id="F"/><path fill="#3a414a" d="M12-83c0-55 22-85 75-86 52-1 66 33 63 88H64c-1 37 6 64 44 63 14 0 28-4 39-6 3 28-28 25-55 27-57 4-80-31-80-86zm90-17c2-26 0-63-27-48-10 9-11 28-11 48h38" id="G"/><path fill="#3a414a" d="M9 41c2-18 18-26 32-33C29 1 16-9 16-28l29-33c-21-9-31-25-31-51-2-56 61-65 111-53l39-20c13 12-9 24-14 36 35 54-17 114-90 92-17 34 27 28 56 28 36-1 61 12 60 46-2 46-39 62-91 62-38 0-71-6-76-38zm35-3c6 35 97 29 94-9-2-28-50-14-78-17-8 7-15 14-16 26zm20-150c0 22 4 40 23 40 20 0 24-17 24-40 0-24-4-40-24-40-19 0-23 17-23 40" id="H"/><path fill="#3a414a" d="M126-114c3-31-27-37-49-25v123l15 4V0H10v-12l16-4v-133l-16-5v-11h64l2 14c24-16 81-33 96 3 30-24 105-39 105 27v105l17 4V0h-82v-12l14-4v-98c4-33-27-37-51-24 5 35 0 82 2 122l17 4V0h-83v-12l15-4v-98" id="I"/><path fill="#3a414a" d="M127-114c3-31-26-38-50-25v123l15 4V0H10v-12l16-4v-133l-16-5v-11h64l2 14c31-23 102-32 102 30v105l17 4V0h-82v-12l14-4v-98" id="J"/><path fill="#3a414a" d="M78-41c-2 24 21 26 40 20C122 3 98 2 77 4 5 10 32-84 27-147H6v-11l25-7 21-38h26v38h35v18H78v106" id="K"/><g id="a"><use transform="matrix(0.08641975308641973,0,0,0.08641975308641973,0,0)" xlink:href="#F"/><use transform="matrix(0.08641975308641973,0,0,0.08641975308641973,17.283950617283946,0)" xlink:href="#G"/><use transform="matrix(0.08641975308641973,0,0,0.08641975308641973,31.024691358024686,0)" xlink:href="#H"/><use transform="matrix(0.08641975308641973,0,0,0.08641975308641973,46.58024691358024,0)" xlink:href="#I"/><use transform="matrix(0.08641975308641973,0,0,0.08641975308641973,72.41975308641973,0)" xlink:href="#G"/><use transform="matrix(0.08641975308641973,0,0,0.08641975308641973,86.16049382716047,0)" xlink:href="#J"/><use transform="matrix(0.08641975308641973,0,0,0.08641975308641973,103.44444444444443,0)" xlink:href="#K"/></g><path fill="#3a414a" d="M98-18l30 5V0H12v-13l30-5v-200l-30-5v-13h116v13l-30 5v200" id="L"/><path fill="#3a414a" d="M15-82c-4-69 47-101 113-83l-1-69-17-4v-12h68v234l18 4V0h-63l-4-9C77 23 5-9 15-82zm112-66c-43-16-64 17-61 65 2 33 3 67 32 67 12 0 22-3 29-8v-124" id="M"/><path fill="#3a414a" d="M5-154v-11h89v11l-19 5 24 37 32-37-16-5v-11h56v11l-15 4-46 54 52 81 16 4V0H90v-11l18-4-29-45-38 45 17 4V0H1v-11l15-3 53-62-48-73" id="N"/><g id="b"><use transform="matrix(0.08641975308641973,0,0,0.08641975308641973,0,0)" xlink:href="#L"/><use transform="matrix(0.08641975308641973,0,0,0.08641975308641973,12.098765432098762,0)" xlink:href="#J"/><use transform="matrix(0.08641975308641973,0,0,0.08641975308641973,29.382716049382708,0)" xlink:href="#M"/><use transform="matrix(0.08641975308641973,0,0,0.08641975308641973,46.66666666666666,0)" xlink:href="#G"/><use transform="matrix(0.08641975308641973,0,0,0.08641975308641973,60.4074074074074,0)" xlink:href="#N"/></g><path fill="#3a414a" d="M92-134c39 3 62-4 62-44 0-37-25-40-62-38v82zm0 115c49 5 80-2 80-50 0-44-34-49-80-46v96zm138-50C230 26 101-4 6 0v-13l30-5v-200l-30-5v-13c79 7 206-26 206 54 0 33-22 49-49 56 39 3 67 18 67 57" id="O"/><path fill="#3a414a" d="M76-16l18 4V0H7v-12l18-4v-218l-17-4v-12h68v234" id="P"/><path fill="#3a414a" d="M90-170c54-1 76 32 76 87 1 56-23 87-77 87-53 0-75-32-75-87s23-86 76-87zM89-14c28-2 26-38 26-69s3-69-26-69c-27 0-24 39-24 69s-3 66 24 69" id="Q"/><path fill="#3a414a" d="M109-18c15 0 31-2 42-6v14c-11 9-31 13-51 13-59 0-86-28-88-86-3-75 66-101 135-80v48h-13c-3-20-7-40-34-37-51 7-55 138 9 134" id="R"/><path fill="#3a414a" d="M77-79l64-71-17-4v-11h63v11c-32 3-40 30-59 46l57 92 15 4V0h-80c-2-11 3-15 10-16L97-74 77-60v44l16 4V0H10v-12l16-4v-218l-17-4v-12h68v171" id="S"/><g id="c"><use transform="matrix(0.08641975308641973,0,0,0.08641975308641973,0,0)" xlink:href="#O"/><use transform="matrix(0.08641975308641973,0,0,0.08641975308641973,20.740740740740737,0)" xlink:href="#P"/><use transform="matrix(0.08641975308641973,0,0,0.08641975308641973,29.382716049382708,0)" xlink:href="#Q"/><use transform="matrix(0.08641975308641973,0,0,0.08641975308641973,44.938271604938265,0)" xlink:href="#R"/><use transform="matrix(0.08641975308641973,0,0,0.08641975308641973,58.679012345679,0)" xlink:href="#S"/></g><linearGradient gradientUnits="userSpaceOnUse" id="d" x1="1040.5" y1="840" x2="1040.5" y2="940"><stop offset="50.81%" stop-color="#fff"/><stop offset="53.54%" stop-color="#dfe3e8"/><stop offset="53.63%" stop-color="#b6bfca"/></linearGradient><path fill="#3a414a" d="M63-18c35 0 73 0 101-6l18-45h16L181 0H-1l4-20 145-197-85 3-12 38H35l10-60h166l-4 19" id="T"/><path fill="#3a414a" d="M75-14c36-8 43-53 45-96 1-23-4-40-22-42-35 9-46 53-46 96 0 21 6 40 23 42zm93-86C168-39 132 4 71 4 29 4 6-22 6-66c0-62 36-104 96-104 43 0 66 27 66 70" id="U"/><path fill="#3a414a" d="M144-170c70 0 21 104 18 154l21 4-3 12h-68l22-127c-7-34-45-7-53 8C63-87 64-39 54 0H7l26-149-15-5 2-11h59l-2 31c16-20 34-36 67-36" id="V"/><path fill="#3a414a" d="M8-58c3-72 59-136 130-101 9 5 14 13 14 25 0 48-53 54-95 64-3 26 4 52 31 52 20 0 33-9 45-17l8 11C108 13 5 18 8-58zm101-78c-5-28-28-9-35 5-6 12-12 25-14 42 27-4 47-18 49-47" id="W"/><g id="e"><use transform="matrix(0.08641975308641973,0,0,0.08641975308641973,0,0)" xlink:href="#T"/><use transform="matrix(0.08641975308641973,0,0,0.08641975308641973,18.92592592592592,0)" xlink:href="#U"/><use transform="matrix(0.08641975308641973,0,0,0.08641975308641973,34.481481481481474,0)" xlink:href="#V"/><use transform="matrix(0.08641975308641973,0,0,0.08641975308641973,51.76543209876541,0)" xlink:href="#W"/></g><path fill="#3a414a" d="M130 0h-8L83-204 50-18l31 5-2 13H-5l2-13 31-5 36-200-30-5 3-13h86l29 154 84-154h94l-2 13-31 5-36 200 30 5-2 13H173l2-13 35-5 32-186" id="X"/><path fill="#3a414a" d="M4-56c-1-80 62-132 143-106 7-3 13-7 24-6L145-16l19 6-2 10h-61v-24C89-11 75 4 51 4 17 4 5-22 4-56zm116-90c-48-23-67 38-70 84-2 36 29 52 46 24 2-3 5-6 7-9" id="Y"/><path fill="#3a414a" d="M124-170c31 0 45 25 45 59C170-40 123 20 52-2l-9 63 28 4-2 12h-95l2-12 19-4 37-211-17-5 2-10h61l-1 24c11-15 25-29 47-29zM57-22c45 27 66-36 66-81 0-26-13-53-34-33-5 4-10 9-15 16" id="Z"/><g id="f"><use transform="matrix(0.08641975308641973,0,0,0.08641975308641973,0,0)" xlink:href="#X"/><use transform="matrix(0.08641975308641973,0,0,0.08641975308641973,27.654320987654316,0)" xlink:href="#Y"/><use transform="matrix(0.08641975308641973,0,0,0.08641975308641973,43.209876543209866,0)" xlink:href="#Z"/></g><path fill="#3a414a" d="M175-182c0-29-25-37-58-34l-15 82c43 3 73-9 73-48zm-3 111c0-40-32-46-73-44L82-19c49 4 90-1 90-52zm53 0C225 23 93-3-3 0l2-13 31-5 35-200-29-5 2-13c75 5 189-21 189 52 0 37-25 53-59 58 33 3 57 21 57 55" id="aa"/><path fill="#3a414a" d="M58-16l21 4-2 12H8l41-234-16-4 2-12h64" id="ab"/><path fill="#3a414a" d="M169-135c20-49 103-47 90 26l-17 93 21 4-2 12h-68l21-127c1-27-25-14-34-3-24 31-22 86-33 130h-47l21-127c2-24-26-18-33-5C63-102 65-44 54 0H7l26-149-16-5 3-11h57v29c15-32 90-55 92 1" id="ac"/><g id="g"><use transform="matrix(0.08641975308641973,0,0,0.08641975308641973,0,0)" xlink:href="#aa"/><use transform="matrix(0.08641975308641973,0,0,0.08641975308641973,20.740740740740737,0)" xlink:href="#ab"/><use transform="matrix(0.08641975308641973,0,0,0.08641975308641973,29.382716049382708,0)" xlink:href="#U"/><use transform="matrix(0.08641975308641973,0,0,0.08641975308641973,44.938271604938265,0)" xlink:href="#U"/><use transform="matrix(0.08641975308641973,0,0,0.08641975308641973,60.4938271604938,0)" xlink:href="#ac"/></g><path fill="#3a414a" d="M98-104L82-18l39 5-2 13H0l2-13 29-5 35-200-29-5 2-13h195l-11 64h-17l2-42-90-2-17 93h64l11-30h15l-14 79h-15v-30H98" id="ad"/><path fill="#3a414a" d="M59-16l21 4-2 12H9l27-149-16-5 1-11h65zm39-207c0 38-54 32-54 0 0-16 10-27 28-27 17 0 26 11 26 27" id="ae"/><path fill="#3a414a" d="M62-57c-4 16-6 39 13 38 8 0 13-3 20-4l4 12C72 11 3 12 13-44l18-103H11l2-11 25-7 24-38h26l-7 38h28l-3 18H78" id="af"/><path fill="#3a414a" d="M77-130c13-23 31-45 66-38l-10 59h-10l-8-24c-22 1-32 14-42 28L55 0H7l27-149-21-5 2-11h66" id="ag"/><g id="h"><use transform="matrix(0.08641975308641973,0,0,0.08641975308641973,0,0)" xlink:href="#ad"/><use transform="matrix(0.08641975308641973,0,0,0.08641975308641973,20.740740740740737,0)" xlink:href="#ae"/><use transform="matrix(0.08641975308641973,0,0,0.08641975308641973,29.382716049382708,0)" xlink:href="#ab"/><use transform="matrix(0.08641975308641973,0,0,0.08641975308641973,38.02469135802468,0)" xlink:href="#af"/><use transform="matrix(0.08641975308641973,0,0,0.08641975308641973,46.66666666666666,0)" xlink:href="#W"/><use transform="matrix(0.08641975308641973,0,0,0.08641975308641973,60.4074074074074,0)" xlink:href="#ag"/></g><path fill="#e81313" d="M82-18l29 5-2 13H-4l3-13 31-5 35-200-29-5 2-13h112l-2 13-31 5" id="ah"/><path fill="#e81313" d="M169-135c20-49 103-47 90 26l-17 93 21 4-2 12h-68l21-127c1-27-25-14-34-3-24 31-22 86-33 130h-47l21-127c2-24-26-18-33-5C63-102 65-44 54 0H7l26-149-16-5 3-11h57v29c15-32 90-55 92 1" id="ai"/><path fill="#e81313" d="M118-31C102 5 2 26 14-39l20-110-21-5 2-11h68L62-38c7 34 44 5 53-9 18-31 17-79 27-118h46L162-16l20 4-3 12h-62" id="aj"/><path fill="#e81313" d="M62-57c-4 16-6 39 13 38 8 0 13-3 20-4l4 12C72 11 3 12 13-44l18-103H11l2-11 25-7 24-38h26l-7 38h28l-3 18H78" id="ak"/><path fill="#e81313" d="M4-56c-1-80 62-132 143-106 7-3 13-7 24-6L145-16l19 6-2 10h-61v-24C89-11 75 4 51 4 17 4 5-22 4-56zm116-90c-48-23-67 38-70 84-2 36 29 52 46 24 2-3 5-6 7-9" id="al"/><path fill="#e81313" d="M54-22c43 30 69-33 69-81 0-34-25-52-44-25-18 25-15 72-25 106zm115-89C172-18 95 27 5-8l40-226-17-4 2-12h65L74-140c11-15 26-30 49-30 33 0 45 24 46 59" id="am"/><path fill="#e81313" d="M58-16l21 4-2 12H8l41-234-16-4 2-12h64" id="an"/><path fill="#e81313" d="M8-58c3-72 59-136 130-101 9 5 14 13 14 25 0 48-53 54-95 64-3 26 4 52 31 52 20 0 33-9 45-17l8 11C108 13 5 18 8-58zm101-78c-5-28-28-9-35 5-6 12-12 25-14 42 27-4 47-18 49-47" id="ao"/><g id="i"><use transform="matrix(0.0987654320987654,0,0,0.0987654320987654,0,0)" xlink:href="#ah"/><use transform="matrix(0.0987654320987654,0,0,0.0987654320987654,13.827160493827156,0)" xlink:href="#ai"/><use transform="matrix(0.0987654320987654,0,0,0.0987654320987654,41.48148148148147,0)" xlink:href="#ai"/><use transform="matrix(0.0987654320987654,0,0,0.0987654320987654,69.13580246913578,0)" xlink:href="#aj"/><use transform="matrix(0.0987654320987654,0,0,0.0987654320987654,88.88888888888886,0)" xlink:href="#ak"/><use transform="matrix(0.0987654320987654,0,0,0.0987654320987654,98.7654320987654,0)" xlink:href="#al"/><use transform="matrix(0.0987654320987654,0,0,0.0987654320987654,116.54320987654317,0)" xlink:href="#am"/><use transform="matrix(0.0987654320987654,0,0,0.0987654320987654,134.32098765432096,0)" xlink:href="#an"/><use transform="matrix(0.0987654320987654,0,0,0.0987654320987654,144.1975308641975,0)" xlink:href="#ao"/></g><path fill="#3a414a" d="M155 0h-10L58-199v181l32 5V0H6v-13l30-5v-200l-30-5v-13h93l67 155 69-155h94v13l-30 5v200l30 5V0H212v-13l32-5v-181" id="ap"/><path fill="#3a414a" d="M77-16l18 4V0H8v-12l18-4v-133l-17-5v-11h68v149zM51-196c-16 0-27-10-27-27s10-27 27-27 27 11 27 27c0 17-10 27-27 27" id="aq"/><path fill="#3a414a" d="M88-24C86-8 77 5 59 5S30-7 30-24s11-29 29-29 27 13 29 29zM59-169c40 0 34 59 0 59-17 0-29-12-29-30 1-17 11-29 29-29" id="ar"/><g id="j"><use transform="matrix(0.07407407407407407,0,0,0.07407407407407407,0,0)" xlink:href="#ap"/><use transform="matrix(0.07407407407407407,0,0,0.07407407407407407,25.11111111111111,0)" xlink:href="#aq"/><use transform="matrix(0.07407407407407407,0,0,0.07407407407407407,32.51851851851852,0)" xlink:href="#J"/><use transform="matrix(0.07407407407407407,0,0,0.07407407407407407,47.33333333333333,0)" xlink:href="#ar"/></g><path fill="#3a414a" d="M58-18l29 5V0H7v-13l26-5 75-96-67-104-27-5v-13h115v13l-30 5 41 63 51-63-30-5v-13h81v13l-26 5-64 81 77 119 27 5V0H141v-13l30-5-51-78" id="as"/><g id="k"><use transform="matrix(0.07407407407407407,0,0,0.07407407407407407,0,0)" xlink:href="#as"/><use transform="matrix(0.07407407407407407,0,0,0.07407407407407407,19.185185185185183,0)" xlink:href="#as"/></g><path fill="#3a414a" d="M31-163c51-5 127-20 127 40v107l17 4V0h-61l-4-13C82 13 12 12 12-46c0-51 46-52 95-53 9-45-22-69-57-44l-7 20H31v-40zM62-47c0 30 26 34 45 23v-59c-28 0-45 6-45 36" id="at"/><g id="l"><use transform="matrix(0.07407407407407407,0,0,0.07407407407407407,0,0)" xlink:href="#ap"/><use transform="matrix(0.07407407407407407,0,0,0.07407407407407407,25.11111111111111,0)" xlink:href="#at"/><use transform="matrix(0.07407407407407407,0,0,0.07407407407407407,38.44444444444444,0)" xlink:href="#N"/><use transform="matrix(0.07407407407407407,0,0,0.07407407407407407,51.77777777777777,0)" xlink:href="#ar"/></g><path fill="#3a414a" d="M160-93v75l38 5V0H67v-13l38-5v-74L33-218l-27-5v-13h122v13l-32 5 54 98 52-98-29-5v-13h80v13l-25 5" id="au"/><g id="m"><use transform="matrix(0.07407407407407407,0,0,0.07407407407407407,0,0)" xlink:href="#au"/><use transform="matrix(0.07407407407407407,0,0,0.07407407407407407,19.185185185185183,0)" xlink:href="#au"/></g><path fill="#3a414a" d="M222-170c0 37-18 56-47 65l63 87 25 5V0h-76l-66-100H92v82l30 5V0H8v-13l28-5v-200l-30-5v-13c89 5 214-24 216 66zM92-119c45 2 75-3 75-50s-30-49-75-47v97" id="av"/><g id="n"><use transform="matrix(0.07407407407407407,0,0,0.07407407407407407,0,0)" xlink:href="#av"/><use transform="matrix(0.07407407407407407,0,0,0.07407407407407407,19.185185185185183,0)" xlink:href="#at"/><use transform="matrix(0.07407407407407407,0,0,0.07407407407407407,32.51851851851852,0)" xlink:href="#J"/><use transform="matrix(0.07407407407407407,0,0,0.07407407407407407,47.33333333333333,0)" xlink:href="#H"/><use transform="matrix(0.07407407407407407,0,0,0.07407407407407407,60.66666666666666,0)" xlink:href="#G"/></g><path fill="#3a414a" d="M120-19l41 4V0H29v-15l41-4v-178l-41 13v-15l66-39h25v219" id="aw"/><use transform="matrix(0.07407407407407407,0,0,0.07407407407407407,0,0)" xlink:href="#aw" id="o"/><path fill="#3a414a" d="M74-24C74-7 62 5 45 5S16-7 16-24s12-29 29-29 29 12 29 29" id="ax"/><g id="p"><use transform="matrix(0.07407407407407407,0,0,0.07407407407407407,0,0)" xlink:href="#ax"/><use transform="matrix(0.07407407407407407,0,0,0.07407407407407407,6.666666666666666,0)" xlink:href="#ax"/><use transform="matrix(0.07407407407407407,0,0,0.07407407407407407,13.333333333333332,0)" xlink:href="#ax"/><use transform="matrix(0.07407407407407407,0,0,0.07407407407407407,20,0)" xlink:href="#ax"/><use transform="matrix(0.07407407407407407,0,0,0.07407407407407407,26.666666666666664,0)" xlink:href="#ax"/><use transform="matrix(0.07407407407407407,0,0,0.07407407407407407,33.33333333333333,0)" xlink:href="#ax"/></g><path fill="#3a414a" d="M203-218l-32-5v-13h84v13l-30 5V0h-21L59-189v171l32 5V0H7v-13l30-5v-200l-30-5v-13h81L203-85v-133" id="ay"/><use transform="matrix(0.07407407407407407,0,0,0.07407407407407407,0,0)" xlink:href="#ay" id="q"/><path fill="#3a414a" d="M258-236v13l-29 5-77 68L255-18l22 5V0h-77l-88-114-20 18v78l34 5V0H6v-13l30-5v-200l-30-5v-13h116v13l-30 5v96l107-96-21-5v-13h80" id="az"/><path fill="#3a414a" d="M81 5L15-149c-7-2-13-5-11-16h84v11l-20 5 39 91 35-91-19-5v-11h53c2 11-4 13-11 15C134-81 111-5 75 58 65 77 34 83 8 74V32h11c0 24 29 35 43 12 7-11 13-25 19-39" id="aA"/><g id="r"><use transform="matrix(0.06790123456790123,0,0,0.06790123456790123,0,0)" xlink:href="#az"/><use transform="matrix(0.06790123456790123,0,0,0.06790123456790123,19.012345679012345,0)" xlink:href="#G"/><use transform="matrix(0.06790123456790123,0,0,0.06790123456790123,29.80864197530864,0)" xlink:href="#aA"/></g><path fill="#3a414a" d="M13-69v-31h94v31H13" id="aB"/><path fill="#3a414a" d="M18-29v-25l135-66-135-65v-25l168 83v15" id="aC"/><g id="s"><use transform="matrix(0.06790123456790123,0,0,0.06790123456790123,0,0)" xlink:href="#aB"/><use transform="matrix(0.06790123456790123,0,0,0.06790123456790123,8.080246913580247,0)" xlink:href="#aC"/></g><g id="t"><use transform="matrix(0.06790123456790123,0,0,0.06790123456790123,0,0)" xlink:href="#O"/><use transform="matrix(0.06790123456790123,0,0,0.06790123456790123,16.296296296296294,0)" xlink:href="#Q"/><use transform="matrix(0.06790123456790123,0,0,0.06790123456790123,28.518518518518515,0)" xlink:href="#Q"/><use transform="matrix(0.06790123456790123,0,0,0.06790123456790123,40.74074074074073,0)" xlink:href="#P"/></g><path fill="#00c2a8" d="M130 0h-8L83-204 50-18l31 5-2 13H-5l2-13 31-5 36-200-30-5 3-13h86l29 154 84-154h94l-2 13-31 5-36 200 30 5-2 13H173l2-13 35-5 32-186" id="aD"/><path fill="#00c2a8" d="M118-31C102 5 2 26 14-39l20-110-21-5 2-11h68L62-38c7 34 44 5 53-9 18-31 17-79 27-118h46L162-16l20 4-3 12h-62" id="aE"/><path fill="#00c2a8" d="M62-57c-4 16-6 39 13 38 8 0 13-3 20-4l4 12C72 11 3 12 13-44l18-103H11l2-11 25-7 24-38h26l-7 38h28l-3 18H78" id="aF"/><path fill="#00c2a8" d="M4-56c-1-80 62-132 143-106 7-3 13-7 24-6L145-16l19 6-2 10h-61v-24C89-11 75 4 51 4 17 4 5-22 4-56zm116-90c-48-23-67 38-70 84-2 36 29 52 46 24 2-3 5-6 7-9" id="aG"/><path fill="#00c2a8" d="M54-22c43 30 69-33 69-81 0-34-25-52-44-25-18 25-15 72-25 106zm115-89C172-18 95 27 5-8l40-226-17-4 2-12h65L74-140c11-15 26-30 49-30 33 0 45 24 46 59" id="aH"/><path fill="#00c2a8" d="M58-16l21 4-2 12H8l41-234-16-4 2-12h64" id="aI"/><path fill="#00c2a8" d="M8-58c3-72 59-136 130-101 9 5 14 13 14 25 0 48-53 54-95 64-3 26 4 52 31 52 20 0 33-9 45-17l8 11C108 13 5 18 8-58zm101-78c-5-28-28-9-35 5-6 12-12 25-14 42 27-4 47-18 49-47" id="aJ"/><g id="u"><use transform="matrix(0.0987654320987654,0,0,0.0987654320987654,0,0)" xlink:href="#aD"/><use transform="matrix(0.0987654320987654,0,0,0.0987654320987654,31.60493827160493,0)" xlink:href="#aE"/><use transform="matrix(0.0987654320987654,0,0,0.0987654320987654,51.358024691358004,0)" xlink:href="#aF"/><use transform="matrix(0.0987654320987654,0,0,0.0987654320987654,61.23456790123455,0)" xlink:href="#aG"/><use transform="matrix(0.0987654320987654,0,0,0.0987654320987654,79.01234567901233,0)" xlink:href="#aH"/><use transform="matrix(0.0987654320987654,0,0,0.0987654320987654,96.7901234567901,0)" xlink:href="#aI"/><use transform="matrix(0.0987654320987654,0,0,0.0987654320987654,106.66666666666666,0)" xlink:href="#aJ"/></g><path fill="#3a414a" d="M75-13V0H4v-13l17-5 84-220h51l83 220 18 5V0H152v-13l28-5-23-61H67L45-18zm38-189L74-98h76" id="aK"/><path fill="#3a414a" d="M54 0v-13l38-5v-199l-66 3-4 44H6v-66h229v66h-17l-4-44c-17-2-44-3-67-3v199l38 5V0H54" id="aL"/><g id="v"><use transform="matrix(0.08641975308641973,0,0,0.08641975308641973,0,0)" xlink:href="#aK"/><use transform="matrix(0.08641975308641973,0,0,0.08641975308641973,22.38271604938271,0)" xlink:href="#av"/><use transform="matrix(0.08641975308641973,0,0,0.08641975308641973,43.64197530864197,0)" xlink:href="#aL"/></g><path fill="#3a414a" d="M68-89l62-61-15-4 2-11h60l-2 11c-29 5-39 30-59 44l39 94 14 4-1 12h-56L83-80 64-67 52 0H5l41-234-16-4 2-12h64" id="aM"/><path fill="#3a414a" d="M116-165c22 0 56-7 42 26C128-75 87-21 52 37 36 63 6 88-36 74l7-42h11c-5 29 27 32 42 11 9-13 20-28 29-42L15-149l-11-5 2-11h54L86-53c14-28 38-48 43-84 2-12-7-14-15-17" id="aN"/><path fill="#3a414a" d="M102-19l42 4-3 15H8l3-15 43-4 31-177-44 12 3-15 73-39h23" id="aO"/><g id="w"><use transform="matrix(0.07407407407407404,0,0,0.07407407407407404,0,0)" xlink:href="#aM"/><use transform="matrix(0.07407407407407404,0,0,0.07407407407407404,13.333333333333327,0)" xlink:href="#W"/><use transform="matrix(0.07407407407407404,0,0,0.07407407407407404,25.1111111111111,0)" xlink:href="#aN"/><use transform="matrix(0.07407407407407404,0,0,0.07407407407407404,36.88888888888887,0)" xlink:href="#aO"/></g><path fill="#3a414a" d="M8-69l5-31h94l-6 31H8" id="aP"/><path fill="#3a414a" d="M27-29v-25l135-66-135-65v-25l167 83v15" id="aQ"/><g id="x"><use transform="matrix(0.07407407407407404,0,0,0.07407407407407404,0,0)" xlink:href="#aP"/><use transform="matrix(0.07407407407407404,0,0,0.07407407407407404,8.814814814814811,0)" xlink:href="#aQ"/></g><path fill="#3a414a" d="M115-15c62 0 82-68 82-133 0-40-13-70-51-72-60 9-80 70-80 135 0 39 12 70 49 70zm135-128C250-54 203 4 112 4 52 4 13-31 13-92c0-89 47-146 137-146 61 0 100 34 100 95" id="aR"/><path fill="#3a414a" d="M39-147H11l2-12 29-7c4-61 39-99 108-84l-7 39h-11c4-19-15-32-27-15-10 14-11 41-16 61h37l-3 18H86L47 77H0" id="aS"/><path fill="#3a414a" d="M108-141c-17-26-77-2-45 26 22 19 57 24 59 63C125 7 47 13-2-6l8-46h12c-1 24 9 40 34 39 18-1 30-9 31-27-10-38-66-30-66-80 0-55 66-55 112-44l-8 42h-11" id="aT"/><g id="y"><use transform="matrix(0.07407407407407404,0,0,0.07407407407407404,0,0)" xlink:href="#aR"/><use transform="matrix(0.07407407407407404,0,0,0.07407407407407404,19.185185185185176,0)" xlink:href="#aS"/><use transform="matrix(0.07407407407407404,0,0,0.07407407407407404,27.481481481481467,0)" xlink:href="#aS"/><use transform="matrix(0.07407407407407404,0,0,0.07407407407407404,36.296296296296276,0)" xlink:href="#aT"/><use transform="matrix(0.07407407407407404,0,0,0.07407407407407404,46.66666666666665,0)" xlink:href="#W"/><use transform="matrix(0.07407407407407404,0,0,0.07407407407407404,58.44444444444441,0)" xlink:href="#af"/><use transform="matrix(0.07407407407407404,0,0,0.07407407407407404,65.85185185185182,0)" xlink:href="#aO"/></g><path fill="#3a414a" d="M172-188c0 86-82 110-138 152h118l-7 36H-4l5-33c49-43 111-74 122-151 5-36-37-45-60-27l-13 34H35l9-54c50-12 128-14 128 43" id="aU"/><g id="z"><use transform="matrix(0.07407407407407404,0,0,0.07407407407407404,0,0)" xlink:href="#aM"/><use transform="matrix(0.07407407407407404,0,0,0.07407407407407404,13.333333333333327,0)" xlink:href="#W"/><use transform="matrix(0.07407407407407404,0,0,0.07407407407407404,25.1111111111111,0)" xlink:href="#aN"/><use transform="matrix(0.07407407407407404,0,0,0.07407407407407404,36.88888888888887,0)" xlink:href="#aU"/></g><g id="A"><use transform="matrix(0.07407407407407404,0,0,0.07407407407407404,0,0)" xlink:href="#aR"/><use transform="matrix(0.07407407407407404,0,0,0.07407407407407404,19.185185185185176,0)" xlink:href="#aS"/><use transform="matrix(0.07407407407407404,0,0,0.07407407407407404,27.481481481481467,0)" xlink:href="#aS"/><use transform="matrix(0.07407407407407404,0,0,0.07407407407407404,36.296296296296276,0)" xlink:href="#aT"/><use transform="matrix(0.07407407407407404,0,0,0.07407407407407404,46.66666666666665,0)" xlink:href="#W"/><use transform="matrix(0.07407407407407404,0,0,0.07407407407407404,58.44444444444441,0)" xlink:href="#af"/><use transform="matrix(0.07407407407407404,0,0,0.07407407407407404,65.85185185185182,0)" xlink:href="#aU"/></g><path fill="#3a414a" d="M215-218l-30-5 2-13h84l-3 13-31 5L199 0h-20L84-195 52-18l31 5-2 13H-3l2-13 31-5 35-200-29-5 2-13h76l77 157" id="aV"/><g id="B"><use transform="matrix(0.07407407407407404,0,0,0.07407407407407404,0,0)" xlink:href="#aM"/><use transform="matrix(0.07407407407407404,0,0,0.07407407407407404,13.333333333333327,0)" xlink:href="#W"/><use transform="matrix(0.07407407407407404,0,0,0.07407407407407404,25.1111111111111,0)" xlink:href="#aN"/><use transform="matrix(0.07407407407407404,0,0,0.07407407407407404,36.88888888888887,0)" xlink:href="#aV"/></g><g id="C"><use transform="matrix(0.07407407407407404,0,0,0.07407407407407404,0,0)" xlink:href="#aR"/><use transform="matrix(0.07407407407407404,0,0,0.07407407407407404,19.185185185185176,0)" xlink:href="#aS"/><use transform="matrix(0.07407407407407404,0,0,0.07407407407407404,27.481481481481467,0)" xlink:href="#aS"/><use transform="matrix(0.07407407407407404,0,0,0.07407407407407404,36.296296296296276,0)" xlink:href="#aT"/><use transform="matrix(0.07407407407407404,0,0,0.07407407407407404,46.66666666666665,0)" xlink:href="#W"/><use transform="matrix(0.07407407407407404,0,0,0.07407407407407404,58.44444444444441,0)" xlink:href="#af"/><use transform="matrix(0.07407407407407404,0,0,0.07407407407407404,65.85185185185182,0)" xlink:href="#aV"/></g><path fill="#3a414a" d="M61-24C61-7 49 4 32 5 14 5 3-7 3-24s11-29 29-29c17 1 29 12 29 29" id="aW"/><g id="D"><use transform="matrix(0.07407407407407404,0,0,0.07407407407407404,0,0)" xlink:href="#aW"/><use transform="matrix(0.07407407407407404,0,0,0.07407407407407404,6.666666666666663,0)" xlink:href="#aW"/><use transform="matrix(0.07407407407407404,0,0,0.07407407407407404,13.333333333333327,0)" xlink:href="#aW"/><use transform="matrix(0.07407407407407404,0,0,0.07407407407407404,19.999999999999993,0)" xlink:href="#aW"/><use transform="matrix(0.07407407407407404,0,0,0.07407407407407404,26.666666666666654,0)" xlink:href="#aW"/><use transform="matrix(0.07407407407407404,0,0,0.07407407407407404,33.333333333333314,0)" xlink:href="#aW"/></g><path fill="#3a414a" d="M102-142c-14-17-68-15-54 18 24 26 83 17 83 72 0 62-72 62-120 47v-45h12c4 23 16 37 43 37 35 0 39-37 9-46-31-9-65-19-64-61 0-52 59-55 108-45v43h-11" id="aX"/><path fill="#3a414a" d="M132-132c-21 0-37 9-50 16v100l26 4V0H10v-12l21-4v-133l-21-5v-11h69l2 34c17-18 35-41 71-40v61c-17 3-14-14-20-22" id="aY"/><g id="E"><use transform="matrix(0.08641975308641973,0,0,0.08641975308641973,0,0)" xlink:href="#L"/><use transform="matrix(0.08641975308641973,0,0,0.08641975308641973,12.098765432098762,0)" xlink:href="#J"/><use transform="matrix(0.08641975308641973,0,0,0.08641975308641973,29.382716049382708,0)" xlink:href="#aX"/><use transform="matrix(0.08641975308641973,0,0,0.08641975308641973,41.48148148148147,0)" xlink:href="#G"/><use transform="matrix(0.08641975308641973,0,0,0.08641975308641973,55.2222222222222,0)" xlink:href="#aY"/><use transform="matrix(0.08641975308641973,0,0,0.08641975308641973,68.96296296296293,0)" xlink:href="#K"/></g></defs></g></svg>