<svg xmlns="http://www.w3.org/2000/svg" xmlns:xlink="http://www.w3.org/1999/xlink" xmlns:lucid="lucid" width="1112.27" height="760"><g transform="translate(-80 -220)" lucid:page-tab-id="0_0"><path d="M0 0h1870.87v1322.83H0z" fill="#fff"/><path d="M100 286c0-3.3 2.7-6 6-6h148c3.3 0 6 2.7 6 6v48c0 3.3-2.7 6-6 6H106c-3.3 0-6-2.7-6-6z" stroke="#3a414a" stroke-width="2" fill="#54c45e"/><use xlink:href="#a" transform="matrix(1,0,0,1,105,285) translate(0.08950617283953477 29.361111111111104)"/><use xlink:href="#b" transform="matrix(1,0,0,1,105,285) translate(89.00308641975307 29.361111111111104)"/><path d="M100 386c0-3.3 2.7-6 6-6h148c3.3 0 6 2.7 6 6v48c0 3.3-2.7 6-6 6H106c-3.3 0-6-2.7-6-6z" stroke="#3a414a" stroke-width="2" fill="#00c2a8"/><use xlink:href="#c" transform="matrix(1,0,0,1,105.00000000000003,385) translate(7.311728395061749 29.361111111111104)"/><use xlink:href="#d" transform="matrix(1,0,0,1,105.00000000000003,385) translate(93.01543209876542 29.361111111111104)"/><path d="M384.56 476.1c-2.52 2.15-4.56 1.2-4.56-2.1V246c0-3.3 2.04-4.25 4.56-2.1l130.88 112.2c2.52 2.15 2.52 5.65 0 7.8z" stroke="#3a414a" stroke-width="3" fill="#fff0f0"/><path d="M320 305c0-3.3 2.7-6 6-6h228c3.3 0 6 2.7 6 6v110c0 3.3-2.7 6-6 6H326c-3.3 0-6-2.7-6-6z" stroke="#000" stroke-opacity="0" fill="#fff" fill-opacity="0"/><use xlink:href="#e" transform="matrix(1,0,0,1,325,304) translate(75.00000000000003 35.27777777777777)"/><use xlink:href="#f" transform="matrix(1,0,0,1,325,304) translate(95.89506172839508 61.944444444444414)"/><use xlink:href="#g" transform="matrix(1,0,0,1,325,304) translate(87.87037037037038 88.61111111111107)"/><path d="M262 310h98" stroke="#3a414a" stroke-width="2" fill="none"/><path d="M262.03 311H261v-2h1.03z" stroke="#3a414a" stroke-width=".05" fill="#3a414a"/><path d="M375.26 310L361 314.64v-9.28z" stroke="#3a414a" stroke-width="2" fill="#3a414a"/><path d="M262 410h98" stroke="#3a414a" stroke-width="2" fill="none"/><path d="M262.03 411H261v-2h1.03z" stroke="#3a414a" stroke-width=".05" fill="#3a414a"/><path d="M375.26 410L361 414.64v-9.28z" stroke="#3a414a" stroke-width="2" fill="#3a414a"/><path d="M580 666c0-3.3 2.7-6 6-6h408c3.3 0 6 2.7 6 6v68c0 3.3-2.7 6-6 6H586c-3.3 0-6-2.7-6-6z" stroke="#3a414a" stroke-width="2" fill="#ced4db"/><use xlink:href="#h" transform="matrix(1,0,0,1,585,665) translate(148.13580246913583 42.638888888888886)"/><path d="M580 586c0-3.3 2.7-6 6-6h408c3.3 0 6 2.7 6 6v68c0 3.3-2.7 6-6 6H586c-3.3 0-6-2.7-6-6z" stroke="#3a414a" stroke-width="2" fill="#ced4db"/><use xlink:href="#h" transform="matrix(1,0,0,1,585,585) translate(148.13580246913583 42.638888888888886)"/><path d="M580 506c0-3.3 2.7-6 6-6h408c3.3 0 6 2.7 6 6v68c0 3.3-2.7 6-6 6H586c-3.3 0-6-2.7-6-6z" stroke="#3a414a" stroke-width="2" fill="#ced4db"/><use xlink:href="#h" transform="matrix(1,0,0,1,585,505) translate(148.13580246913583 42.638888888888886)"/><path d="M580 426c0-3.3 2.7-6 6-6h128c3.3 0 6 2.7 6 6v68c0 3.3-2.7 6-6 6H586c-3.3 0-6-2.7-6-6z" stroke="#3a414a" stroke-width="2" fill="#ced4db"/><use xlink:href="#i" transform="matrix(1,0,0,1,585,425) translate(27.518518518518526 42.638888888888886)"/><path d="M766.76 426c0-3.3 2.68-6 6-6h128c3.3 0 6 2.7 6 6v68c0 3.3-2.7 6-6 6h-128c-3.32 0-6-2.7-6-6z" stroke="#3a414a" stroke-width="2" fill="url(#j)"/><use xlink:href="#i" transform="matrix(1,0,0,1,771.756106936599,425) translate(27.518518518518526 42.638888888888886)"/><path d="M953.5 426c0-3.3 2.7-6 6-6h128c3.33 0 6 2.7 6 6v68c0 3.3-2.67 6-6 6h-128c-3.3 0-6-2.7-6-6z" fill="#fff"/><path d="M971.5 420h8m8 0h8m8 0h8m8 0h8m8 0h8m8 0h8m8 0h8m8 0h4l3.04.82 2.15 2.15.8 3.03v4.25m0 8.5v8.5m0 8.5v8.5m0 8.5v8.5m0 8.5V494l-.8 3.03-2.16 2.15-3.03.82h-4m-8 0h-8m-8 0h-8m-8 0h-8m-8 0h-8m-8 0h-8m-8 0h-8m-8 0h-8m-8 0h-4l-3.02-.82-2.15-2.15-.82-3.03v-4.25m0-8.5v-8.5m0-8.5v-8.5m0-8.5v-8.5m0-8.5V426l.83-3.03 2.15-2.15 3.03-.82h4" stroke="#3a414a" stroke-width="2" fill="none"/><path d="M720 426c0-3.3 2.7-6 6-6h34.76c3.3 0 6 2.7 6 6v68c0 3.3-2.7 6-6 6H726c-3.3 0-6-2.7-6-6zM906.76 426c0-3.3 2.68-6 6-6h34.75c3.33 0 6 2.7 6 6v68c0 3.3-2.67 6-6 6h-34.74c-3.32 0-6-2.7-6-6z" stroke="#3a414a" stroke-width="2" fill="#edf5ff"/><path d="M1093.5 426c0-3.3 2.7-6 6-6h34.77c3.3 0 6 2.7 6 6v68c0 3.3-2.7 6-6 6h-34.76c-3.3 0-6-2.7-6-6z" fill="#fff"/><path d="M1112.55 420h8.68m8.7 0h4.34l3.03.82 2.15 2.15.82 3.03v4.25m0 8.5v8.5m0 8.5v8.5m0 8.5v8.5m0 8.5V494l-.82 3.03-2.15 2.15-3.03.82h-4.35m-8.7 0h-8.67m-8.7 0h-4.34l-3.02-.82-2.15-2.15-.82-3.03v-4.25m0-8.5v-8.5m0-8.5v-8.5m0-8.5v-8.5m0-8.5V426l.83-3.03 2.15-2.15 3.03-.82h4.36" stroke="#3a414a" stroke-width="2" fill="none"/><path d="M1000 506c0-3.3 2.7-6 6-6h128.27c3.3 0 6 2.7 6 6v68c0 3.3-2.7 6-6 6H1006c-3.3 0-6-2.7-6-6z" stroke="#3a414a" stroke-width="2" fill="#edf5ff"/><use xlink:href="#k" transform="matrix(1,0,0,1,1005,505) translate(27.518518518518526 42.638888888888886)"/><path d="M1000 586c0-3.3 2.7-6 6-6h128.27c3.3 0 6 2.7 6 6v68c0 3.3-2.7 6-6 6H1006c-3.3 0-6-2.7-6-6z" stroke="#3a414a" stroke-width="2" fill="#edf5ff"/><use xlink:href="#k" transform="matrix(1,0,0,1,1005.0000000000001,585) translate(27.518518518518526 42.638888888888886)"/><path d="M1000 666c0-3.3 2.7-6 6-6h128.27c3.3 0 6 2.7 6 6v68c0 3.3-2.7 6-6 6H1006c-3.3 0-6-2.7-6-6z" stroke="#3a414a" stroke-width="2" fill="#edf5ff"/><use xlink:href="#k" transform="matrix(1,0,0,1,1005.0000000000002,665) translate(27.518518518518526 42.638888888888886)"/><path d="M1159.77 540h15.5c3.3 0 6-2.7 6-6V366c0-3.3-2.7-6-6-6H519.84" stroke="#3a414a" stroke-width="2" fill="none"/><path d="M1144.5 540l14.27-4.64v9.28z" stroke="#3a414a" stroke-width="2" fill="#3a414a"/><path d="M519.87 361h-1.22l.22-.86-.24-1.14h1.24z" stroke="#3a414a" stroke-width=".05" fill="#3a414a"/><path d="M1159.77 620h15.5c3.3 0 6-2.7 6-6v-95.16" stroke="#3a414a" stroke-width="2" fill="none"/><path d="M1144.5 620l14.27-4.64v9.28z" stroke="#3a414a" stroke-width="2" fill="#3a414a"/><path d="M1181.27 518.87v-1.03M1159.77 700h15.5c3.3 0 6-2.7 6-6v-80.4" stroke="#3a414a" stroke-width="2" fill="none"/><path d="M1144.5 700l14.27-4.64v9.28z" stroke="#3a414a" stroke-width="2" fill="#3a414a"/><path d="M1181.27 613.64v-1.03" stroke="#3a414a" stroke-width="2" fill="none"/><path d="M460 426c0-3.3 2.7-6 6-6h68c3.3 0 6 2.7 6 6v308c0 3.3-2.7 6-6 6h-68c-3.3 0-6-2.7-6-6z" fill="none"/><path d="M540 740c-5.52 0-10-4.48-10-10V590c0-5.52-4.48-10-10-10 5.52 0 10-4.48 10-10V430c0-5.52 4.48-10 10-10" stroke="#3a414a" stroke-width="3" fill="none"/><path d="M500 600h-64v20l-36-40 36-40v20h64z" stroke="#3a414a" fill="#54c45e"/><g fill="none"><path d="M586 860c-3.3 0-6-2.7-6-6v-68c0-3.3 2.7-6 6-6h548.27c3.3 0 6 2.7 6 6v68c0 3.3-2.7 6-6 6z"/><path d="M1140.27 780c0 5.52-4.48 10-10 10H870.13c-5.52 0-10 4.48-10 10 0-5.52-4.47-10-10-10H590c-5.52 0-10-4.48-10-10" stroke="#3a414a" stroke-width="3"/></g><path d="M879 820c.55 0 1 .45 1 1v42c0 .55.45 1 1 1h18c.55 0 .67.3.26.67l-38.52 34.66c-.4.37-1.07.37-1.48 0l-38.52-34.66c-.4-.37-.3-.67.26-.67h18c.55 0 1-.45 1-1v-42c0-.55.45-1 1-1z" stroke="#3a414a" fill="#00c2a8"/><path d="M740.13 906c0-3.3 2.7-6 6-6h228c3.32 0 6 2.7 6 6v48c0 3.3-2.68 6-6 6h-228c-3.3 0-6-2.7-6-6z" stroke="#000" stroke-opacity="0" fill="#fff" fill-opacity="0"/><use xlink:href="#l" transform="matrix(1,0,0,1,745.1341604048987,905) translate(51.74074074074075 30.708333333333332)"/><use xlink:href="#m" transform="matrix(1,0,0,1,745.1341604048987,905) translate(104.25925925925927 30.708333333333332)"/><path d="M160 556c0-3.3 2.7-6 6-6h228c3.3 0 6 2.7 6 6v48c0 3.3-2.7 6-6 6H166c-3.3 0-6-2.7-6-6z" stroke="#000" stroke-opacity="0" fill="#fff" fill-opacity="0"/><use xlink:href="#l" transform="matrix(1,0,0,1,165,555) translate(35.8888888888889 30.708333333333332)"/><use xlink:href="#n" transform="matrix(1,0,0,1,165,555) translate(88.40740740740742 30.708333333333332)"/><use xlink:href="#o" transform="matrix(1,0,0,1,165,555) translate(136.4074074074074 30.708333333333332)"/><path d="M1142.27 540h33c3.3 0 6-2.7 6-6v-68c0-3.3-2.7-6-6-6h-15.5" stroke="#3a414a" stroke-width="2" fill="none"/><path d="M1142.3 541h-1.03v-2h1.02z" stroke="#3a414a" stroke-width=".05" fill="#3a414a"/><path d="M1144.5 460l14.27-4.64v9.28z" stroke="#3a414a" stroke-width="2" fill="#3a414a"/><path d="M973 460h4.2m8.36 0h8.36m8.36 0h8.37m8.36 0h8.37m8.36 0h8.37m8.36 0h8.36m8.37 0h8.35m8.36 0h8.37m8.37 0h8.36m8.36 0h8.36m8.37 0h4.17" stroke="#3a414a" stroke-width="2" fill="none"/><path d="M957.75 460l14.26-4.64v9.28z" stroke="#3a414a" stroke-width="2" fill="#3a414a"/><path d="M1140.24 460h1.03M743.38 400.5v-3.88m0-7.75V385l.82-3.03 2.15-2.15 3.03-.82h4.08m8.15 0h8.16m8.16 0h8.15m8.16 0h8.15m8.15 0h8.16m8.14 0H835m8.15 0h8.15m8.16 0h8.15m8.17 0h8.15m8.15 0h8.16m8.15 0h8.16m8.15 0h8.14m8.16 0h8.15m8.16 0h8.16m8.15 0h8.17m8.15 0H994l3.03.82 2.15 2.15.82 3.03v4.3m0 8.64v8.62m0 8.63v8.6m0 8.64v8.62m0 8.63v4.3l-.82 3.03-2.15 2.15-3.03.82h-4.8m-9.63 0h-9.62m-9.63 0h-4.8" stroke="#3a414a" stroke-width="2" fill="none"/><path d="M743.38 415.76l-4.64-14.26H748z" stroke="#3a414a" stroke-width="2" fill="#3a414a"/><path d="M955.54 461h-1.03v-2h1.04z" stroke="#3a414a" stroke-width=".05" fill="#3a414a"/><defs><path fill="#3a414a" d="M92-20c74 11 92-29 92-98 0-66-23-103-92-98v196zm150-99C242 9 136 6 6 0v-13l31-5v-200l-31-5v-13h112c81 0 124 34 124 117" id="p"/><path fill="#3a414a" d="M12-83c0-55 22-85 75-86 52-1 66 33 63 88H64c-1 37 6 64 44 63 14 0 28-4 39-6 3 28-28 25-55 27-57 4-80-31-80-86zm90-17c2-26 0-63-27-48-10 9-11 28-11 48h38" id="q"/><path fill="#3a414a" d="M15-82c-4-69 47-101 113-83l-1-69-17-4v-12h68v234l18 4V0h-63l-4-9C77 23 5-9 15-82zm112-66c-43-16-64 17-61 65 2 33 3 67 32 67 12 0 22-3 29-8v-124" id="r"/><path fill="#3a414a" d="M73-51c-3 31 27 38 51 25v-123l-16-5v-11h66v149l17 4V0h-65l-2-14C94 9 22 18 22-44v-105l-17-5v-11h68v114" id="s"/><path fill="#3a414a" d="M186-86c2 69-46 103-114 85l1 62 25 4v12H5V65l18-4v-210l-18-5v-11h67v8c12-8 26-13 46-13 49 2 67 30 68 84zm-83 71c28 0 31-33 31-69 0-34-2-66-30-66-12 0-23 3-31 7v124c9 2 20 4 30 4" id="t"/><g id="a"><use transform="matrix(0.08024691358024688,0,0,0.08024691358024688,0,0)" xlink:href="#p"/><use transform="matrix(0.08024691358024688,0,0,0.08024691358024688,20.783950617283942,0)" xlink:href="#q"/><use transform="matrix(0.08024691358024688,0,0,0.08024691358024688,33.543209876543195,0)" xlink:href="#r"/><use transform="matrix(0.08024691358024688,0,0,0.08024691358024688,49.59259259259257,0)" xlink:href="#s"/><use transform="matrix(0.08024691358024688,0,0,0.08024691358024688,65.64197530864195,0)" xlink:href="#t"/></g><path fill="#3a414a" d="M258-236v13l-29 5-77 68L255-18l22 5V0h-77l-88-114-20 18v78l34 5V0H6v-13l30-5v-200l-30-5v-13h116v13l-30 5v96l107-96-21-5v-13h80" id="u"/><path fill="#3a414a" d="M81 5L15-149c-7-2-13-5-11-16h84v11l-20 5 39 91 35-91-19-5v-11h53c2 11-4 13-11 15C134-81 111-5 75 58 65 77 34 83 8 74V32h11c0 24 29 35 43 12 7-11 13-25 19-39" id="v"/><path fill="#3a414a" d="M102-142c-14-17-68-15-54 18 24 26 83 17 83 72 0 62-72 62-120 47v-45h12c4 23 16 37 43 37 35 0 39-37 9-46-31-9-65-19-64-61 0-52 59-55 108-45v43h-11" id="w"/><g id="b"><use transform="matrix(0.08024691358024688,0,0,0.08024691358024688,0,0)" xlink:href="#u"/><use transform="matrix(0.08024691358024688,0,0,0.08024691358024688,22.469135802469125,0)" xlink:href="#q"/><use transform="matrix(0.08024691358024688,0,0,0.08024691358024688,35.22839506172838,0)" xlink:href="#v"/><use transform="matrix(0.08024691358024688,0,0,0.08024691358024688,49.67283950617282,0)" xlink:href="#w"/></g><path fill="#3a414a" d="M138 4C60 2 18-37 18-118s41-120 122-120c80 0 122 39 122 120 0 59-22 97-65 112 17 20 30 48 67 42v15c-34 14-83 3-102-19zm2-225c-55 0-64 47-64 103S8-14 140-14c56 0 64-48 64-104s-9-103-64-103" id="x"/><path fill="#3a414a" d="M132-132c-21 0-37 9-50 16v100l26 4V0H10v-12l21-4v-133l-21-5v-11h69l2 34c17-18 35-41 71-40v61c-17 3-14-14-20-22" id="y"/><g id="c"><use transform="matrix(0.08024691358024688,0,0,0.08024691358024688,0,0)" xlink:href="#x"/><use transform="matrix(0.08024691358024688,0,0,0.08024691358024688,22.469135802469125,0)" xlink:href="#s"/><use transform="matrix(0.08024691358024688,0,0,0.08024691358024688,38.518518518518505,0)" xlink:href="#q"/><use transform="matrix(0.08024691358024688,0,0,0.08024691358024688,51.27777777777776,0)" xlink:href="#y"/><use transform="matrix(0.08024691358024688,0,0,0.08024691358024688,64.03703703703701,0)" xlink:href="#v"/></g><g id="d"><use transform="matrix(0.08024691358024688,0,0,0.08024691358024688,0,0)" xlink:href="#u"/><use transform="matrix(0.08024691358024688,0,0,0.08024691358024688,22.469135802469125,0)" xlink:href="#q"/><use transform="matrix(0.08024691358024688,0,0,0.08024691358024688,35.22839506172838,0)" xlink:href="#v"/></g><path fill="#3a414a" d="M92-112c43 4 61-13 61-54s-18-54-61-50v104zm118-54c0 63-50 78-118 74v74l39 5V0H8v-13l28-5v-200l-30-5v-13c88 3 205-20 204 70" id="z"/><path fill="#3a414a" d="M77-16l18 4V0H8v-12l18-4v-133l-17-5v-11h68v149zM51-196c-16 0-27-10-27-27s10-27 27-27 27 11 27 27c0 17-10 27-27 27" id="A"/><path fill="#3a414a" d="M126-114c3-31-27-37-49-25v123l15 4V0H10v-12l16-4v-133l-16-5v-11h64l2 14c24-16 81-33 96 3 30-24 105-39 105 27v105l17 4V0h-82v-12l14-4v-98c4-33-27-37-51-24 5 35 0 82 2 122l17 4V0h-83v-12l15-4v-98" id="B"/><path fill="#3a414a" d="M31-163c51-5 127-20 127 40v107l17 4V0h-61l-4-13C82 13 12 12 12-46c0-51 46-52 95-53 9-45-22-69-57-44l-7 20H31v-40zM62-47c0 30 26 34 45 23v-59c-28 0-45 6-45 36" id="C"/><g id="e"><use transform="matrix(0.06172839506172835,0,0,0.06172839506172835,0,0)" xlink:href="#z"/><use transform="matrix(0.06172839506172835,0,0,0.06172839506172835,13.518518518518508,0)" xlink:href="#y"/><use transform="matrix(0.06172839506172835,0,0,0.06172839506172835,23.333333333333314,0)" xlink:href="#A"/><use transform="matrix(0.06172839506172835,0,0,0.06172839506172835,29.50617283950615,0)" xlink:href="#B"/><use transform="matrix(0.06172839506172835,0,0,0.06172839506172835,47.962962962962926,0)" xlink:href="#C"/><use transform="matrix(0.06172839506172835,0,0,0.06172839506172835,59.07407407407403,0)" xlink:href="#y"/><use transform="matrix(0.06172839506172835,0,0,0.06172839506172835,68.88888888888884,0)" xlink:href="#v"/></g><g id="f"><use transform="matrix(0.06172839506172835,0,0,0.06172839506172835,0,0)" xlink:href="#u"/><use transform="matrix(0.06172839506172835,0,0,0.06172839506172835,17.28395061728394,0)" xlink:href="#q"/><use transform="matrix(0.06172839506172835,0,0,0.06172839506172835,27.098765432098745,0)" xlink:href="#v"/></g><path fill="#3a414a" d="M98-18l30 5V0H12v-13l30-5v-200l-30-5v-13h116v13l-30 5v200" id="D"/><path fill="#3a414a" d="M127-114c3-31-26-38-50-25v123l15 4V0H10v-12l16-4v-133l-16-5v-11h64l2 14c31-23 102-32 102 30v105l17 4V0h-82v-12l14-4v-98" id="E"/><path fill="#3a414a" d="M5-154v-11h89v11l-19 5 24 37 32-37-16-5v-11h56v11l-15 4-46 54 52 81 16 4V0H90v-11l18-4-29-45-38 45 17 4V0H1v-11l15-3 53-62-48-73" id="F"/><g id="g"><use transform="matrix(0.06172839506172835,0,0,0.06172839506172835,0,0)" xlink:href="#D"/><use transform="matrix(0.06172839506172835,0,0,0.06172839506172835,8.64197530864197,0)" xlink:href="#E"/><use transform="matrix(0.06172839506172835,0,0,0.06172839506172835,20.987654320987637,0)" xlink:href="#r"/><use transform="matrix(0.06172839506172835,0,0,0.06172839506172835,33.33333333333331,0)" xlink:href="#q"/><use transform="matrix(0.06172839506172835,0,0,0.06172839506172835,43.14814814814812,0)" xlink:href="#F"/></g><path fill="#3a414a" d="M185-72C185 13 82 14 19-9v-63h16c2 37 21 58 61 58 46 0 69-51 31-71-42-23-106-23-106-90 0-69 87-70 148-56v56h-16l-7-32c-26-25-110-13-82 35 39 34 121 26 121 100" id="G"/><path fill="#3a414a" d="M9 41c2-18 18-26 32-33C29 1 16-9 16-28l29-33c-21-9-31-25-31-51-2-56 61-65 111-53l39-20c13 12-9 24-14 36 35 54-17 114-90 92-17 34 27 28 56 28 36-1 61 12 60 46-2 46-39 62-91 62-38 0-71-6-76-38zm35-3c6 35 97 29 94-9-2-28-50-14-78-17-8 7-15 14-16 26zm20-150c0 22 4 40 23 40 20 0 24-17 24-40 0-24-4-40-24-40-19 0-23 17-23 40" id="H"/><path fill="#3a414a" d="M78-41c-2 24 21 26 40 20C122 3 98 2 77 4 5 10 32-84 27-147H6v-11l25-7 21-38h26v38h35v18H78v106" id="I"/><g id="h"><use transform="matrix(0.08641975308641973,0,0,0.08641975308641973,0,0)" xlink:href="#G"/><use transform="matrix(0.08641975308641973,0,0,0.08641975308641973,17.283950617283946,0)" xlink:href="#q"/><use transform="matrix(0.08641975308641973,0,0,0.08641975308641973,31.024691358024686,0)" xlink:href="#H"/><use transform="matrix(0.08641975308641973,0,0,0.08641975308641973,46.58024691358024,0)" xlink:href="#B"/><use transform="matrix(0.08641975308641973,0,0,0.08641975308641973,72.41975308641973,0)" xlink:href="#q"/><use transform="matrix(0.08641975308641973,0,0,0.08641975308641973,86.16049382716047,0)" xlink:href="#E"/><use transform="matrix(0.08641975308641973,0,0,0.08641975308641973,103.44444444444443,0)" xlink:href="#I"/></g><path fill="#3a414a" d="M92-134c39 3 62-4 62-44 0-37-25-40-62-38v82zm0 115c49 5 80-2 80-50 0-44-34-49-80-46v96zm138-50C230 26 101-4 6 0v-13l30-5v-200l-30-5v-13c79 7 206-26 206 54 0 33-22 49-49 56 39 3 67 18 67 57" id="J"/><path fill="#3a414a" d="M76-16l18 4V0H7v-12l18-4v-218l-17-4v-12h68v234" id="K"/><path fill="#3a414a" d="M90-170c54-1 76 32 76 87 1 56-23 87-77 87-53 0-75-32-75-87s23-86 76-87zM89-14c28-2 26-38 26-69s3-69-26-69c-27 0-24 39-24 69s-3 66 24 69" id="L"/><path fill="#3a414a" d="M109-18c15 0 31-2 42-6v14c-11 9-31 13-51 13-59 0-86-28-88-86-3-75 66-101 135-80v48h-13c-3-20-7-40-34-37-51 7-55 138 9 134" id="M"/><path fill="#3a414a" d="M77-79l64-71-17-4v-11h63v11c-32 3-40 30-59 46l57 92 15 4V0h-80c-2-11 3-15 10-16L97-74 77-60v44l16 4V0H10v-12l16-4v-218l-17-4v-12h68v171" id="N"/><g id="i"><use transform="matrix(0.08641975308641973,0,0,0.08641975308641973,0,0)" xlink:href="#J"/><use transform="matrix(0.08641975308641973,0,0,0.08641975308641973,20.740740740740737,0)" xlink:href="#K"/><use transform="matrix(0.08641975308641973,0,0,0.08641975308641973,29.382716049382708,0)" xlink:href="#L"/><use transform="matrix(0.08641975308641973,0,0,0.08641975308641973,44.938271604938265,0)" xlink:href="#M"/><use transform="matrix(0.08641975308641973,0,0,0.08641975308641973,58.679012345679,0)" xlink:href="#N"/></g><linearGradient gradientUnits="userSpaceOnUse" id="j" x1="766.76" y1="420" x2="766.76" y2="500"><stop offset="45.16%" stop-color="#f7f8f9"/><stop offset="49.19%" stop-color="#ced4db"/><stop offset="48.79%" stop-color="#a5b0bd"/></linearGradient><g id="k"><use transform="matrix(0.08641975308641973,0,0,0.08641975308641973,0,0)" xlink:href="#D"/><use transform="matrix(0.08641975308641973,0,0,0.08641975308641973,12.098765432098762,0)" xlink:href="#E"/><use transform="matrix(0.08641975308641973,0,0,0.08641975308641973,29.382716049382708,0)" xlink:href="#r"/><use transform="matrix(0.08641975308641973,0,0,0.08641975308641973,46.66666666666666,0)" xlink:href="#q"/><use transform="matrix(0.08641975308641973,0,0,0.08641975308641973,60.4074074074074,0)" xlink:href="#F"/></g><g id="l"><use transform="matrix(0.07407407407407407,0,0,0.07407407407407407,0,0)" xlink:href="#u"/><use transform="matrix(0.07407407407407407,0,0,0.07407407407407407,20.74074074074074,0)" xlink:href="#q"/><use transform="matrix(0.07407407407407407,0,0,0.07407407407407407,32.51851851851852,0)" xlink:href="#v"/></g><path fill="#3a414a" d="M92-101v83l39 5V0H8v-13l28-5v-200l-30-5v-13h197v64h-17l-5-42c-27-3-59-2-89-2v96h57l6-30h15v80h-15l-6-31H92" id="O"/><g id="m"><use transform="matrix(0.07407407407407407,0,0,0.07407407407407407,0,0)" xlink:href="#O"/><use transform="matrix(0.07407407407407407,0,0,0.07407407407407407,16.22222222222222,0)" xlink:href="#L"/><use transform="matrix(0.07407407407407407,0,0,0.07407407407407407,29.555555555555554,0)" xlink:href="#s"/><use transform="matrix(0.07407407407407407,0,0,0.07407407407407407,44.37037037037037,0)" xlink:href="#E"/><use transform="matrix(0.07407407407407407,0,0,0.07407407407407407,59.185185185185176,0)" xlink:href="#r"/></g><path fill="#3a414a" d="M203-218l-32-5v-13h84v13l-30 5V0h-21L59-189v171l32 5V0H7v-13l30-5v-200l-30-5v-13h81L203-85v-133" id="P"/><g id="n"><use transform="matrix(0.07407407407407407,0,0,0.07407407407407407,0,0)" xlink:href="#P"/><use transform="matrix(0.07407407407407407,0,0,0.07407407407407407,19.185185185185183,0)" xlink:href="#L"/><use transform="matrix(0.07407407407407407,0,0,0.07407407407407407,32.51851851851852,0)" xlink:href="#I"/></g><path fill="#3a414a" d="M6-13l30-5v-200l-30-5v-13h201v60h-16l-6-38-93-2v86h61l6-26h16v73h-16l-6-27H92v91l104-3 10-44h16l-4 66H6v-13" id="Q"/><g id="o"><use transform="matrix(0.07407407407407407,0,0,0.07407407407407407,0,0)" xlink:href="#Q"/><use transform="matrix(0.07407407407407407,0,0,0.07407407407407407,17.77777777777778,0)" xlink:href="#F"/><use transform="matrix(0.07407407407407407,0,0,0.07407407407407407,31.11111111111111,0)" xlink:href="#A"/><use transform="matrix(0.07407407407407407,0,0,0.07407407407407407,38.51851851851852,0)" xlink:href="#w"/><use transform="matrix(0.07407407407407407,0,0,0.07407407407407407,48.888888888888886,0)" xlink:href="#I"/></g></defs></g></svg>