<svg xmlns="http://www.w3.org/2000/svg" xmlns:xlink="http://www.w3.org/1999/xlink" xmlns:lucid="lucid" width="1120" height="513.55"><g transform="translate(-132.40000000000012 -500)" lucid:page-tab-id="0_0"><path d="M0 0h1870.87v1322.83H0z" fill="#fff"/><path d="M152.4 579.55c0-3.3 2.7-6 6-6h348c3.3 0 6 2.7 6 6v88c0 3.32-2.7 6-6 6h-348c-3.3 0-6-2.68-6-6z" stroke="#3a414a" stroke-width="2" fill="#dfe3e8"/><use xlink:href="#a" transform="matrix(1,0,0,1,157.40000000000012,578.5546851990465) translate(118.13580246913583 50.201388888888886)"/><path d="M872.4 578.63c0-3.32 2.7-6 6-6h108c3.3 0 6 2.68 6 6v88c0 3.3-2.7 6-6 6h-108c-3.3 0-6-2.7-6-6z" stroke="#3a414a" stroke-width="2" fill="#dfe3e8"/><use xlink:href="#b" transform="matrix(1,0,0,1,877.3999999999997,577.6278450926427) translate(17.018518518518526 50.201388888888886)"/><path d="M992.4 578.63c0-3.32 2.7-6 6-6h108c3.3 0 6 2.68 6 6v88c0 3.3-2.7 6-6 6h-108c-3.3 0-6-2.7-6-6z" stroke="#3a414a" stroke-width="2" fill="url(#c)"/><use xlink:href="#b" transform="matrix(1,0,0,1,997.3999999999996,577.6278450926427) translate(17.018518518518526 50.201388888888886)"/><path d="M1112.4 578.63c0-3.32 2.7-6 6-6h108c3.3 0 6 2.68 6 6v88c0 3.3-2.7 6-6 6h-108c-3.3 0-6-2.7-6-6z" fill="#fff"/><path d="M1129.97 572.63h7.72m7.7 0h7.7m7.73 0h7.7m7.73 0h7.7m7.73 0h7.7m7.7 0h7.73m7.7 0h3.87l3.03.82 2.15 2.15.82 3.03v3.66m0 7.33v7.33m0 7.33v7.33m0 7.33v7.33m0 7.33v7.33m0 7.33v7.33m0 7.33v3.67l-.82 3.03-2.15 2.15-3.03.83h-3.86m-7.7 0h-7.73m-7.7 0h-7.7m-7.73 0h-7.7m-7.73 0h-7.7m-7.73 0h-7.7m-7.7 0h-7.73m-7.7 0h-3.87l-3.03-.82-2.15-2.14-.82-3.03v-3.67m0-7.33v-7.34m0-7.34v-7.33m0-7.34v-7.34m0-7.33v-7.34m0-7.34v-7.33m0-7.34v-3.67l.82-3.03 2.15-2.15 3.03-.82h3.86" stroke="#3a414a" stroke-width="2" fill="none"/><path d="M152.4 526c0-3.3 2.7-6 6-6h348c3.3 0 6 2.7 6 6v40.63c0 3.3-2.7 6-6 6h-348c-3.3 0-6-2.7-6-6z" stroke="#3a414a" stroke-width="2" fill="#edf5ff"/><use xlink:href="#d" transform="matrix(1,0,0,1,157.40000000000012,525) translate(137.01851851851853 27.576388888888886)"/><path d="M872.4 526c0-3.3 2.7-6 6-6h108c3.3 0 6 2.7 6 6v40.63c0 3.3-2.7 6-6 6h-108c-3.3 0-6-2.7-6-6z" stroke="#3a414a" stroke-width="2" fill="#6db1ff"/><use xlink:href="#d" transform="matrix(1,0,0,1,877.3999999999999,525) translate(17.018518518518526 27.576388888888886)"/><path d="M992.4 526c0-3.3 2.7-6 6-6h108c3.3 0 6 2.7 6 6v40.63c0 3.3-2.7 6-6 6h-108c-3.3 0-6-2.7-6-6z" stroke="#3a414a" stroke-width="2" fill="#6db1ff"/><use xlink:href="#d" transform="matrix(1,0,0,1,997.3999999999996,525) translate(17.018518518518526 27.576388888888886)"/><path d="M1112.4 526c0-3.3 2.7-6 6-6h108c3.3 0 6 2.7 6 6v40.63c0 3.3-2.7 6-6 6h-108c-3.3 0-6-2.7-6-6z" fill="#fff"/><path d="M1129.97 520h7.72m7.7 0h7.7m7.73 0h7.7m7.73 0h7.7m7.73 0h7.7m7.7 0h7.73m7.7 0h3.87l3.03.82 2.15 2.15.82 3.03v3.4m0 6.76v6.77m0 6.77v6.77m0 6.77v3.4l-.82 3.02-2.15 2.15-3.03.83h-3.86m-7.7 0h-7.73m-7.7 0h-7.7m-7.73 0h-7.7m-7.73 0h-7.7m-7.73 0h-7.7m-7.7 0h-7.73m-7.7 0h-3.87l-3.03-.82-2.15-2.14-.82-3.03v-3.4m0-6.76v-6.77m0-6.77v-6.77m0-6.77V526l.82-3.03 2.15-2.15 3.03-.82h3.86" stroke="#3a414a" stroke-width="2" fill="none"/><path d="M512.4 526c0-3.3 2.7-6 6-6h108c3.3 0 6 2.7 6 6v40.63c0 3.3-2.7 6-6 6h-108c-3.3 0-6-2.7-6-6z" stroke="#3a414a" stroke-width="2" fill="#cfe4ff"/><use xlink:href="#d" transform="matrix(1,0,0,1,517.4000000000001,525) translate(17.018518518518526 27.576388888888886)"/><path d="M632.4 526c0-3.3 2.7-6 6-6h108c3.3 0 6 2.7 6 6v40.63c0 3.3-2.7 6-6 6h-108c-3.3 0-6-2.7-6-6z" stroke="#3a414a" stroke-width="2" fill="#cfe4ff"/><use xlink:href="#d" transform="matrix(1,0,0,1,637.3999999999999,525.0000000000001) translate(17.018518518518526 27.576388888888886)"/><path d="M752.4 526c0-3.3 2.7-6 6-6h108c3.3 0 6 2.7 6 6v40.63c0 3.3-2.7 6-6 6h-108c-3.3 0-6-2.7-6-6z" stroke="#3a414a" stroke-width="2" fill="#cfe4ff"/><use xlink:href="#d" transform="matrix(1,0,0,1,757.3999999999999,525.0000000000001) translate(17.018518518518526 27.576388888888886)"/><path d="M152.4 899.55c0-3.3 2.7-6 6-6h348c3.3 0 6 2.7 6 6v88c0 3.32-2.7 6-6 6h-348c-3.3 0-6-2.68-6-6z" stroke="#3a414a" stroke-width="2" fill="#dfe3e8"/><use xlink:href="#a" transform="matrix(1,0,0,1,157.40000000000057,898.5546851990467) translate(118.13580246913583 50.201388888888886)"/><path d="M512.4 898.63c0-3.32 2.7-6 6-6h348c3.3 0 6 2.68 6 6v88c0 3.3-2.7 6-6 6h-348c-3.3 0-6-2.7-6-6z" stroke="#3a414a" stroke-width="2" fill="#dfe3e8"/><use xlink:href="#a" transform="matrix(1,0,0,1,517.4000000000005,897.6278450926428) translate(118.13580246913583 50.201388888888886)"/><path d="M872.4 898.63c0-3.32 2.7-6 6-6h108c3.3 0 6 2.68 6 6v88c0 3.3-2.7 6-6 6h-108c-3.3 0-6-2.7-6-6z" stroke="#3a414a" stroke-width="2" fill="#dfe3e8"/><use xlink:href="#b" transform="matrix(1,0,0,1,877.4000000000002,897.6278450926428) translate(17.018518518518526 50.201388888888886)"/><path d="M992.4 898.63c0-3.32 2.7-6 6-6h108c3.3 0 6 2.68 6 6v88c0 3.3-2.7 6-6 6h-108c-3.3 0-6-2.7-6-6z" stroke="#3a414a" stroke-width="2" fill="url(#e)"/><use xlink:href="#b" transform="matrix(1,0,0,1,997.4000000000001,897.6278450926428) translate(17.018518518518526 50.201388888888886)"/><path d="M1112.4 898.63c0-3.32 2.7-6 6-6h108c3.3 0 6 2.68 6 6v88c0 3.3-2.7 6-6 6h-108c-3.3 0-6-2.7-6-6z" fill="#fff"/><path d="M1129.97 892.63h7.72m7.7 0h7.7m7.73 0h7.7m7.73 0h7.7m7.73 0h7.7m7.7 0h7.73m7.7 0h3.87l3.03.82 2.15 2.15.82 3.03v3.66m0 7.33v7.33m0 7.33v7.33m0 7.33v7.33m0 7.33v7.33m0 7.33v7.33m0 7.33v3.67l-.82 3.03-2.15 2.15-3.03.83h-3.86m-7.7 0h-7.73m-7.7 0h-7.7m-7.73 0h-7.7m-7.73 0h-7.7m-7.73 0h-7.7m-7.7 0h-7.73m-7.7 0h-3.87l-3.03-.82-2.15-2.14-.82-3.03v-3.67m0-7.33v-7.34m0-7.34v-7.33m0-7.34v-7.34m0-7.33v-7.34m0-7.34v-7.33m0-7.34v-3.67l.82-3.03 2.15-2.15 3.03-.82h3.86" stroke="#3a414a" stroke-width="2" fill="none"/><path d="M152.4 846c0-3.3 2.7-6 6-6h348c3.3 0 6 2.7 6 6v40.63c0 3.3-2.7 6-6 6h-348c-3.3 0-6-2.7-6-6z" stroke="#3a414a" stroke-width="2" fill="#edf5ff"/><use xlink:href="#f" transform="matrix(1,0,0,1,157.40000000000057,845) translate(49.086419753086446 27.576388888888886)"/><use xlink:href="#g" transform="matrix(1,0,0,1,157.40000000000057,845) translate(132.82716049382717 27.576388888888886)"/><use xlink:href="#h" transform="matrix(1,0,0,1,157.40000000000057,845) translate(228.49382716049382 27.576388888888886)"/><path d="M872.4 846c0-3.3 2.7-6 6-6h108c3.3 0 6 2.7 6 6v40.63c0 3.3-2.7 6-6 6h-108c-3.3 0-6-2.7-6-6z" stroke="#3a414a" stroke-width="2" fill="#cfe4ff"/><use xlink:href="#d" transform="matrix(1,0,0,1,877.4000000000003,845) translate(17.018518518518526 27.576388888888886)"/><path d="M992.4 846c0-3.3 2.7-6 6-6h108c3.3 0 6 2.7 6 6v40.63c0 3.3-2.7 6-6 6h-108c-3.3 0-6-2.7-6-6z" stroke="#3a414a" stroke-width="2" fill="#6db1ff"/><use xlink:href="#d" transform="matrix(1,0,0,1,997.4000000000001,845) translate(17.018518518518526 27.576388888888886)"/><path d="M1112.4 846c0-3.3 2.7-6 6-6h108c3.3 0 6 2.7 6 6v40.63c0 3.3-2.7 6-6 6h-108c-3.3 0-6-2.7-6-6z" fill="#fff"/><path d="M1129.97 840h7.72m7.7 0h7.7m7.73 0h7.7m7.73 0h7.7m7.73 0h7.7m7.7 0h7.73m7.7 0h3.87l3.03.82 2.15 2.15.82 3.03v3.4m0 6.76v6.77m0 6.77v6.77m0 6.77v3.4l-.82 3.02-2.15 2.15-3.03.83h-3.86m-7.7 0h-7.73m-7.7 0h-7.7m-7.73 0h-7.7m-7.73 0h-7.7m-7.73 0h-7.7m-7.7 0h-7.73m-7.7 0h-3.87l-3.03-.82-2.15-2.14-.82-3.03v-3.4m0-6.76v-6.77m0-6.77v-6.77m0-6.77V846l.82-3.03 2.15-2.15 3.03-.82h3.86" stroke="#3a414a" stroke-width="2" fill="none"/><path d="M512.4 846.93c0-3.32 2.7-6 6-6h348c3.3 0 6 2.68 6 6v40.62c0 3.32-2.7 6-6 6h-348c-3.3 0-6-2.68-6-6z" stroke="#3a414a" stroke-width="2" fill="#edf5ff"/><use xlink:href="#d" transform="matrix(1,0,0,1,517.4000000000005,845.9268401064039) translate(137.01851851851853 27.576388888888886)"/><path d="M512.4 579.55c0-3.3 2.7-6 6-6h108c3.3 0 6 2.7 6 6v88c0 3.32-2.7 6-6 6h-108c-3.3 0-6-2.68-6-6z" fill="#dfe3e8"/><path d="M529.97 573.55h7.72m7.7 0h7.7m7.73 0h7.7m7.73 0h7.7m7.73 0h7.7m7.7 0h7.73m7.7 0h3.87l3.03.82 2.15 2.16.82 3.02v3.67m0 7.33v7.34m0 7.32v7.33m0 7.34v7.32m0 7.33v7.34m0 7.32v7.33m0 7.34v3.65l-.82 3.03-2.15 2.16-3.03.8h-3.86m-7.7 0h-7.73m-7.7 0h-7.7m-7.73 0h-7.7m-7.73 0h-7.7m-7.73 0h-7.7m-7.7 0h-7.73m-7.7 0h-3.87l-3.03-.8-2.15-2.16-.82-3.03v-3.66m0-7.35v-7.33m0-7.33v-7.35m0-7.33v-7.33m0-7.35v-7.33m0-7.33v-7.35m0-7.33v-3.67l.82-3.02 2.15-2.16 3.03-.82h3.86" stroke="#3a414a" stroke-width="2" fill="none"/><use xlink:href="#b" transform="matrix(1,0,0,1,517.4000000000003,578.5546851990465) translate(17.018518518518526 50.201388888888886)"/><path d="M632.4 579.55c0-3.3 2.7-6 6-6h108c3.3 0 6 2.7 6 6v88c0 3.32-2.7 6-6 6h-108c-3.3 0-6-2.68-6-6z" fill="#dfe3e8"/><path d="M649.97 573.55h7.72m7.7 0h7.7m7.73 0h7.7m7.73 0h7.7m7.73 0h7.7m7.7 0h7.73m7.7 0h3.87l3.03.82 2.15 2.16.82 3.02v3.67m0 7.33v7.34m0 7.32v7.33m0 7.34v7.32m0 7.33v7.34m0 7.32v7.33m0 7.34v3.65l-.82 3.03-2.15 2.16-3.03.8h-3.86m-7.7 0h-7.73m-7.7 0h-7.7m-7.73 0h-7.7m-7.73 0h-7.7m-7.73 0h-7.7m-7.7 0h-7.73m-7.7 0h-3.87l-3.03-.8-2.15-2.16-.82-3.03v-3.66m0-7.35v-7.33m0-7.33v-7.35m0-7.33v-7.33m0-7.35v-7.33m0-7.33v-7.35m0-7.33v-3.67l.82-3.02 2.15-2.16 3.03-.82h3.86" stroke="#3a414a" stroke-width="2" fill="none"/><use xlink:href="#b" transform="matrix(1,0,0,1,637.4000000000003,578.5546851990465) translate(17.018518518518526 50.201388888888886)"/><path d="M752.4 579.55c0-3.3 2.7-6 6-6h108c3.3 0 6 2.7 6 6v88c0 3.32-2.7 6-6 6h-108c-3.3 0-6-2.68-6-6z" fill="#dfe3e8"/><path d="M769.97 573.55h7.72m7.7 0h7.7m7.73 0h7.7m7.73 0h7.7m7.73 0h7.7m7.7 0h7.73m7.7 0h3.87l3.03.82 2.15 2.16.82 3.02v3.67m0 7.33v7.34m0 7.32v7.33m0 7.34v7.32m0 7.33v7.34m0 7.32v7.33m0 7.34v3.65l-.82 3.03-2.15 2.16-3.03.8h-3.86m-7.7 0h-7.73m-7.7 0h-7.7m-7.73 0h-7.7m-7.73 0h-7.7m-7.73 0h-7.7m-7.7 0h-7.73m-7.7 0h-3.87l-3.03-.8-2.15-2.16-.82-3.03v-3.66m0-7.35v-7.33m0-7.33v-7.35m0-7.33v-7.33m0-7.35v-7.33m0-7.33v-7.35m0-7.33v-3.67l.82-3.02 2.15-2.16 3.03-.82h3.86" stroke="#3a414a" stroke-width="2" fill="none"/><use xlink:href="#b" transform="matrix(1,0,0,1,757.3999999999997,578.5546851990465) translate(17.018518518518526 50.201388888888886)"/><path d="M942.2 760v43.43h9.82l-19.62 17.65-19.62-17.65h9.8V760zM700.6 761.43v43.42h9.82L690.8 822.5l-19.62-17.65h9.8v-43.42z" stroke="#3a414a" stroke-width="3" fill="#282c33"/><path d="M572.4 706c0-3.3 2.7-6 6-6h228c3.3 0 6 2.7 6 6v48c0 3.3-2.7 6-6 6h-228c-3.3 0-6-2.7-6-6z" stroke="#000" stroke-opacity="0" fill="#fff" fill-opacity="0"/><use xlink:href="#i" transform="matrix(1,0,0,1,577.4000000000005,705) translate(17.129629629629676 31.13888888888888)"/><use xlink:href="#j" transform="matrix(1,0,0,1,577.4000000000005,705) translate(99.14197530864197 31.13888888888888)"/><path d="M812.4 706c0-3.3 2.7-6 6-6h228c3.3 0 6 2.7 6 6v48c0 3.3-2.7 6-6 6h-228c-3.3 0-6-2.7-6-6z" stroke="#000" stroke-opacity="0" fill="#fff" fill-opacity="0"/><use xlink:href="#k" transform="matrix(1,0,0,1,817.3999999999997,705) translate(18.858024691358068 31.13888888888888)"/><use xlink:href="#l" transform="matrix(1,0,0,1,817.3999999999997,705) translate(135.17901234567898 31.13888888888888)"/><g fill="none"><path d="M866.4 690c3.3 0 6 2.7 6 6v68c0 3.3-2.7 6-6 6h-348c-3.3 0-6-2.7-6-6v-68c0-3.3 2.7-6 6-6z"/><path d="M512.4 690c0 5.52 4.48 10 10 10h160c5.52 0 10 4.48 10 10 0-5.52 4.48-10 10-10h160c5.52 0 10-4.48 10-10" stroke="#3a414a" stroke-width="2"/></g><g fill="none"><path d="M986.4 690c3.3 0 6 2.7 6 6v68c0 3.3-2.7 6-6 6h-108c-3.3 0-6-2.7-6-6v-68c0-3.3 2.7-6 6-6z"/><path d="M872.4 690c0 5.52 4.48 10 10 10h40c5.52 0 10 4.48 10 10 0-5.52 4.48-10 10-10h40c5.52 0 10-4.48 10-10" stroke="#3a414a" stroke-width="2"/></g><g fill="none"><path d="M506.4 690c3.3 0 6 2.7 6 6v68c0 3.3-2.7 6-6 6h-348c-3.3 0-6-2.7-6-6v-68c0-3.3 2.7-6 6-6z"/><path d="M152.4 690c0 5.52 4.48 10 10 10h160c5.52 0 10 4.48 10 10 0-5.52 4.48-10 10-10h160c5.52 0 10-4.48 10-10" stroke="#3a414a" stroke-width="2"/></g><path d="M343.4 760v43.43h9.82l-19.62 17.65-19.62-17.65h9.8V760z" stroke="#3a414a" stroke-width="3" fill="#282c33"/><path d="M172.4 693.67c0-3.32 2.7-6 6-6h308c3.3 0 6 2.68 6 6v72.66c0 3.32-2.7 6-6 6h-308c-3.3 0-6-2.68-6-6z" stroke="#000" stroke-opacity="0" fill="#fff" fill-opacity="0"/><g><use xlink:href="#m" transform="matrix(1,0,0,1,177.4000000000001,692.6666666666665) translate(9.037037037037095 43.63888888888888)"/><use xlink:href="#n" transform="matrix(1,0,0,1,177.4000000000001,692.6666666666665) translate(187.23456790123456 43.63888888888888)"/></g><path d="M152.4 579.55c0-3.3 2.7-6 6-6h108c3.3 0 6 2.7 6 6V634c0 3.3-2.7 6-6 6h-108c-3.3 0-6-2.7-6-6z" stroke="#3a414a" stroke-width="2" fill="#cfe4ff"/><g><use xlink:href="#o" transform="matrix(1,0,0,1,157.40000000000012,578.5546851990465) translate(8.444444444444457 35.58333333333333)"/></g><defs><path fill="#3a414a" d="M185-72C185 13 82 14 19-9v-63h16c2 37 21 58 61 58 46 0 69-51 31-71-42-23-106-23-106-90 0-69 87-70 148-56v56h-16l-7-32c-26-25-110-13-82 35 39 34 121 26 121 100" id="p"/><path fill="#3a414a" d="M12-83c0-55 22-85 75-86 52-1 66 33 63 88H64c-1 37 6 64 44 63 14 0 28-4 39-6 3 28-28 25-55 27-57 4-80-31-80-86zm90-17c2-26 0-63-27-48-10 9-11 28-11 48h38" id="q"/><path fill="#3a414a" d="M9 41c2-18 18-26 32-33C29 1 16-9 16-28l29-33c-21-9-31-25-31-51-2-56 61-65 111-53l39-20c13 12-9 24-14 36 35 54-17 114-90 92-17 34 27 28 56 28 36-1 61 12 60 46-2 46-39 62-91 62-38 0-71-6-76-38zm35-3c6 35 97 29 94-9-2-28-50-14-78-17-8 7-15 14-16 26zm20-150c0 22 4 40 23 40 20 0 24-17 24-40 0-24-4-40-24-40-19 0-23 17-23 40" id="r"/><path fill="#3a414a" d="M126-114c3-31-27-37-49-25v123l15 4V0H10v-12l16-4v-133l-16-5v-11h64l2 14c24-16 81-33 96 3 30-24 105-39 105 27v105l17 4V0h-82v-12l14-4v-98c4-33-27-37-51-24 5 35 0 82 2 122l17 4V0h-83v-12l15-4v-98" id="s"/><path fill="#3a414a" d="M127-114c3-31-26-38-50-25v123l15 4V0H10v-12l16-4v-133l-16-5v-11h64l2 14c31-23 102-32 102 30v105l17 4V0h-82v-12l14-4v-98" id="t"/><path fill="#3a414a" d="M78-41c-2 24 21 26 40 20C122 3 98 2 77 4 5 10 32-84 27-147H6v-11l25-7 21-38h26v38h35v18H78v106" id="u"/><g id="a"><use transform="matrix(0.08641975308641973,0,0,0.08641975308641973,0,0)" xlink:href="#p"/><use transform="matrix(0.08641975308641973,0,0,0.08641975308641973,17.283950617283946,0)" xlink:href="#q"/><use transform="matrix(0.08641975308641973,0,0,0.08641975308641973,31.024691358024686,0)" xlink:href="#r"/><use transform="matrix(0.08641975308641973,0,0,0.08641975308641973,46.58024691358024,0)" xlink:href="#s"/><use transform="matrix(0.08641975308641973,0,0,0.08641975308641973,72.41975308641973,0)" xlink:href="#q"/><use transform="matrix(0.08641975308641973,0,0,0.08641975308641973,86.16049382716047,0)" xlink:href="#t"/><use transform="matrix(0.08641975308641973,0,0,0.08641975308641973,103.44444444444443,0)" xlink:href="#u"/></g><path fill="#3a414a" d="M92-134c39 3 62-4 62-44 0-37-25-40-62-38v82zm0 115c49 5 80-2 80-50 0-44-34-49-80-46v96zm138-50C230 26 101-4 6 0v-13l30-5v-200l-30-5v-13c79 7 206-26 206 54 0 33-22 49-49 56 39 3 67 18 67 57" id="v"/><path fill="#3a414a" d="M76-16l18 4V0H7v-12l18-4v-218l-17-4v-12h68v234" id="w"/><path fill="#3a414a" d="M90-170c54-1 76 32 76 87 1 56-23 87-77 87-53 0-75-32-75-87s23-86 76-87zM89-14c28-2 26-38 26-69s3-69-26-69c-27 0-24 39-24 69s-3 66 24 69" id="x"/><path fill="#3a414a" d="M109-18c15 0 31-2 42-6v14c-11 9-31 13-51 13-59 0-86-28-88-86-3-75 66-101 135-80v48h-13c-3-20-7-40-34-37-51 7-55 138 9 134" id="y"/><path fill="#3a414a" d="M77-79l64-71-17-4v-11h63v11c-32 3-40 30-59 46l57 92 15 4V0h-80c-2-11 3-15 10-16L97-74 77-60v44l16 4V0H10v-12l16-4v-218l-17-4v-12h68v171" id="z"/><g id="b"><use transform="matrix(0.08641975308641973,0,0,0.08641975308641973,0,0)" xlink:href="#v"/><use transform="matrix(0.08641975308641973,0,0,0.08641975308641973,20.740740740740737,0)" xlink:href="#w"/><use transform="matrix(0.08641975308641973,0,0,0.08641975308641973,29.382716049382708,0)" xlink:href="#x"/><use transform="matrix(0.08641975308641973,0,0,0.08641975308641973,44.938271604938265,0)" xlink:href="#y"/><use transform="matrix(0.08641975308641973,0,0,0.08641975308641973,58.679012345679,0)" xlink:href="#z"/></g><linearGradient gradientUnits="userSpaceOnUse" id="c" x1="992.4" y1="572.63" x2="992.4" y2="672.63"><stop offset="52.42%" stop-color="#fff"/><stop offset="53.23%" stop-color="#dfe3e8"/><stop offset="52.82%" stop-color="#b6bfca"/></linearGradient><path fill="#3a414a" d="M98-18l30 5V0H12v-13l30-5v-200l-30-5v-13h116v13l-30 5v200" id="A"/><path fill="#3a414a" d="M15-82c-4-69 47-101 113-83l-1-69-17-4v-12h68v234l18 4V0h-63l-4-9C77 23 5-9 15-82zm112-66c-43-16-64 17-61 65 2 33 3 67 32 67 12 0 22-3 29-8v-124" id="B"/><path fill="#3a414a" d="M5-154v-11h89v11l-19 5 24 37 32-37-16-5v-11h56v11l-15 4-46 54 52 81 16 4V0H90v-11l18-4-29-45-38 45 17 4V0H1v-11l15-3 53-62-48-73" id="C"/><g id="d"><use transform="matrix(0.08641975308641973,0,0,0.08641975308641973,0,0)" xlink:href="#A"/><use transform="matrix(0.08641975308641973,0,0,0.08641975308641973,12.098765432098762,0)" xlink:href="#t"/><use transform="matrix(0.08641975308641973,0,0,0.08641975308641973,29.382716049382708,0)" xlink:href="#B"/><use transform="matrix(0.08641975308641973,0,0,0.08641975308641973,46.66666666666666,0)" xlink:href="#q"/><use transform="matrix(0.08641975308641973,0,0,0.08641975308641973,60.4074074074074,0)" xlink:href="#C"/></g><linearGradient gradientUnits="userSpaceOnUse" id="e" x1="992.4" y1="892.63" x2="992.4" y2="992.63"><stop offset="52.42%" stop-color="#fff"/><stop offset="53.23%" stop-color="#dfe3e8"/><stop offset="52.82%" stop-color="#b6bfca"/></linearGradient><g id="f"><use transform="matrix(0.08641975308641973,0,0,0.08641975308641973,0,0)" xlink:href="#A"/><use transform="matrix(0.08641975308641973,0,0,0.08641975308641973,12.098765432098762,0)" xlink:href="#t"/><use transform="matrix(0.08641975308641973,0,0,0.08641975308641973,29.382716049382708,0)" xlink:href="#B"/><use transform="matrix(0.08641975308641973,0,0,0.08641975308641973,46.66666666666666,0)" xlink:href="#q"/><use transform="matrix(0.08641975308641973,0,0,0.08641975308641973,60.4074074074074,0)" xlink:href="#C"/></g><path fill="#3a414a" d="M108-230c-35 27-44 80-44 143s8 116 44 144v20C7 49-17-153 67-223c12-10 25-19 41-27v20" id="D"/><path fill="#3a414a" d="M154-149l38 94 32-94-20-5v-11h54v11l-13 4L190 4h-21l-38-93L93 4H72L13-149c-7-2-15-4-12-16h82v11l-20 5 36 94 38-94h17" id="E"/><path fill="#3a414a" d="M81 5L15-149c-7-2-13-5-11-16h84v11l-20 5 39 91 35-91-19-5v-11h53c2 11-4 13-11 15C134-81 111-5 75 58 65 77 34 83 8 74V32h11c0 24 29 35 43 12 7-11 13-25 19-39" id="F"/><g id="g"><use transform="matrix(0.08641975308641973,0,0,0.08641975308641973,0,0)" xlink:href="#D"/><use transform="matrix(0.08641975308641973,0,0,0.08641975308641973,10.28395061728395,0)" xlink:href="#t"/><use transform="matrix(0.08641975308641973,0,0,0.08641975308641973,27.567901234567895,0)" xlink:href="#q"/><use transform="matrix(0.08641975308641973,0,0,0.08641975308641973,41.30864197530863,0)" xlink:href="#E"/><use transform="matrix(0.08641975308641973,0,0,0.08641975308641973,63.69135802469135,0)" xlink:href="#w"/><use transform="matrix(0.08641975308641973,0,0,0.08641975308641973,72.33333333333331,0)" xlink:href="#F"/></g><path fill="#3a414a" d="M72-18c49 15 64-22 62-69-1-34-4-62-34-63-10-1-23 2-28 6v126zm33 22C77 4 48-3 21-8v-226l-16-4v-12h67c-1 31 2 66-2 94 11-8 28-14 47-14 51 0 70 31 69 83-1 55-26 91-81 91" id="G"/><path fill="#3a414a" d="M73-51c-3 31 27 38 51 25v-123l-16-5v-11h66v149l17 4V0h-65l-2-14C94 9 22 18 22-44v-105l-17-5v-11h68v114" id="H"/><path fill="#3a414a" d="M77-16l18 4V0H8v-12l18-4v-133l-17-5v-11h68v149zM51-196c-16 0-27-10-27-27s10-27 27-27 27 11 27 27c0 17-10 27-27 27" id="I"/><path fill="#3a414a" d="M12-250C113-222 137-19 52 49 40 59 28 69 12 77V57C48 29 56-24 56-87s-9-116-44-143v-20" id="J"/><g id="h"><use transform="matrix(0.08641975308641973,0,0,0.08641975308641973,0,0)" xlink:href="#G"/><use transform="matrix(0.08641975308641973,0,0,0.08641975308641973,17.283950617283946,0)" xlink:href="#H"/><use transform="matrix(0.08641975308641973,0,0,0.08641975308641973,34.56790123456789,0)" xlink:href="#I"/><use transform="matrix(0.08641975308641973,0,0,0.08641975308641973,43.209876543209866,0)" xlink:href="#w"/><use transform="matrix(0.08641975308641973,0,0,0.08641975308641973,51.85185185185184,0)" xlink:href="#u"/><use transform="matrix(0.08641975308641973,0,0,0.08641975308641973,62.13580246913579,0)" xlink:href="#J"/></g><path fill="#3a414a" d="M92-101v83l39 5V0H8v-13l28-5v-200l-30-5v-13h197v64h-17l-5-42c-27-3-59-2-89-2v96h57l6-30h15v80h-15l-6-31H92" id="K"/><path fill="#3a414a" d="M102-142c-14-17-68-15-54 18 24 26 83 17 83 72 0 62-72 62-120 47v-45h12c4 23 16 37 43 37 35 0 39-37 9-46-31-9-65-19-64-61 0-52 59-55 108-45v43h-11" id="L"/><path fill="#3a414a" d="M127-114c3-31-26-38-50-25v123l15 4V0H10v-12l16-4v-218l-17-4v-12h68l-1 99c31-23 102-32 102 30v105l17 4V0h-82v-12l14-4v-98" id="M"/><g id="i"><use transform="matrix(0.0864197530864197,0,0,0.0864197530864197,0,0)" xlink:href="#K"/><use transform="matrix(0.0864197530864197,0,0,0.0864197530864197,18.925925925925917,0)" xlink:href="#w"/><use transform="matrix(0.0864197530864197,0,0,0.0864197530864197,27.567901234567888,0)" xlink:href="#H"/><use transform="matrix(0.0864197530864197,0,0,0.0864197530864197,44.85185185185184,0)" xlink:href="#L"/><use transform="matrix(0.0864197530864197,0,0,0.0864197530864197,56.9506172839506,0)" xlink:href="#M"/></g><g id="j"><use transform="matrix(0.0864197530864197,0,0,0.0864197530864197,0,0)" xlink:href="#p"/><use transform="matrix(0.0864197530864197,0,0,0.0864197530864197,17.283950617283942,0)" xlink:href="#q"/><use transform="matrix(0.0864197530864197,0,0,0.0864197530864197,31.024691358024675,0)" xlink:href="#r"/><use transform="matrix(0.0864197530864197,0,0,0.0864197530864197,46.58024691358022,0)" xlink:href="#s"/><use transform="matrix(0.0864197530864197,0,0,0.0864197530864197,72.41975308641972,0)" xlink:href="#q"/><use transform="matrix(0.0864197530864197,0,0,0.0864197530864197,86.16049382716045,0)" xlink:href="#t"/><use transform="matrix(0.0864197530864197,0,0,0.0864197530864197,103.44444444444441,0)" xlink:href="#u"/></g><path fill="#3a414a" d="M76-116c0 86 71 126 135 84l6-39h16l-1 60C138 21 18 1 18-115c0-117 106-141 210-112l1 57h-16l-5-34c-13-9-32-16-54-16-60 0-78 42-78 104" id="N"/><g id="k"><use transform="matrix(0.0864197530864197,0,0,0.0864197530864197,0,0)" xlink:href="#N"/><use transform="matrix(0.0864197530864197,0,0,0.0864197530864197,22.382716049382704,0)" xlink:href="#x"/><use transform="matrix(0.0864197530864197,0,0,0.0864197530864197,37.93827160493825,0)" xlink:href="#s"/><use transform="matrix(0.0864197530864197,0,0,0.0864197530864197,63.77777777777774,0)" xlink:href="#s"/><use transform="matrix(0.0864197530864197,0,0,0.0864197530864197,89.61728395061724,0)" xlink:href="#I"/><use transform="matrix(0.0864197530864197,0,0,0.0864197530864197,98.25925925925921,0)" xlink:href="#u"/></g><g id="l"><use transform="matrix(0.0864197530864197,0,0,0.0864197530864197,0,0)" xlink:href="#v"/><use transform="matrix(0.0864197530864197,0,0,0.0864197530864197,20.74074074074073,0)" xlink:href="#w"/><use transform="matrix(0.0864197530864197,0,0,0.0864197530864197,29.3827160493827,0)" xlink:href="#x"/><use transform="matrix(0.0864197530864197,0,0,0.0864197530864197,44.93827160493825,0)" xlink:href="#y"/><use transform="matrix(0.0864197530864197,0,0,0.0864197530864197,58.679012345678984,0)" xlink:href="#z"/></g><path fill="#3a414a" d="M222-170c0 37-18 56-47 65l63 87 25 5V0h-76l-66-100H92v82l30 5V0H8v-13l28-5v-200l-30-5v-13c89 5 214-24 216 66zM92-119c45 2 75-3 75-50s-30-49-75-47v97" id="O"/><path fill="#3a414a" d="M13-69v-31h94v31H13" id="P"/><path fill="#3a414a" d="M132-132c-21 0-37 9-50 16v100l26 4V0H10v-12l21-4v-133l-21-5v-11h69l2 34c17-18 35-41 71-40v61c-17 3-14-14-20-22" id="Q"/><g id="m"><use transform="matrix(0.0864197530864197,0,0,0.0864197530864197,0,0)" xlink:href="#O"/><use transform="matrix(0.0864197530864197,0,0,0.0864197530864197,22.382716049382704,0)" xlink:href="#q"/><use transform="matrix(0.0864197530864197,0,0,0.0864197530864197,36.12345679012344,0)" xlink:href="#P"/><use transform="matrix(0.0864197530864197,0,0,0.0864197530864197,46.40740740740739,0)" xlink:href="#y"/><use transform="matrix(0.0864197530864197,0,0,0.0864197530864197,60.148148148148124,0)" xlink:href="#x"/><use transform="matrix(0.0864197530864197,0,0,0.0864197530864197,75.70370370370367,0)" xlink:href="#t"/><use transform="matrix(0.0864197530864197,0,0,0.0864197530864197,92.98765432098763,0)" xlink:href="#L"/><use transform="matrix(0.0864197530864197,0,0,0.0864197530864197,105.08641975308639,0)" xlink:href="#u"/><use transform="matrix(0.0864197530864197,0,0,0.0864197530864197,115.37037037037032,0)" xlink:href="#Q"/><use transform="matrix(0.0864197530864197,0,0,0.0864197530864197,129.11111111111106,0)" xlink:href="#H"/><use transform="matrix(0.0864197530864197,0,0,0.0864197530864197,146.395061728395,0)" xlink:href="#y"/><use transform="matrix(0.0864197530864197,0,0,0.0864197530864197,160.13580246913574,0)" xlink:href="#u"/></g><g id="n"><use transform="matrix(0.0864197530864197,0,0,0.0864197530864197,0,0)" xlink:href="#p"/><use transform="matrix(0.0864197530864197,0,0,0.0864197530864197,17.283950617283942,0)" xlink:href="#q"/><use transform="matrix(0.0864197530864197,0,0,0.0864197530864197,31.024691358024675,0)" xlink:href="#r"/><use transform="matrix(0.0864197530864197,0,0,0.0864197530864197,46.58024691358022,0)" xlink:href="#s"/><use transform="matrix(0.0864197530864197,0,0,0.0864197530864197,72.41975308641972,0)" xlink:href="#q"/><use transform="matrix(0.0864197530864197,0,0,0.0864197530864197,86.16049382716045,0)" xlink:href="#t"/><use transform="matrix(0.0864197530864197,0,0,0.0864197530864197,103.44444444444441,0)" xlink:href="#u"/></g><path fill="#3a414a" d="M91-218c7 77-29 197 56 197 84 0 47-121 55-197l-31-5v-13h80v13l-27 5v137c-1 56-32 84-91 84-59-1-96-26-97-85v-136l-27-5v-13h112v13" id="R"/><path fill="#3a414a" d="M186-86c2 69-46 103-114 85l1 62 25 4v12H5V65l18-4v-210l-18-5v-11h67v8c12-8 26-13 46-13 49 2 67 30 68 84zm-83 71c28 0 31-33 31-69 0-34-2-66-30-66-12 0-23 3-31 7v124c9 2 20 4 30 4" id="S"/><path fill="#3a414a" d="M31-163c51-5 127-20 127 40v107l17 4V0h-61l-4-13C82 13 12 12 12-46c0-51 46-52 95-53 9-45-22-69-57-44l-7 20H31v-40zM62-47c0 30 26 34 45 23v-59c-28 0-45 6-45 36" id="T"/><g id="o"><use transform="matrix(0.07407407407407407,0,0,0.07407407407407407,0,0)" xlink:href="#R"/><use transform="matrix(0.07407407407407407,0,0,0.07407407407407407,19.185185185185183,0)" xlink:href="#S"/><use transform="matrix(0.07407407407407407,0,0,0.07407407407407407,34,0)" xlink:href="#B"/><use transform="matrix(0.07407407407407407,0,0,0.07407407407407407,48.81481481481481,0)" xlink:href="#T"/><use transform="matrix(0.07407407407407407,0,0,0.07407407407407407,62.14814814814814,0)" xlink:href="#u"/><use transform="matrix(0.07407407407407407,0,0,0.07407407407407407,70.96296296296295,0)" xlink:href="#q"/><use transform="matrix(0.07407407407407407,0,0,0.07407407407407407,82.74074074074072,0)" xlink:href="#L"/></g></defs></g></svg>