<svg xmlns="http://www.w3.org/2000/svg" xmlns:xlink="http://www.w3.org/1999/xlink" xmlns:lucid="lucid" width="993.6" height="647.33"><g transform="translate(-80 -100)" lucid:page-tab-id="0_0"><path d="M0 0h1870.87v1322.83H0z" fill="#fff"/><path d="M146.8 126c0-3.3 2.7-6 6-6h168c3.3 0 6 2.7 6 6v68c0 3.3-2.7 6-6 6h-168c-3.3 0-6-2.7-6-6z" stroke="#5e5e5e" stroke-width="3" fill="url(#a)"/><use xlink:href="#b" transform="matrix(1,0,0,1,151.79999999999984,125) translate(31.46296296296297 40.201388888888886)"/><path d="M146.8 206c0-3.3 2.7-6 6-6h168c3.3 0 6 2.7 6 6v68c0 3.3-2.7 6-6 6h-168c-3.3 0-6-2.7-6-6z" fill="#fff"/><path d="M170.8 200h12m12 0h12m12 0h12m12 0h12m12 0h12m12 0h12m12 0h6l3.03.82 2.15 2.15.82 3.03v5.67m0 11.33v11.33m0 11.34V257m0 11.33V274l-.82 3.03-2.15 2.15-3.03.82h-6m-12 0h-12m-12 0h-12m-12 0h-12m-12 0h-12m-12 0h-12m-12 0h-12m-12 0h-6l-3.03-.82-2.15-2.15-.82-3.03v-5.67m0-11.33v-11.33m0-11.34V223m0-11.33V206l.82-3.03 2.15-2.15 3.03-.82h6" stroke="#5e5e5e" stroke-width="3" fill="none"/><path d="M146.8 286c0-3.3 2.7-6 6-6h168c3.3 0 6 2.7 6 6v68c0 3.3-2.7 6-6 6h-168c-3.3 0-6-2.7-6-6z" fill="#fff"/><path d="M170.8 280h12m12 0h12m12 0h12m12 0h12m12 0h12m12 0h12m12 0h6l3.03.82 2.15 2.15.82 3.03v5.67m0 11.33v11.33m0 11.34V337m0 11.33V354l-.82 3.03-2.15 2.15-3.03.82h-6m-12 0h-12m-12 0h-12m-12 0h-12m-12 0h-12m-12 0h-12m-12 0h-12m-12 0h-6l-3.03-.82-2.15-2.15-.82-3.03v-5.67m0-11.33v-11.33m0-11.34V303m0-11.33V286l.82-3.03 2.15-2.15 3.03-.82h6" stroke="#5e5e5e" stroke-width="3" fill="none"/><path d="M326.8 126c0-3.3 2.7-6 6-6h34.8c3.3 0 6 2.7 6 6v68c0 3.3-2.7 6-6 6h-34.8c-3.3 0-6-2.7-6-6z" stroke="#5e5e5e" stroke-width="3" fill="#edf5ff"/><path d="M100 126c0-3.3 2.7-6 6-6h34.8c3.3 0 6 2.7 6 6v68c0 3.3-2.7 6-6 6H106c-3.3 0-6-2.7-6-6z" stroke="#5e5e5e" stroke-width="3" fill="#00c2a8"/><path d="M326.8 206c0-3.3 2.7-6 6-6h34.8c3.3 0 6 2.7 6 6v68c0 3.3-2.7 6-6 6h-34.8c-3.3 0-6-2.7-6-6z" fill="#fff"/><path d="M358.9 200h8.7l3.03.82 2.15 2.15.82 3.03v5.67m0 11.33v11.33m0 11.34V257m0 11.33V274l-.82 3.03-2.15 2.15-3.03.82h-8.7m-17.4 0h-8.7l-3.03-.82-2.15-2.15-.82-3.03v-5.67m0-11.33v-11.33m0-11.34V223m0-11.33V206l.82-3.03 2.15-2.15 3.03-.82h8.7" stroke="#5e5e5e" stroke-width="3" fill="none"/><path d="M326.8 286c0-3.3 2.7-6 6-6h34.8c3.3 0 6 2.7 6 6v68c0 3.3-2.7 6-6 6h-34.8c-3.3 0-6-2.7-6-6z" fill="#fff"/><path d="M358.9 280h8.7l3.03.82 2.15 2.15.82 3.03v5.67m0 11.33v11.33m0 11.34V337m0 11.33V354l-.82 3.03-2.15 2.15-3.03.82h-8.7m-17.4 0h-8.7l-3.03-.82-2.15-2.15-.82-3.03v-5.67m0-11.33v-11.33m0-11.34V303m0-11.33V286l.82-3.03 2.15-2.15 3.03-.82h8.7" stroke="#5e5e5e" stroke-width="3" fill="none"/><path d="M100 206c0-3.3 2.7-6 6-6h34.8c3.3 0 6 2.7 6 6v68c0 3.3-2.7 6-6 6H106c-3.3 0-6-2.7-6-6z" fill="#fff"/><path d="M132.1 200h8.7l3.03.82 2.15 2.15.82 3.03v5.67m0 11.33v11.33m0 11.34V257m0 11.33V274l-.82 3.03-2.15 2.15-3.03.82h-8.7m-17.4 0H106l-3.03-.82-2.15-2.15L100 274v-5.67m0-11.33v-11.33m0-11.34V223m0-11.33V206l.82-3.03 2.15-2.15L106 200h8.7" stroke="#5e5e5e" stroke-width="3" fill="none"/><path d="M100 286c0-3.3 2.7-6 6-6h34.8c3.3 0 6 2.7 6 6v68c0 3.3-2.7 6-6 6H106c-3.3 0-6-2.7-6-6z" fill="#fff"/><path d="M132.1 280h8.7l3.03.82 2.15 2.15.82 3.03v5.67m0 11.33v11.33m0 11.34V337m0 11.33V354l-.82 3.03-2.15 2.15-3.03.82h-8.7m-17.4 0H106l-3.03-.82-2.15-2.15L100 354v-5.67m0-11.33v-11.33m0-11.34V303m0-11.33V286l.82-3.03 2.15-2.15L106 280h8.7" stroke="#5e5e5e" stroke-width="3" fill="none"/><path d="M486.8 126c0-3.3 2.7-6 6-6h168c3.3 0 6 2.7 6 6v68c0 3.3-2.7 6-6 6h-168c-3.3 0-6-2.7-6-6z" stroke="#5e5e5e" stroke-width="3" fill="#dfe3e8"/><use xlink:href="#b" transform="matrix(1,0,0,1,491.79999999999984,125) translate(31.46296296296297 40.201388888888886)"/><path d="M486.8 286c0-3.3 2.7-6 6-6h168c3.3 0 6 2.7 6 6v68c0 3.3-2.7 6-6 6h-168c-3.3 0-6-2.7-6-6z" fill="#fff"/><path d="M510.8 280h12m12 0h12m12 0h12m12 0h12m12 0h12m12 0h12m12 0h6l3.03.82 2.15 2.15.82 3.03v5.67m0 11.33v11.33m0 11.34V337m0 11.33V354l-.82 3.03-2.15 2.15-3.03.82h-6m-12 0h-12m-12 0h-12m-12 0h-12m-12 0h-12m-12 0h-12m-12 0h-12m-12 0h-6l-3.03-.82-2.15-2.15-.82-3.03v-5.67m0-11.33v-11.33m0-11.34V303m0-11.33V286l.82-3.03 2.15-2.15 3.03-.82h6" stroke="#5e5e5e" stroke-width="3" fill="none"/><path d="M666.8 126c0-3.3 2.7-6 6-6h34.8c3.3 0 6 2.7 6 6v68c0 3.3-2.7 6-6 6h-34.8c-3.3 0-6-2.7-6-6z" stroke="#5e5e5e" stroke-width="3" fill="#edf5ff"/><path d="M440 126c0-3.3 2.7-6 6-6h34.8c3.3 0 6 2.7 6 6v68c0 3.3-2.7 6-6 6H446c-3.3 0-6-2.7-6-6z" stroke="#5e5e5e" stroke-width="3" fill="#e3fae3"/><path d="M666.8 286c0-3.3 2.7-6 6-6h34.8c3.3 0 6 2.7 6 6v68c0 3.3-2.7 6-6 6h-34.8c-3.3 0-6-2.7-6-6z" fill="#fff"/><path d="M698.9 280h8.7l3.03.82 2.15 2.15.82 3.03v5.67m0 11.33v11.33m0 11.34V337m0 11.33V354l-.82 3.03-2.15 2.15-3.03.82h-8.7m-17.4 0h-8.7l-3.03-.82-2.15-2.15-.82-3.03v-5.67m0-11.33v-11.33m0-11.34V303m0-11.33V286l.82-3.03 2.15-2.15 3.03-.82h8.7" stroke="#5e5e5e" stroke-width="3" fill="none"/><path d="M440 286c0-3.3 2.7-6 6-6h34.8c3.3 0 6 2.7 6 6v68c0 3.3-2.7 6-6 6H446c-3.3 0-6-2.7-6-6z" fill="#fff"/><path d="M472.1 280h8.7l3.03.82 2.15 2.15.82 3.03v5.67m0 11.33v11.33m0 11.34V337m0 11.33V354l-.82 3.03-2.15 2.15-3.03.82h-8.7m-17.4 0H446l-3.03-.82-2.15-2.15L440 354v-5.67m0-11.33v-11.33m0-11.34V303m0-11.33V286l.82-3.03 2.15-2.15L446 280h8.7" stroke="#5e5e5e" stroke-width="3" fill="none"/><path d="M486.8 206c0-3.3 2.7-6 6-6h168c3.3 0 6 2.7 6 6v68c0 3.3-2.7 6-6 6h-168c-3.3 0-6-2.7-6-6z" stroke="#5e5e5e" stroke-width="3" fill="url(#c)"/><use xlink:href="#d" transform="matrix(1,0,0,1,491.79999999999995,204.99999999999997) translate(31.46296296296297 40.201388888888886)"/><path d="M666.8 206c0-3.3 2.7-6 6-6h34.8c3.3 0 6 2.7 6 6v68c0 3.3-2.7 6-6 6h-34.8c-3.3 0-6-2.7-6-6z" stroke="#5e5e5e" stroke-width="3" fill="#edf5ff"/><path d="M440 206c0-3.3 2.7-6 6-6h34.8c3.3 0 6 2.7 6 6v68c0 3.3-2.7 6-6 6H446c-3.3 0-6-2.7-6-6z" stroke="#5e5e5e" stroke-width="3" fill="#00c2a8"/><path d="M826.8 126c0-3.3 2.7-6 6-6h168c3.3 0 6 2.7 6 6v68c0 3.3-2.7 6-6 6h-168c-3.3 0-6-2.7-6-6z" stroke="#5e5e5e" stroke-width="3" fill="#dfe3e8"/><use xlink:href="#b" transform="matrix(1,0,0,1,831.8,125) translate(31.46296296296297 40.201388888888886)"/><path d="M1006.8 126c0-3.3 2.7-6 6-6h34.8c3.3 0 6 2.7 6 6v68c0 3.3-2.7 6-6 6h-34.8c-3.3 0-6-2.7-6-6z" stroke="#5e5e5e" stroke-width="3" fill="#edf5ff"/><path d="M780 126c0-3.3 2.7-6 6-6h34.8c3.3 0 6 2.7 6 6v68c0 3.3-2.7 6-6 6H786c-3.3 0-6-2.7-6-6z" stroke="#5e5e5e" stroke-width="3" fill="#e3fae3"/><path d="M826.8 206c0-3.3 2.7-6 6-6h168c3.3 0 6 2.7 6 6v68c0 3.3-2.7 6-6 6h-168c-3.3 0-6-2.7-6-6z" stroke="#5e5e5e" stroke-width="3" fill="#dfe3e8"/><use xlink:href="#d" transform="matrix(1,0,0,1,831.7999999999998,205) translate(31.46296296296297 40.201388888888886)"/><path d="M1006.8 206c0-3.3 2.7-6 6-6h34.8c3.3 0 6 2.7 6 6v68c0 3.3-2.7 6-6 6h-34.8c-3.3 0-6-2.7-6-6z" stroke="#5e5e5e" stroke-width="3" fill="#edf5ff"/><path d="M780 206c0-3.3 2.7-6 6-6h34.8c3.3 0 6 2.7 6 6v68c0 3.3-2.7 6-6 6H786c-3.3 0-6-2.7-6-6z" stroke="#5e5e5e" stroke-width="3" fill="#e3fae3"/><path d="M826.8 286c0-3.3 2.7-6 6-6h168c3.3 0 6 2.7 6 6v68c0 3.3-2.7 6-6 6h-168c-3.3 0-6-2.7-6-6z" stroke="#5e5e5e" stroke-width="3" fill="url(#e)"/><use xlink:href="#f" transform="matrix(1,0,0,1,831.7999999999997,285) translate(31.46296296296297 40.201388888888886)"/><path d="M1006.8 286c0-3.3 2.7-6 6-6h34.8c3.3 0 6 2.7 6 6v68c0 3.3-2.7 6-6 6h-34.8c-3.3 0-6-2.7-6-6z" stroke="#5e5e5e" stroke-width="3" fill="#edf5ff"/><path d="M780 286c0-3.3 2.7-6 6-6h34.8c3.3 0 6 2.7 6 6v68c0 3.3-2.7 6-6 6H786c-3.3 0-6-2.7-6-6z" stroke="#5e5e5e" stroke-width="3" fill="#00c2a8"/><path d="M146.8 426c0-3.3 2.7-6 6-6h168c3.3 0 6 2.7 6 6v68c0 3.3-2.7 6-6 6h-168c-3.3 0-6-2.7-6-6z" stroke="#5e5e5e" stroke-width="3" fill="#dfe3e8"/><use xlink:href="#b" transform="matrix(1,0,0,1,151.8,425) translate(31.46296296296297 40.201388888888886)"/><path d="M326.8 426c0-3.3 2.7-6 6-6h34.8c3.3 0 6 2.7 6 6v68c0 3.3-2.7 6-6 6h-34.8c-3.3 0-6-2.7-6-6z" stroke="#5e5e5e" stroke-width="3" fill="#edf5ff"/><path d="M100 426c0-3.3 2.7-6 6-6h34.8c3.3 0 6 2.7 6 6v68c0 3.3-2.7 6-6 6H106c-3.3 0-6-2.7-6-6z" stroke="#5e5e5e" stroke-width="3" fill="#e3fae3"/><path d="M146.8 506c0-3.3 2.7-6 6-6h168c3.3 0 6 2.7 6 6v68c0 3.3-2.7 6-6 6h-168c-3.3 0-6-2.7-6-6z" stroke="#5e5e5e" stroke-width="3" fill="#dfe3e8"/><use xlink:href="#d" transform="matrix(1,0,0,1,151.79999999999978,505) translate(31.46296296296297 40.201388888888886)"/><path d="M326.8 506c0-3.3 2.7-6 6-6h34.8c3.3 0 6 2.7 6 6v68c0 3.3-2.7 6-6 6h-34.8c-3.3 0-6-2.7-6-6z" stroke="#5e5e5e" stroke-width="3" fill="#edf5ff"/><path d="M100 506c0-3.3 2.7-6 6-6h34.8c3.3 0 6 2.7 6 6v68c0 3.3-2.7 6-6 6H106c-3.3 0-6-2.7-6-6z" stroke="#5e5e5e" stroke-width="3" fill="#e3fae3"/><path d="M146.8 586c0-3.3 2.7-6 6-6h168c3.3 0 6 2.7 6 6v68c0 3.3-2.7 6-6 6h-168c-3.3 0-6-2.7-6-6z" stroke="#5e5e5e" stroke-width="3" fill="#dfe3e8"/><use xlink:href="#f" transform="matrix(1,0,0,1,151.79999999999978,585) translate(31.46296296296297 40.201388888888886)"/><path d="M326.8 586c0-3.3 2.7-6 6-6h34.8c3.3 0 6 2.7 6 6v68c0 3.3-2.7 6-6 6h-34.8c-3.3 0-6-2.7-6-6z" stroke="#5e5e5e" stroke-width="3" fill="#edf5ff"/><path d="M100 586c0-3.3 2.7-6 6-6h34.8c3.3 0 6 2.7 6 6v68c0 3.3-2.7 6-6 6H106c-3.3 0-6-2.7-6-6z" stroke="#5e5e5e" stroke-width="3" fill="#e3fae3"/><path d="M486.8 426c0-3.3 2.7-6 6-6h168c3.3 0 6 2.7 6 6v68c0 3.3-2.7 6-6 6h-168c-3.3 0-6-2.7-6-6z" stroke="#5e5e5e" stroke-width="3" fill="#dfe3e8"/><use xlink:href="#b" transform="matrix(1,0,0,1,491.80000000000007,425) translate(31.46296296296297 40.201388888888886)"/><path d="M666.8 426c0-3.3 2.7-6 6-6h34.8c3.3 0 6 2.7 6 6v228c0 3.3-2.7 6-6 6h-34.8c-3.3 0-6-2.7-6-6z" stroke="#5e5e5e" stroke-width="3" fill="#edf5ff"/><path d="M440 426c0-3.3 2.7-6 6-6h34.8c3.3 0 6 2.7 6 6v68c0 3.3-2.7 6-6 6H446c-3.3 0-6-2.7-6-6z" stroke="#5e5e5e" stroke-width="3" fill="#e3fae3"/><path d="M486.8 506c0-3.3 2.7-6 6-6h168c3.3 0 6 2.7 6 6v68c0 3.3-2.7 6-6 6h-168c-3.3 0-6-2.7-6-6z" stroke="#5e5e5e" stroke-width="3" fill="#dfe3e8"/><use xlink:href="#d" transform="matrix(1,0,0,1,491.79999999999984,505) translate(31.46296296296297 40.201388888888886)"/><path d="M440 506c0-3.3 2.7-6 6-6h34.8c3.3 0 6 2.7 6 6v68c0 3.3-2.7 6-6 6H446c-3.3 0-6-2.7-6-6z" stroke="#5e5e5e" stroke-width="3" fill="#e3fae3"/><path d="M486.8 586c0-3.3 2.7-6 6-6h168c3.3 0 6 2.7 6 6v68c0 3.3-2.7 6-6 6h-168c-3.3 0-6-2.7-6-6z" stroke="#5e5e5e" stroke-width="3" fill="#dfe3e8"/><use xlink:href="#f" transform="matrix(1,0,0,1,491.79999999999984,585) translate(31.46296296296297 40.201388888888886)"/><path d="M440 586c0-3.3 2.7-6 6-6h34.8c3.3 0 6 2.7 6 6v68c0 3.3-2.7 6-6 6H446c-3.3 0-6-2.7-6-6z" stroke="#5e5e5e" stroke-width="3" fill="#e3fae3"/><path d="M826.8 426c0-3.3 2.7-6 6-6h168c3.3 0 6 2.7 6 6v68c0 3.3-2.7 6-6 6h-168c-3.3 0-6-2.7-6-6z" stroke="#5e5e5e" stroke-width="3" fill="#dfe3e8"/><use xlink:href="#b" transform="matrix(1,0,0,1,831.8000000000002,425) translate(31.46296296296297 40.201388888888886)"/><path d="M1006.8 426c0-3.3 2.7-6 6-6h34.8c3.3 0 6 2.7 6 6v228c0 3.3-2.7 6-6 6h-34.8c-3.3 0-6-2.7-6-6z" stroke="#5e5e5e" stroke-width="3" fill="#edf5ff"/><path d="M826.8 506c0-3.3 2.7-6 6-6h168c3.3 0 6 2.7 6 6v68c0 3.3-2.7 6-6 6h-168c-3.3 0-6-2.7-6-6z" stroke="#5e5e5e" stroke-width="3" fill="#dfe3e8"/><use xlink:href="#d" transform="matrix(1,0,0,1,831.8,505) translate(31.46296296296297 40.201388888888886)"/><path d="M826.8 586c0-3.3 2.7-6 6-6h168c3.3 0 6 2.7 6 6v68c0 3.3-2.7 6-6 6h-168c-3.3 0-6-2.7-6-6z" stroke="#5e5e5e" stroke-width="3" fill="#dfe3e8"/><use xlink:href="#f" transform="matrix(1,0,0,1,831.8,585) translate(31.46296296296297 40.201388888888886)"/><path d="M780 426c0-3.3 2.7-6 6-6h34.8c3.3 0 6 2.7 6 6v228c0 3.3-2.7 6-6 6H786c-3.3 0-6-2.7-6-6z" stroke="#5e5e5e" stroke-width="3" fill="#e3fae3"/><path d="M116.8 366c0-3.3 2.7-6 6-6h228c3.3 0 6 2.7 6 6v48c0 3.3-2.7 6-6 6h-228c-3.3 0-6-2.7-6-6z" stroke="#000" stroke-opacity="0" stroke-width="3" fill="#fff" fill-opacity="0"/><use xlink:href="#g" transform="matrix(1,0,0,1,121.79999999999995,365.00000000000006) translate(93.5246913580247 31.138888888888886)"/><path d="M550.32 366.33h52.96v47.34h-52.96z" fill="#fff" fill-opacity="0"/><use xlink:href="#h" transform="matrix(1,0,0,1,555.3246913580246,371.33333333333337) translate(0 24.888888888888886)"/><path d="M880 366.33h52.95v47.34H880z" fill="#fff" fill-opacity="0"/><use xlink:href="#i" transform="matrix(1,0,0,1,885,371.33333333333337) translate(0 24.888888888888886)"/><path d="M210.32 680h52.96v47.33h-52.96z" fill="#fff" fill-opacity="0"/><use xlink:href="#j" transform="matrix(1,0,0,1,215.32469135802467,685) translate(0 24.888888888888886)"/><path d="M550.32 680h52.96v47.33h-52.96z" fill="#fff" fill-opacity="0"/><use xlink:href="#k" transform="matrix(1,0,0,1,555.3246913580246,685) translate(0 24.888888888888886)"/><path d="M890.32 680h52.96v47.33h-52.96z" fill="#fff" fill-opacity="0"/><use xlink:href="#l" transform="matrix(1,0,0,1,895.3246913580244,685) translate(0 24.888888888888886)"/><defs><linearGradient gradientUnits="userSpaceOnUse" id="a" x1="146.8" y1="120" x2="146.8" y2="200"><stop offset="45.56%" stop-color="#fff"/><stop offset="21.37%" stop-color="#fff"/><stop offset="47.58%" stop-color="#dbdbdb"/></linearGradient><path fill="#333" d="M92-134c39 3 62-4 62-44 0-37-25-40-62-38v82zm0 115c49 5 80-2 80-50 0-44-34-49-80-46v96zm138-50C230 26 101-4 6 0v-13l30-5v-200l-30-5v-13c79 7 206-26 206 54 0 33-22 49-49 56 39 3 67 18 67 57" id="m"/><path fill="#333" d="M76-16l18 4V0H7v-12l18-4v-218l-17-4v-12h68v234" id="n"/><path fill="#333" d="M90-170c54-1 76 32 76 87 1 56-23 87-77 87-53 0-75-32-75-87s23-86 76-87zM89-14c28-2 26-38 26-69s3-69-26-69c-27 0-24 39-24 69s-3 66 24 69" id="o"/><path fill="#333" d="M109-18c15 0 31-2 42-6v14c-11 9-31 13-51 13-59 0-86-28-88-86-3-75 66-101 135-80v48h-13c-3-20-7-40-34-37-51 7-55 138 9 134" id="p"/><path fill="#333" d="M77-79l64-71-17-4v-11h63v11c-32 3-40 30-59 46l57 92 15 4V0h-80c-2-11 3-15 10-16L97-74 77-60v44l16 4V0H10v-12l16-4v-218l-17-4v-12h68v171" id="q"/><path fill="#333" d="M-3 50V25h186v25H-3" id="r"/><path fill="#333" d="M120-19l41 4V0H29v-15l41-4v-178l-41 13v-15l66-39h25v219" id="s"/><g id="b"><use transform="matrix(0.08641975308641973,0,0,0.08641975308641973,0,0)" xlink:href="#m"/><use transform="matrix(0.08641975308641973,0,0,0.08641975308641973,20.740740740740737,0)" xlink:href="#n"/><use transform="matrix(0.08641975308641973,0,0,0.08641975308641973,29.382716049382708,0)" xlink:href="#o"/><use transform="matrix(0.08641975308641973,0,0,0.08641975308641973,44.938271604938265,0)" xlink:href="#p"/><use transform="matrix(0.08641975308641973,0,0,0.08641975308641973,58.679012345679,0)" xlink:href="#q"/><use transform="matrix(0.08641975308641973,0,0,0.08641975308641973,75.96296296296295,0)" xlink:href="#r"/><use transform="matrix(0.08641975308641973,0,0,0.08641975308641973,91.5185185185185,0)" xlink:href="#s"/></g><linearGradient gradientUnits="userSpaceOnUse" id="c" x1="486.8" y1="200" x2="486.8" y2="280"><stop offset="45.56%" stop-color="#fff"/><stop offset="21.37%" stop-color="#fff"/><stop offset="47.58%" stop-color="#dbdbdb"/></linearGradient><path fill="#333" d="M23-231c66-19 162-2 134 80C139-97 87-78 49-40h116V0H15v-33c34-46 90-67 94-145 2-38-37-54-63-33l-8 34H23v-54" id="t"/><g id="d"><use transform="matrix(0.08641975308641973,0,0,0.08641975308641973,0,0)" xlink:href="#m"/><use transform="matrix(0.08641975308641973,0,0,0.08641975308641973,20.740740740740737,0)" xlink:href="#n"/><use transform="matrix(0.08641975308641973,0,0,0.08641975308641973,29.382716049382708,0)" xlink:href="#o"/><use transform="matrix(0.08641975308641973,0,0,0.08641975308641973,44.938271604938265,0)" xlink:href="#p"/><use transform="matrix(0.08641975308641973,0,0,0.08641975308641973,58.679012345679,0)" xlink:href="#q"/><use transform="matrix(0.08641975308641973,0,0,0.08641975308641973,75.96296296296295,0)" xlink:href="#r"/><use transform="matrix(0.08641975308641973,0,0,0.08641975308641973,91.5185185185185,0)" xlink:href="#t"/></g><linearGradient gradientUnits="userSpaceOnUse" id="e" x1="826.8" y1="280" x2="826.8" y2="360"><stop offset="45.56%" stop-color="#fff"/><stop offset="21.37%" stop-color="#fff"/><stop offset="47.58%" stop-color="#dbdbdb"/></linearGradient><path fill="#333" d="M108-123c37 3 59 22 60 59C169 8 81 11 16-4l-2-57h16c4 25 8 49 41 47 31-1 44-21 45-52 2-37-24-47-61-46v-22c33 1 52-9 50-44 6-38-35-53-61-33l-7 34H21v-54c52-13 140-14 136 51-2 33-19 52-49 57" id="u"/><g id="f"><use transform="matrix(0.08641975308641973,0,0,0.08641975308641973,0,0)" xlink:href="#m"/><use transform="matrix(0.08641975308641973,0,0,0.08641975308641973,20.740740740740737,0)" xlink:href="#n"/><use transform="matrix(0.08641975308641973,0,0,0.08641975308641973,29.382716049382708,0)" xlink:href="#o"/><use transform="matrix(0.08641975308641973,0,0,0.08641975308641973,44.938271604938265,0)" xlink:href="#p"/><use transform="matrix(0.08641975308641973,0,0,0.08641975308641973,58.679012345679,0)" xlink:href="#q"/><use transform="matrix(0.08641975308641973,0,0,0.08641975308641973,75.96296296296295,0)" xlink:href="#r"/><use transform="matrix(0.08641975308641973,0,0,0.08641975308641973,91.5185185185185,0)" xlink:href="#u"/></g><path fill="#333" d="M108-230c-35 27-44 80-44 143s8 116 44 144v20C7 49-17-153 67-223c12-10 25-19 41-27v20" id="v"/><path fill="#333" d="M75-13V0H4v-13l17-5 84-220h51l83 220 18 5V0H152v-13l28-5-23-61H67L45-18zm38-189L74-98h76" id="w"/><path fill="#333" d="M12-250C113-222 137-19 52 49 40 59 28 69 12 77V57C48 29 56-24 56-87s-9-116-44-143v-20" id="x"/><g id="g"><use transform="matrix(0.08641975308641973,0,0,0.08641975308641973,0,0)" xlink:href="#v"/><use transform="matrix(0.08641975308641973,0,0,0.08641975308641973,10.28395061728395,0)" xlink:href="#w"/><use transform="matrix(0.08641975308641973,0,0,0.08641975308641973,32.66666666666666,0)" xlink:href="#x"/></g><g id="h"><use transform="matrix(0.08641975308641973,0,0,0.08641975308641973,0,0)" xlink:href="#v"/><use transform="matrix(0.08641975308641973,0,0,0.08641975308641973,10.28395061728395,0)" xlink:href="#m"/><use transform="matrix(0.08641975308641973,0,0,0.08641975308641973,31.024691358024686,0)" xlink:href="#x"/></g><path fill="#333" d="M76-116c0 86 71 126 135 84l6-39h16l-1 60C138 21 18 1 18-115c0-117 106-141 210-112l1 57h-16l-5-34c-13-9-32-16-54-16-60 0-78 42-78 104" id="y"/><g id="i"><use transform="matrix(0.08641975308641973,0,0,0.08641975308641973,0,0)" xlink:href="#v"/><use transform="matrix(0.08641975308641973,0,0,0.08641975308641973,10.28395061728395,0)" xlink:href="#y"/><use transform="matrix(0.08641975308641973,0,0,0.08641975308641973,32.66666666666666,0)" xlink:href="#x"/></g><path fill="#333" d="M92-20c74 11 92-29 92-98 0-66-23-103-92-98v196zm150-99C242 9 136 6 6 0v-13l31-5v-200l-31-5v-13h112c81 0 124 34 124 117" id="z"/><g id="j"><use transform="matrix(0.08641975308641973,0,0,0.08641975308641973,0,0)" xlink:href="#v"/><use transform="matrix(0.08641975308641973,0,0,0.08641975308641973,10.28395061728395,0)" xlink:href="#z"/><use transform="matrix(0.08641975308641973,0,0,0.08641975308641973,32.66666666666666,0)" xlink:href="#x"/></g><path fill="#333" d="M6-13l30-5v-200l-30-5v-13h201v60h-16l-6-38-93-2v86h61l6-26h16v73h-16l-6-27H92v91l104-3 10-44h16l-4 66H6v-13" id="A"/><g id="k"><use transform="matrix(0.08641975308641973,0,0,0.08641975308641973,0,0)" xlink:href="#v"/><use transform="matrix(0.08641975308641973,0,0,0.08641975308641973,10.28395061728395,0)" xlink:href="#A"/><use transform="matrix(0.08641975308641973,0,0,0.08641975308641973,31.024691358024686,0)" xlink:href="#x"/></g><path fill="#333" d="M92-101v83l39 5V0H8v-13l28-5v-200l-30-5v-13h197v64h-17l-5-42c-27-3-59-2-89-2v96h57l6-30h15v80h-15l-6-31H92" id="B"/><g id="l"><use transform="matrix(0.08641975308641973,0,0,0.08641975308641973,0,0)" xlink:href="#v"/><use transform="matrix(0.08641975308641973,0,0,0.08641975308641973,10.28395061728395,0)" xlink:href="#B"/><use transform="matrix(0.08641975308641973,0,0,0.08641975308641973,29.20987654320987,0)" xlink:href="#x"/></g></defs></g></svg>